<?xml version="1.0" standalone="no"?>
<!DOCTYPE svg PUBLIC "-//W3C//DTD SVG 20010904//EN"
 "http://www.w3.org/TR/2001/REC-SVG-20010904/DTD/svg10.dtd">
<svg version="1.0" xmlns="http://www.w3.org/2000/svg"
 width="757.000000pt" height="757.000000pt" viewBox="0 0 757.000000 757.000000"
 preserveAspectRatio="xMidYMid meet">
<metadata>
Created by potrace 1.14, written by Peter Selinger 2001-2017
</metadata>
<g transform="translate(0.000000,757.000000) scale(0.100000,-0.100000)"
fill="#000000" stroke="none">
<path d="M1795 7241 c-9 -8 -33 -11 -130 -17 -131 -8 -271 -47 -398 -110 -16
-8 -37 -14 -48 -14 -17 0 -143 -90 -151 -108 -2 -4 -20 -15 -40 -24 -23 -11
-38 -25 -38 -35 0 -17 -31 -44 -47 -42 -3 0 -10 -6 -15 -15 -5 -9 -14 -16 -19
-16 -14 0 -48 -41 -49 -57 0 -7 -4 -13 -8 -13 -11 0 -44 -69 -38 -79 3 -4 -6
-18 -19 -29 -14 -12 -26 -29 -26 -37 -3 -29 -17 -64 -35 -85 -7 -8 -15 -29
-18 -45 -2 -17 -5 -31 -6 -32 -2 -2 -3 -6 -5 -10 -1 -5 -5 -16 -9 -25 -4 -9
-9 -23 -10 -31 -1 -8 -7 -21 -14 -29 -6 -8 -9 -18 -5 -22 4 -4 1 -11 -7 -16
-8 -6 -10 -10 -5 -10 8 0 13 -162 5 -180 -8 -19 -7 -60 2 -60 7 0 7 -4 0 -13
-8 -10 -6 -21 8 -45 22 -36 30 -93 19 -135 -6 -20 -3 -36 8 -53 8 -13 12 -24
9 -24 -4 0 -2 -8 3 -18 7 -13 6 -23 -1 -30 -9 -9 -9 -12 0 -12 15 0 41 -57 44
-99 2 -20 14 -47 30 -65 15 -16 25 -32 23 -34 -2 -3 0 -12 5 -22 5 -9 11 -29
14 -44 3 -15 17 -40 31 -54 19 -19 23 -28 13 -31 -14 -5 -48 -40 -48 -51 0 -3
-12 -19 -28 -36 -54 -57 -119 -158 -114 -176 1 -5 -1 -8 -5 -8 -5 0 -9 -12 -9
-27 -3 -51 -16 -108 -26 -114 -7 -4 -6 -9 1 -13 7 -5 8 -13 2 -25 -5 -9 -6
-23 -1 -31 4 -7 7 -22 4 -33 -2 -11 0 -25 3 -31 4 -6 7 -25 6 -44 0 -22 6 -36
18 -43 11 -5 19 -18 19 -28 0 -10 7 -31 14 -47 8 -15 13 -31 10 -36 -3 -4 0
-8 5 -8 6 0 11 -6 11 -14 0 -7 7 -19 15 -26 8 -7 13 -16 10 -20 -15 -25 181
-172 262 -196 139 -42 412 -52 550 -19 16 4 20 1 18 -13 -2 -9 -4 -17 -5 -17
-1 0 -3 -19 -3 -43 -1 -23 1 -42 5 -42 4 0 5 -8 3 -19 -2 -10 3 -30 10 -45 15
-28 15 -28 15 -51 0 -26 124 -153 190 -193 42 -25 52 -27 158 -27 70 0 111 -4
108 -10 -2 -5 -9 -9 -15 -7 -6 1 -21 -7 -33 -18 -12 -11 -26 -20 -31 -20 -6 0
-23 -13 -39 -30 -15 -16 -32 -30 -37 -30 -10 0 -25 -30 -22 -43 1 -5 -3 -6 -8
-3 -5 4 -12 -3 -16 -14 -3 -11 -9 -19 -13 -18 -14 4 -52 -14 -52 -23 0 -6 -4
-7 -10 -4 -5 3 -10 0 -10 -8 0 -20 -34 -57 -52 -57 -9 0 -21 -7 -28 -15 -7 -8
-9 -15 -6 -15 14 0 -62 -68 -80 -72 -11 -2 -19 -8 -19 -13 0 -16 -31 -55 -38
-48 -4 3 -7 1 -7 -5 0 -7 -3 -11 -7 -11 -22 4 -31 -3 -26 -19 5 -22 -51 -87
-67 -77 -6 4 -9 3 -8 -2 5 -18 -14 -52 -37 -67 -16 -10 -25 -26 -25 -42 0 -13
-6 -27 -14 -30 -7 -3 -17 -23 -20 -45 -6 -36 -3 -45 28 -81 42 -48 93 -85 126
-90 25 -3 30 -22 34 -115 0 -18 5 -33 9 -33 4 0 4 -8 -1 -17 -5 -10 -8 -31 -6
-48 2 -16 3 -55 3 -85 -1 -67 -1 -67 5 -107 3 -18 1 -35 -4 -38 -6 -3 -6 -15
0 -30 6 -16 6 -27 -1 -31 -6 -3 -8 -13 -5 -21 4 -9 1 -23 -6 -31 -10 -12 -10
-14 0 -8 8 5 12 -2 13 -26 0 -18 2 -41 4 -50 2 -10 -1 -18 -6 -18 -6 0 -5 -9
1 -21 7 -11 9 -27 6 -35 -3 -8 -2 -14 2 -14 5 0 7 -44 5 -97 -2 -54 -5 -129
-6 -168 -1 -38 -6 -73 -12 -77 -6 -5 -5 -8 3 -8 7 0 10 -4 7 -10 -10 -16 -14
-80 -5 -80 10 0 6 -82 -4 -99 -4 -6 -2 -11 4 -11 8 0 8 -6 0 -20 -8 -15 -8
-20 1 -20 8 0 8 -4 -1 -15 -8 -9 -8 -15 -2 -15 7 0 10 -36 8 -100 -2 -55 1
-100 5 -100 4 0 7 -27 6 -60 -1 -33 -5 -60 -8 -60 -7 0 -9 -15 -14 -135 -5
-96 -9 -127 -19 -144 -4 -7 -6 -15 -3 -17 3 -3 1 -19 -3 -35 -5 -18 -5 -29 1
-29 6 0 6 -7 1 -17 -4 -10 -7 -45 -6 -78 1 -39 -4 -68 -13 -84 -8 -13 -10 -20
-4 -17 14 9 14 -5 1 -38 -6 -16 -6 -27 0 -31 5 -3 9 -16 8 -28 0 -12 2 -29 6
-38 4 -10 3 -20 -3 -24 -6 -3 -11 -21 -11 -39 l0 -34 -76 -1 c-102 -2 -138 -8
-201 -37 -41 -18 -56 -31 -64 -54 -6 -16 -15 -30 -20 -30 -6 0 -1 -10 11 -22
11 -12 20 -26 20 -30 0 -5 24 -20 53 -33 45 -20 74 -24 207 -28 85 -4 164 -8
175 -11 32 -6 123 -17 195 -21 116 -7 729 -6 833 2 109 9 432 9 1112 1 376 -4
629 -1 1095 16 310 11 430 23 620 60 41 8 89 18 105 21 17 3 80 15 140 27 82
16 155 21 290 23 159 2 186 5 228 23 57 26 96 67 97 104 0 15 4 29 9 32 10 7
21 56 12 56 -11 0 -7 95 5 107 6 7 13 11 15 10 3 -1 0 3 -6 8 -13 13 -14 48
-1 57 6 4 6 16 -2 33 -14 30 -16 79 -4 71 10 -6 9 30 -1 40 -4 4 -3 12 3 19 6
7 4 21 -6 39 -11 23 -12 32 -2 43 13 16 18 132 5 140 -4 3 -3 11 4 19 6 8 9
14 7 14 -3 0 -2 18 2 39 4 22 3 44 -2 49 -14 14 -17 49 -9 122 4 38 4 75 0 82
-4 7 -3 18 3 25 8 10 6 18 -6 32 -13 15 -16 28 -10 57 3 22 11 45 17 52 6 8 6
12 -1 12 -12 0 -11 18 2 39 7 10 5 12 -5 7 -8 -4 -6 -1 4 7 16 13 17 19 6 39
-14 26 -23 118 -11 118 11 0 10 44 -2 52 -6 4 -6 15 2 32 6 14 8 26 3 26 -4 0
-8 6 -8 13 0 6 -3 24 -6 40 -3 15 -2 27 3 27 5 0 9 8 9 17 1 10 3 63 5 118 2
55 0 105 -3 110 -8 11 -8 25 0 40 4 9 4 72 -1 85 -8 22 -8 80 -1 85 7 4 7 15
0 32 -6 15 -7 38 -4 51 3 13 1 30 -5 37 -6 8 -9 29 -7 47 3 18 2 42 -2 53 -4
10 -3 32 3 48 7 19 7 30 0 35 -8 6 -12 87 -5 125 0 5 12 -1 26 -12 14 -11 40
-23 58 -26 18 -4 37 -12 44 -17 7 -6 26 -5 52 3 34 10 41 17 42 38 4 80 -20
130 -98 212 -52 54 -53 57 -30 63 31 7 77 51 82 76 2 11 0 20 -5 20 -4 0 -4
17 0 37 5 20 7 40 4 45 -3 4 0 17 7 29 6 12 13 65 15 118 4 122 12 173 27 183
7 4 8 8 4 8 -4 0 -3 9 3 19 7 14 7 22 0 26 -6 4 -7 12 -3 18 8 12 13 33 15 55
1 6 5 12 10 12 5 0 5 8 0 18 -11 19 -7 54 9 94 6 15 9 31 6 35 -3 5 -2 15 3
23 5 8 5 21 -1 31 -6 12 -5 20 2 24 6 4 8 12 6 19 -3 7 3 29 14 50 10 20 16
43 13 50 -3 8 1 30 10 49 11 27 11 37 3 41 -7 2 -6 5 3 5 10 1 16 12 17 34 3
86 8 123 17 129 12 8 17 38 6 38 -5 0 -7 20 -6 45 1 25 -1 48 -5 51 -4 2 -6
14 -4 25 3 12 0 30 -6 41 -6 11 -12 29 -15 41 -2 11 -10 25 -18 29 -26 15 -46
39 -40 49 3 5 10 6 16 3 6 -4 8 -3 5 3 -4 5 2 19 13 30 10 12 17 23 14 26 -3
3 9 15 25 27 17 12 31 26 31 32 0 11 69 78 81 78 3 0 9 13 12 28 3 15 17 40
31 55 14 16 26 32 26 36 0 5 7 14 15 21 9 7 14 19 11 26 -3 7 2 18 9 24 8 7
12 16 9 21 -2 5 3 20 12 34 10 16 12 25 5 25 -8 0 -7 10 4 30 8 16 15 38 15
50 0 11 4 20 10 20 5 0 9 12 10 28 1 69 3 82 10 82 4 0 5 21 3 48 -3 26 -6 70
-7 97 -1 28 -8 61 -15 75 -8 13 -14 39 -13 56 1 19 -7 41 -19 55 -12 13 -30
44 -41 68 -11 24 -34 57 -51 73 -33 30 -144 108 -154 108 -4 0 -14 6 -22 14
-24 21 -250 94 -318 103 -71 10 -189 9 -263 -1 l-55 -8 -19 41 c-11 23 -22 41
-26 41 -3 0 -17 21 -29 46 -13 25 -41 64 -64 87 -22 23 -56 61 -74 85 -66 85
-146 144 -292 218 -171 86 -276 117 -399 120 -56 1 -119 -2 -140 -8 -20 -5
-42 -10 -49 -10 -7 -1 -10 -4 -8 -8 4 -7 -89 -54 -110 -55 -15 -2 -46 15 -69
37 -12 11 -43 37 -71 58 -163 124 -582 264 -739 246 -28 -3 -69 -6 -91 -6 -48
1 -134 -18 -155 -34 -8 -7 -27 -18 -42 -26 -15 -7 -30 -21 -33 -31 -5 -16 -40
-35 -56 -32 -3 1 -17 -15 -30 -37 -37 -59 -52 -65 -99 -35 -117 74 -558 200
-905 260 -82 14 -190 32 -239 41 -49 8 -164 19 -255 24 -184 9 -199 9 -206 1z
m500 -267 c153 -15 635 -121 757 -168 82 -30 145 -71 218 -139 64 -60 93 -113
135 -242 14 -44 28 -87 32 -95 3 -8 7 -21 9 -29 16 -82 318 -150 427 -97 24
12 34 22 27 26 -8 5 -8 9 2 12 16 7 23 68 7 68 -7 0 -8 11 -4 31 5 22 2 36
-11 50 -16 18 -21 44 -28 146 -1 18 -5 35 -8 39 -4 3 -5 11 -3 17 3 7 6 24 9
39 5 30 34 78 47 78 5 0 8 3 8 8 -4 21 2 42 11 42 13 0 50 37 43 44 -3 2 12 8
33 12 50 10 53 11 59 14 3 1 10 4 15 5 6 1 11 4 13 5 8 7 69 4 110 -6 48 -12
117 -52 117 -66 0 -5 5 -8 11 -8 16 0 91 -68 107 -97 7 -13 10 -23 7 -23 -3 0
-1 -6 5 -12 45 -54 60 -74 60 -83 0 -6 5 -16 12 -23 12 -12 19 -72 9 -72 -3 0
-7 -12 -8 -27 0 -15 -5 -29 -10 -30 -9 -3 -6 -66 4 -93 10 -27 9 -105 -1 -112
-7 -5 -5 -8 5 -8 10 0 25 -18 37 -42 17 -37 55 -80 72 -84 3 0 19 -7 35 -14
17 -7 37 -14 45 -16 8 -2 23 -7 35 -12 44 -21 113 -33 166 -29 58 5 168 55
148 67 -7 5 -6 12 3 21 16 17 16 76 -1 107 -7 12 -8 28 -4 35 11 17 11 30 0
45 -5 6 -6 12 -3 12 4 0 0 7 -9 16 -9 10 -14 25 -12 36 3 10 1 16 -4 13 -8 -5
-7 44 2 73 2 8 19 30 36 50 18 20 33 40 33 44 0 4 6 8 14 8 8 0 16 7 20 15 3
8 9 14 13 13 14 -3 67 15 88 28 42 30 56 21 195 -119 31 -30 50 -59 54 -81 4
-19 13 -39 21 -46 8 -7 15 -18 15 -25 0 -6 9 -20 20 -30 11 -10 18 -20 16 -22
-2 -2 7 -16 20 -30 13 -14 22 -28 20 -31 -3 -2 1 -21 9 -41 8 -20 13 -47 11
-61 -1 -14 2 -30 7 -37 9 -12 -18 -63 -34 -63 -5 0 -8 -3 -7 -7 3 -10 -51 -92
-73 -113 -9 -8 -14 -21 -11 -29 2 -7 -1 -17 -7 -21 -7 -4 -13 -13 -14 -21 -2
-8 -7 -21 -12 -29 -30 -49 14 -144 84 -179 47 -25 180 -52 252 -53 63 -1 149
27 149 49 0 8 4 12 9 8 6 -3 15 3 20 14 6 11 20 23 32 26 15 5 19 13 16 27 -3
11 2 27 14 39 10 10 16 25 13 32 -3 8 2 17 11 21 9 3 14 10 11 15 -4 5 -1 22
5 38 7 15 11 36 10 45 -1 12 4 16 18 13 13 -2 18 1 15 9 -5 13 14 26 50 33 10
2 24 9 30 17 12 14 68 32 135 41 38 6 47 3 72 -21 16 -15 29 -34 29 -41 0 -7
6 -13 13 -13 8 0 7 -4 -3 -10 -11 -7 -11 -10 -2 -10 7 0 11 -4 8 -8 -3 -5 1
-20 8 -34 8 -15 10 -31 5 -39 -5 -8 -2 -20 7 -31 9 -9 13 -22 9 -28 -4 -7 -9
-47 -10 -89 -3 -86 -6 -103 -20 -113 -6 -5 -6 -8 1 -8 7 0 9 -11 6 -25 -2 -14
-8 -25 -13 -25 -5 0 -9 -6 -9 -14 0 -7 -6 -19 -14 -26 -8 -6 -12 -18 -9 -26 3
-8 1 -14 -5 -14 -6 0 -20 -30 -32 -66 -12 -36 -28 -68 -35 -70 -7 -3 -25 -29
-40 -57 -16 -29 -31 -54 -35 -57 -4 -3 -15 -20 -25 -37 -11 -18 -23 -33 -27
-33 -5 0 -18 -12 -31 -26 -19 -22 -27 -25 -60 -20 -41 7 -72 29 -62 45 3 5 0
13 -6 16 -6 4 -8 18 -4 32 8 32 -36 125 -78 164 -79 73 -213 127 -340 136 -71
5 -80 4 -98 -16 -11 -11 -29 -21 -39 -21 -11 0 -20 -4 -20 -9 0 -5 -16 -12
-35 -15 -33 -6 -57 1 -95 30 -26 20 -222 83 -294 94 -76 12 -121 6 -150 -19
-10 -9 -20 -15 -22 -13 -10 6 -103 -81 -120 -113 -10 -19 -25 -35 -32 -35 -7
0 -11 -4 -7 -10 3 -5 -2 -18 -12 -29 -9 -11 -18 -30 -20 -42 -4 -26 -10 -34
-25 -34 -6 0 -12 -8 -14 -18 -3 -25 -72 -107 -87 -104 -7 1 -11 -5 -9 -14 1
-9 -13 -24 -35 -36 -49 -27 -101 -19 -166 25 -25 18 -50 32 -56 32 -14 0 -71
50 -71 62 0 16 -131 140 -185 176 -39 26 -50 29 -78 21 -17 -5 -44 -9 -60 -9
-15 0 -30 -7 -33 -15 -4 -8 -10 -15 -15 -15 -11 0 -30 -14 -68 -50 -14 -14
-55 -46 -91 -72 -36 -25 -75 -56 -88 -68 -12 -11 -26 -19 -30 -16 -10 6 -48
-35 -44 -47 1 -5 -15 -15 -37 -24 -21 -8 -44 -26 -50 -39 -6 -13 -17 -24 -24
-24 -7 0 -40 -20 -73 -45 -32 -24 -65 -45 -71 -45 -7 0 -13 -4 -13 -10 0 -5
-4 -10 -10 -10 -5 0 -18 -8 -28 -17 -11 -10 -34 -29 -52 -43 -18 -14 -48 -40
-66 -58 -19 -18 -34 -30 -34 -25 0 4 -5 0 -11 -9 -5 -10 -16 -18 -24 -18 -14
0 -39 -17 -77 -52 -10 -10 -23 -18 -29 -18 -5 0 -8 -4 -5 -9 4 -5 -7 -12 -23
-16 -17 -3 -44 -22 -60 -41 -17 -19 -34 -34 -39 -34 -4 0 -27 -14 -50 -31 -23
-17 -42 -27 -42 -22 0 4 -4 2 -9 -6 -5 -8 -54 -21 -117 -31 -125 -21 -152 -30
-186 -62 -13 -13 -30 -24 -38 -26 -8 -2 -17 -7 -20 -12 -3 -4 -49 -29 -102
-55 -66 -31 -105 -44 -119 -40 -11 4 -18 12 -16 18 2 6 -5 19 -14 28 -11 11
-15 26 -12 38 3 13 1 21 -7 21 -10 0 -9 4 1 16 10 12 10 17 0 23 -13 8 -11 49
8 138 9 47 35 91 57 100 8 3 14 13 14 22 0 10 7 26 15 37 21 28 18 41 -18 78
-32 32 -111 61 -162 59 -50 -2 -133 -13 -162 -22 -18 -5 -33 -8 -33 -6 0 10
-75 -29 -93 -49 -28 -29 -67 -54 -92 -59 -11 -2 -27 -7 -35 -10 -63 -25 -154
-30 -228 -12 -18 4 -49 25 -69 46 -21 22 -45 42 -55 45 -11 3 -18 15 -18 29 0
15 -7 26 -20 30 -13 4 -20 15 -20 30 0 13 -6 25 -12 28 -8 2 -14 24 -14 53 -1
27 -4 61 -7 77 -2 15 0 27 5 27 5 0 4 9 -2 19 -11 22 1 65 22 75 11 5 11 7 0
12 -10 5 -10 10 4 25 9 10 14 19 10 19 -4 0 -2 9 4 20 9 16 14 18 38 9 15 -6
77 -14 137 -17 92 -6 118 -4 158 10 26 10 47 15 47 12 0 -4 6 -1 13 5 8 6 16
8 20 5 3 -3 4 2 3 13 -2 10 6 30 16 44 20 26 20 26 -5 54 -66 74 -67 74 -151
115 -37 19 -71 41 -74 49 -3 9 -11 20 -19 24 -7 4 -13 14 -13 22 0 7 -12 27
-26 44 -14 17 -22 31 -17 31 4 0 1 6 -7 13 -29 24 -51 54 -55 77 -2 13 -11 30
-18 39 -16 19 -39 82 -32 89 2 2 -2 17 -10 33 -8 15 -15 40 -15 54 0 14 -6 28
-14 31 -18 7 -32 82 -18 96 7 7 7 19 2 34 -6 14 -6 34 0 48 7 19 5 26 -6 30
-15 6 -11 44 6 56 3 3 6 19 4 35 -1 17 3 36 8 43 6 6 7 12 3 12 -4 0 -1 7 6
17 10 11 11 17 3 20 -13 4 -7 43 7 43 4 0 6 10 4 22 -3 12 -1 26 3 32 10 13
53 121 56 138 2 15 33 53 91 113 22 23 39 49 37 58 -2 10 5 20 15 24 10 3 31
19 47 34 15 15 41 33 57 39 16 7 29 16 29 21 0 4 15 14 33 22 17 8 58 26 90
41 31 14 87 33 125 41 37 9 81 20 98 25 17 6 48 11 70 11 21 1 53 5 69 9 30 8
188 5 300 -6z m3033 -1968 c64 -32 65 -33 45 -52 -16 -15 -21 -32 -21 -79 0
-33 4 -66 8 -74 5 -9 2 -24 -7 -37 -12 -19 -12 -29 -2 -66 16 -55 19 -78 8
-78 -5 0 -4 -12 2 -27 6 -15 10 -50 11 -78 0 -27 4 -57 9 -66 5 -11 2 -23 -11
-37 -21 -22 -27 -48 -10 -37 6 3 10 0 11 -7 0 -7 2 -28 3 -45 3 -34 -7 -43
-21 -20 -9 14 -115 97 -188 147 -27 19 -54 38 -60 43 -11 8 -139 102 -244 177
-35 25 -74 54 -88 66 l-25 21 44 8 c23 5 50 9 58 10 9 1 34 14 57 28 23 15 56
28 72 29 30 2 35 8 32 35 -1 6 8 14 19 18 11 3 20 12 20 20 0 7 7 15 15 19 8
3 15 9 14 13 -4 25 3 42 20 48 10 3 24 19 31 35 7 17 17 27 24 23 6 -3 8 -3 4
2 -10 11 11 47 23 40 5 -4 9 4 9 16 0 20 5 17 36 -20 21 -24 64 -56 102 -75z
m-1073 -219 c44 -29 96 -62 115 -72 62 -34 207 -134 288 -197 19 -16 38 -28
41 -28 3 0 22 -15 41 -33 47 -44 175 -137 188 -137 6 0 12 -4 14 -8 2 -5 39
-33 83 -63 163 -110 321 -246 475 -409 85 -90 223 -233 305 -318 83 -84 151
-157 153 -162 2 -5 -6 -7 -17 -5 -14 2 -31 -6 -49 -26 l-28 -30 -141 8 c-200
11 -651 5 -943 -12 -52 -4 -149 -8 -215 -10 -66 -2 -178 -8 -250 -11 -153 -9
-440 -8 -645 1 -278 13 -562 7 -707 -14 -39 -6 -106 -10 -150 -9 -43 0 -88 -2
-100 -6 -37 -12 -62 -15 -121 -15 -134 -1 -274 -12 -417 -31 -44 -6 -98 -13
-120 -14 -22 -2 -43 -4 -46 -5 -3 -1 -15 -10 -28 -22 -18 -17 -25 -18 -36 -9
-8 7 -15 20 -15 29 0 9 -5 22 -11 28 -8 8 -2 17 20 34 17 12 31 29 31 36 0 14
74 55 84 46 6 -6 10 12 7 30 0 4 6 7 14 7 8 0 15 7 15 16 0 10 6 14 15 10 19
-7 47 3 40 14 -3 5 4 15 15 23 11 7 17 16 14 19 -3 3 9 10 25 16 17 6 31 15
31 20 0 5 10 9 22 8 14 -1 23 5 23 14 0 8 10 17 22 20 12 3 31 17 43 33 12 15
25 25 30 22 5 -3 10 5 12 17 2 15 10 23 23 23 11 0 24 10 30 22 5 13 20 23 35
25 14 2 24 9 22 16 -1 7 11 18 27 23 17 6 33 19 36 30 4 10 15 19 25 19 10 0
22 5 25 10 4 6 11 8 16 4 5 -3 9 -2 8 3 -3 17 1 33 9 31 13 -3 52 13 52 22 0
5 9 11 19 15 10 3 21 15 24 25 3 11 13 20 24 20 10 0 23 10 28 23 6 13 18 22
32 21 12 0 20 3 17 7 -6 10 44 44 53 35 3 -3 22 11 42 33 20 21 57 46 84 55
26 10 45 22 42 26 -5 8 137 110 152 110 3 0 19 15 37 34 17 18 43 36 59 40 15
3 27 11 27 17 0 6 5 7 10 4 6 -3 10 -2 10 3 0 16 35 49 47 45 6 -2 14 5 18 17
4 13 18 23 37 27 19 4 33 14 39 30 5 13 14 21 19 18 6 -4 24 5 41 19 17 14 35
26 40 26 6 0 7 5 3 12 -5 8 -2 9 12 4 10 -4 15 -4 11 0 -8 9 60 74 77 74 6 0
24 12 38 28 44 44 67 62 82 62 7 0 16 9 19 21 3 12 10 18 16 15 6 -4 18 5 27
19 9 14 22 25 30 25 7 0 20 10 28 22 9 12 16 19 16 14 0 -5 8 1 19 12 10 12
26 22 36 22 9 0 19 8 22 18 2 10 20 26 39 37 19 10 34 25 34 33 0 9 13 3 38
-17 20 -17 73 -55 117 -84z m1891 -20 c34 -2 66 -7 72 -11 12 -7 6 -161 -6
-181 -4 -5 -7 -17 -9 -25 -1 -8 -10 -20 -19 -27 -12 -9 -13 -13 -5 -13 10 0
12 -9 6 -32 -3 -18 -7 -37 -9 -43 -1 -5 -7 -19 -13 -29 -6 -10 -8 -27 -6 -37
3 -11 1 -19 -3 -19 -5 0 -10 -28 -11 -61 0 -36 -6 -65 -13 -69 -7 -4 -12 -21
-12 -36 0 -16 -3 -33 -6 -38 -3 -6 -7 -19 -8 -30 -3 -32 -10 -55 -16 -62 -4
-3 -4 -12 -1 -20 3 -8 0 -20 -6 -28 -7 -8 -11 -29 -11 -47 1 -39 -8 -138 -15
-156 -2 -7 0 -13 6 -13 13 0 6 -43 -13 -90 -8 -19 -14 -45 -13 -57 1 -13 1
-23 0 -23 -1 0 -68 70 -149 155 l-147 155 26 26 c19 19 23 29 15 43 -5 10 -7
28 -5 40 2 12 0 19 -5 16 -18 -11 -21 17 -4 30 11 8 15 15 11 15 -4 0 -3 8 2
18 7 13 6 27 -5 47 -8 15 -12 30 -9 33 3 3 -1 12 -8 20 -9 12 -9 16 1 19 6 3
12 15 12 27 0 12 -6 28 -12 35 -10 11 -10 13 0 7 7 -4 12 -1 12 8 0 8 -5 16
-11 18 -5 2 -11 19 -11 38 0 19 -5 41 -11 48 -6 8 -6 12 3 12 9 0 10 3 1 13
-11 13 -8 67 4 87 4 6 1 18 -6 26 -9 11 -9 18 -1 26 7 7 12 20 12 30 0 10 4
18 8 18 5 0 9 7 9 15 0 8 -4 12 -8 9 -4 -2 -13 12 -20 33 -11 35 -10 38 17 60
22 17 40 23 71 21 24 -1 45 0 47 3 5 4 176 2 272 -4z m-4099 -1726 c73 -28
194 -51 303 -57 140 -8 394 -5 437 4 21 4 56 5 78 1 22 -4 51 -5 65 -3 14 1
44 5 68 8 24 3 47 8 51 10 4 3 50 8 102 11 52 3 120 9 151 14 54 7 398 5 553
-3 405 -23 690 -23 895 -1 111 11 676 29 785 24 28 -1 112 -1 188 -1 l137 1
-4 -35 c-3 -19 -1 -34 4 -34 5 0 9 -19 9 -42 1 -24 1 -54 2 -68 1 -14 -1 -39
-3 -57 -3 -19 -1 -35 6 -38 8 -3 7 -7 -2 -11 -9 -4 -10 -9 -2 -19 8 -9 8 -15
0 -20 -6 -3 -8 -10 -5 -15 9 -15 13 -70 4 -75 -4 -3 -4 -18 1 -33 5 -19 3 -40
-6 -60 -7 -17 -9 -34 -4 -37 4 -3 6 -24 4 -47 -5 -52 -5 -50 -4 -218 1 -136
-4 -212 -15 -230 -3 -6 -2 -10 2 -10 15 0 12 -71 -3 -77 -11 -4 -12 -9 -3 -19
9 -11 8 -14 -1 -14 -10 0 -10 -3 0 -15 7 -8 13 -40 14 -70 0 -30 4 -55 8 -55
11 0 7 -73 -4 -87 -11 -14 -17 -72 -8 -78 3 -2 5 -33 4 -70 -1 -36 3 -68 8
-71 4 -3 5 -10 1 -17 -14 -23 -23 -170 -12 -203 4 -11 3 -27 -2 -36 -6 -10 -4
-31 6 -57 17 -49 17 -46 -2 -94 -11 -26 -13 -45 -7 -60 10 -24 7 -80 -4 -73
-9 5 -9 -150 -1 -159 4 -3 2 -16 -4 -29 -12 -24 -4 -22 -262 -52 -27 -3 -90
-15 -140 -25 -49 -11 -97 -22 -105 -23 -8 -2 -35 -7 -60 -11 -59 -10 -68 -12
-110 -25 -19 -6 -102 -13 -185 -16 -82 -3 -171 -6 -197 -8 -27 -1 -49 0 -49 3
-6 32 -6 138 0 146 14 18 20 55 9 61 -5 3 -7 15 -5 26 3 10 -1 34 -8 52 -8 19
-12 35 -10 38 10 10 14 82 5 93 -9 11 -7 46 5 65 3 6 1 10 -5 10 -7 0 -4 7 5
16 12 12 14 25 9 48 -4 17 -7 38 -6 46 1 8 3 69 5 134 2 81 7 121 15 124 9 3
9 9 1 23 -5 11 -7 39 -4 62 4 23 8 62 9 87 2 25 5 50 7 55 1 6 -1 21 -5 34 -6
18 -4 28 8 36 14 11 14 14 1 25 -15 12 -11 35 5 25 5 -3 11 -1 14 4 4 5 2 13
-4 16 -8 5 -7 11 1 21 7 8 13 25 13 37 1 12 5 27 9 34 4 7 5 48 3 92 -4 62 -9
84 -24 99 -11 11 -24 26 -28 33 -27 43 -308 159 -417 173 -53 7 -221 37 -227
41 -3 2 -32 6 -65 10 -33 3 -73 8 -90 10 -16 3 -57 7 -90 10 -33 2 -77 9 -99
14 -37 9 -225 7 -316 -4 -62 -7 -206 -14 -397 -19 -172 -5 -188 -9 -232 -58
-23 -25 -27 -40 -26 -77 3 -61 18 -161 29 -191 11 -29 18 -107 21 -243 2 -76
7 -142 10 -148 4 -5 8 -57 11 -115 2 -58 8 -114 14 -123 6 -13 5 -24 -4 -37
-9 -12 -11 -27 -6 -45 5 -15 6 -30 4 -32 -3 -2 -6 -29 -8 -59 -1 -30 -6 -60
-11 -68 -5 -8 -4 -11 3 -6 11 7 13 -3 11 -59 0 -16 -1 -51 -1 -77 -1 -28 -6
-48 -12 -48 -6 0 -5 -4 3 -9 9 -6 10 -10 2 -16 -9 -5 -9 -11 1 -22 14 -17 20
-173 6 -173 -14 0 -9 -47 7 -60 8 -7 15 -21 15 -32 0 -11 5 -28 10 -39 7 -13
7 -19 0 -19 -5 0 -10 -7 -10 -15 0 -11 -12 -15 -42 -16 -24 0 -59 -2 -78 -4
-19 -2 -205 -6 -412 -8 -335 -4 -377 -3 -369 11 5 8 6 23 4 33 -3 11 -1 19 5
19 6 0 9 8 7 18 -2 9 -4 17 -5 17 -1 0 -3 9 -5 20 -2 11 -9 21 -14 23 -7 2 -7
11 1 25 6 12 11 36 10 54 -2 17 3 35 9 38 8 6 8 9 -1 15 -13 8 -23 110 -11
110 4 0 8 6 8 13 0 6 5 31 11 55 5 23 8 51 5 62 -3 11 0 26 6 33 6 8 9 37 8
66 -3 45 4 73 24 102 2 4 -4 16 -14 26 -9 11 -17 31 -17 44 0 13 0 55 0 92 0
38 5 77 10 88 6 11 7 25 3 32 -15 24 -13 108 3 139 15 28 15 33 1 43 -11 8
-14 21 -10 41 9 52 2 288 -9 300 -4 3 -1 21 6 39 8 18 11 38 7 44 -11 17 -13
108 -3 115 11 7 3 97 -10 113 -5 7 -5 13 1 17 10 7 10 116 0 116 -4 0 -5 18
-4 40 1 22 -1 40 -5 40 -4 0 -7 33 -8 73 0 39 -2 99 -5 132 -2 33 0 66 6 73 6
8 6 12 -2 12 -7 0 -10 4 -6 9 3 5 -1 28 -9 50 -7 23 -10 41 -6 41 14 0 17 48
5 62 -7 7 -16 26 -20 43 l-7 30 19 -22 c11 -12 42 -31 70 -42z m2048 -997
c209 -22 229 -25 239 -35 6 -6 6 -9 -1 -9 -7 0 -10 -15 -8 -37 3 -45 -15 -154
-25 -148 -7 4 -8 -5 -11 -92 -1 -24 -6 -43 -12 -43 -5 0 -4 -7 3 -15 7 -8 8
-15 2 -15 -5 0 -8 -21 -6 -50 3 -39 0 -52 -14 -59 -15 -9 -15 -12 -2 -21 11
-7 11 -10 2 -10 -9 0 -10 -5 -2 -19 7 -14 7 -22 0 -26 -6 -4 -8 -11 -4 -16 11
-18 12 -84 1 -91 -5 -3 -10 -27 -10 -52 1 -25 -2 -46 -7 -46 -4 0 -3 -21 3
-46 9 -37 8 -47 -4 -55 -8 -5 -10 -9 -5 -9 5 0 4 -6 -2 -13 -7 -8 -6 -18 4
-31 11 -16 11 -22 1 -35 -10 -12 -9 -13 1 -7 11 7 12 4 3 -13 -7 -12 -9 -26
-6 -31 3 -6 2 -10 -3 -10 -6 0 -7 -13 -3 -32 7 -32 7 -87 -1 -176 -2 -23 0
-42 5 -42 4 0 5 -5 2 -10 -4 -6 -2 -16 3 -23 14 -18 20 -66 9 -70 -6 -2 -12
-28 -13 -58 -1 -30 -2 -56 -3 -59 -1 -7 -568 -3 -646 4 -33 3 -102 5 -153 5
-60 1 -91 5 -87 11 3 6 0 13 -9 16 -13 5 -13 10 0 40 8 19 11 34 8 34 -4 0 -1
6 5 14 12 14 5 46 -10 46 -6 0 -6 8 0 19 6 10 8 21 4 24 -10 10 -11 87 -2 93
5 3 7 10 3 15 -3 6 -7 36 -9 67 -1 31 -5 65 -10 75 -4 9 -4 25 0 35 11 25 13
100 5 150 -6 33 -4 45 6 49 12 4 12 8 3 20 -14 16 -21 63 -10 63 9 0 8 141 -2
157 -4 6 -4 14 1 17 5 3 7 20 6 38 -1 18 2 40 7 50 6 11 6 18 1 18 -6 0 -12 9
-15 20 -3 11 -1 20 4 20 5 0 3 12 -4 28 -8 15 -13 37 -11 48 2 12 -3 27 -11
34 -10 9 -12 17 -5 30 7 13 5 21 -5 30 -9 8 -13 25 -10 52 3 23 1 46 -3 52 -4
6 -7 25 -8 41 -1 17 -2 35 -4 40 -10 39 -4 41 148 43 161 2 191 4 210 15 6 5
16 6 21 3 5 -4 19 -2 31 2 31 11 236 4 415 -14z"/>
<path d="M3770 4485 c-36 -19 -112 -40 -132 -37 -9 2 -30 -11 -46 -27 -16 -17
-36 -31 -44 -31 -19 0 -38 -20 -38 -41 0 -10 -13 -28 -30 -42 -16 -14 -31 -31
-32 -38 -2 -8 -19 -27 -38 -42 -19 -16 -34 -35 -32 -42 1 -7 -5 -16 -14 -19
-9 -3 -14 -13 -11 -20 3 -8 -1 -20 -8 -26 -10 -9 -13 -28 -10 -66 2 -30 7 -59
10 -64 3 -5 1 -19 -5 -29 -8 -16 -6 -31 8 -63 11 -24 25 -61 32 -83 8 -25 36
-63 76 -102 34 -35 59 -63 56 -63 -11 0 92 -89 103 -90 6 0 24 -7 40 -16 49
-26 155 -61 225 -74 178 -33 351 4 395 85 10 19 22 32 27 29 13 -8 38 15 38
35 0 9 16 25 35 35 19 11 35 25 35 33 0 7 7 13 15 13 8 0 24 9 34 19 10 10 28
22 40 26 18 6 26 22 22 48 0 4 6 7 15 7 8 0 13 4 9 10 -7 11 29 50 47 50 6 0
9 3 5 6 -3 3 -1 17 4 31 6 16 6 30 0 37 -7 8 -3 16 11 25 20 13 20 13 -12 42
-24 22 -31 36 -27 54 2 14 -2 30 -10 37 -8 6 -12 17 -9 25 3 8 -5 25 -19 39
-14 14 -25 32 -25 41 0 17 -62 74 -113 106 -16 10 -41 29 -55 42 -15 14 -30
25 -34 25 -4 0 -36 14 -70 30 -98 48 -215 81 -303 86 -44 2 -93 6 -110 8 -16
2 -41 -2 -55 -9z m352 -242 c49 -39 90 -86 113 -129 18 -33 18 -37 3 -48 -11
-8 -14 -17 -8 -26 5 -9 5 -19 -1 -26 -6 -7 -12 -27 -14 -45 -3 -22 -18 -44
-47 -71 -23 -21 -45 -38 -48 -39 -39 -5 -59 -14 -80 -34 -18 -17 -37 -25 -62
-25 -20 0 -40 -5 -44 -11 -7 -12 -75 -44 -86 -41 -5 1 -8 -7 -8 -17 0 -11 -4
-22 -9 -25 -10 -6 -74 55 -79 74 -1 7 -9 19 -17 27 -8 8 -15 28 -15 44 0 42 0
43 -16 60 -12 14 -11 19 9 41 20 21 21 27 9 35 -13 7 -12 11 3 27 11 11 18 32
18 54 0 26 6 42 21 54 11 9 21 25 21 35 0 12 8 18 23 19 12 1 24 3 27 4 3 1 8
3 13 4 4 0 17 11 29 23 13 13 29 20 37 17 9 -3 17 2 21 15 7 22 17 25 96 29
48 2 61 -2 91 -25z"/>
<path d="M3557 1592 c-33 -13 -39 -21 -53 -71 -21 -78 -35 -102 -64 -115 -21
-9 -30 -27 -20 -38 1 -2 4 -16 6 -32 7 -39 32 -71 69 -86 175 -71 298 -71 371
-1 12 11 26 17 30 13 5 -4 3 0 -4 10 -9 11 -10 17 -1 20 6 2 13 28 15 58 5 66
-6 86 -95 177 -65 66 -179 95 -254 65z"/>
</g>
</svg>
