<svg xmlns="http://www.w3.org/2000/svg"><defs><font id="ABCFavoritMono-Light" horiz-adv-x="1228"><font-face font-family="ABC Favorit Mono Unlicensed Trial Light" font-weight="300" units-per-em="2048" panose-1="2 11 3 9 3 2 2 6 2 3" ascent="1597" descent="-451" x-height="1024" cap-height="1434" bbox="0 -512 3666 1878" underline-thickness="102" underline-position="-307" unicode-range="U+0020-FB02"/><glyph glyph-name="fi" unicode="fi" horiz-adv-x="2457" d="M725 0H592v911H143v113h449v225q0 99 46.5 142t147.5 43h525v-113H807q-46 0-64-18t-18-64v-215h1227V113h366V0h-876v113h377v798H725V0zm1251 1208h-184v205h184v-205z"/><glyph glyph-name="fl" unicode="fl" horiz-adv-x="2457" d="M682 0H549v911H143v113h406v225q0 99 46.5 142t147.5 43h1166V113h366V0h-876v113h377v1208H764q-46 0-64-18t-18-64v-215h653V911H682V0z"/><glyph glyph-name="f_f" unicode="ff" horiz-adv-x="2457" d="M2294 1321h-504q-46 0-64-18t-18-64v-215h535V911h-535V0h-133v911H623V0H489v911H143v113h346v225q0 98 47 141.5t148 43.5h524v-113H705q-46 0-64-18t-18-64v-215h952v225q0 99 46.5 142t147.5 43h525v-113z"/><glyph glyph-name="f_f_i" unicode="ffi" horiz-adv-x="3686" d="M3201 1024V113h367V0h-877v113h377v798H1894V0h-133v911H623V0H489v911H143v113h346v225q0 98 47 141.5t148 43.5h524v-113H705q-46 0-64-18t-18-64v-215h1138v225q0 98 47 141.5t148 43.5h524v-113h-504q-46 0-64-18t-18-64v-215h1307zm-160 389h185v-205h-185v205z"/><glyph glyph-name="f_f_l" unicode="ffl" horiz-adv-x="3686" d="M3138 1434V113h366V0h-876v113h376v1208H1939q-46 0-63.5-18t-17.5-64v-215h706V911h-706V0h-134v911H623V0H489v911H143v113h346v225q0 98 47 141.5t148 43.5h524v-113H705q-46 0-64-18t-18-64v-215h1101v225q0 98 47 141.5t148 43.5h1219z"/><glyph glyph-name="w_w_w.liga" unicode="www" horiz-adv-x="3686" d="m3377 154 156 870h133L3473 0h-170l-231 662L2841 0h-172l-211 918L2247 0h-172l-232 662L1612 0h-172l-211 918L1018 0H846L614 662 383 0H213L20 1024h134l155-868 217 618h174l224-633 202 883h205l203-883 221 633h174l223-633 203 883h205l203-883 221 633h174z"/><glyph glyph-name=".notdef" d="M1126 0H102v1434h1024V0zM225 1321V113h779v1208H225z"/><glyph glyph-name=".null" horiz-adv-x="0"/><glyph glyph-name="nonmarkingreturn" horiz-adv-x="682"/><glyph glyph-name="space"/><glyph glyph-name="exclam" unicode="!" d="M645 420h-61l-41 584v430h143v-430zM690 0H537v174h153V0z"/><glyph glyph-name="quotedbl" unicode="&quot;" d="M473 1004h-45l-39 266v164h133v-164zm318 0h-46l-38 266v164h133v-164z"/><glyph glyph-name="numbersign" unicode="#" d="M1141 1044V932H932l-70-430h193V389H842L778 0H649l64 389H412L348 0H219l64 389H94v113h209l70 430H182v112h211l64 390h129l-64-390h301l64 390h129l-64-390h189zM432 502h301l70 430H502z"/><glyph glyph-name="dollar" unicode="$" d="m698 778 47-10q359-75 359-381 0-183-131.5-295T616-20q-35 0-51 2l-39-228H399L440-2Q267 37 177.5 156T88 451h143q11-258 232-320l88 528-45 11q-179 39-263.5 128T158 1044q0 173 130.5 291.5T631 1454q37 0 53-2l39 227h127l-41-247q146-41 228.5-151t88.5-267H983q-6 103-57.5 175.5T786 1296zm-153 33 30-6 89 516h-37q-143 0-234.5-78T301 1047q0-97 59-153t185-83zm78-698h12q155 0 240.5 75T961 379q0 100-60.5 159.5T707 627l-33 6-88-520h37z"/><glyph glyph-name="percent" unicode="%" d="M297 819q-120 0-190 85t-70 226 70 226.5 190 85.5q122 0 192-85.5t70-226.5-70-226-192-85zM250 0H117l860 1434h133zm45 920h6q66 0 102.5 63t36.5 147q0 85-36.5 147T301 1339h-6q-66 0-102.5-62T156 1130q0-84 36.5-147T295 920zM928-8Q808-8 738 77t-70 226 70 226 190 85q122 0 192-85t70-226-70-226T928-8zm-2 100h6q66 0 102.5 63.5T1071 303q0 85-36.5 147T932 512h-6q-66 0-103-62t-37-147q0-84 37-147.5T926 92z"/><glyph glyph-name="ampersand" unicode="&amp;" d="M926 0H553Q387 0 277.5 102.5T168 379q0 124 63 217.5T403 727q-103 42-164 128.5T178 1065q0 169 113 269t280 100h170v-134H586q-113 0-191-68.5T317 1044q0-113 80-181t201-68h188v258h140V795h215V662H926V0zM600 133h186v529H598q-130 0-210.5-66.5T307 410q0-133 80.5-205T600 133z"/><glyph glyph-name="quotesingle" unicode="'" d="M633 1004h-45l-39 266v164h133v-164z"/><glyph glyph-name="parenleft" unicode="(" d="M973-184v-113q-159 7-283.5 140t-192 361.5T430 717q0 285 67.5 513.5t191.5 361T973 1731v-113q-121-9-214.5-127T614 1171t-51-454 51-454T758.5-57 973-184z"/><glyph glyph-name="parenright" unicode=")" d="M256 1618v113q159-7 283.5-140t192-361.5T799 717q0-285-67.5-513.5T540-157.5 256-297v113q121 9 214.5 127T615 263t51 454-51 454-144.5 320T256 1618z"/><glyph glyph-name="asterisk" unicode="*" d="M614 1094 492 881l-89 51 123 213H281v102h245l-123 213 91 51 122-213 123 213 88-51-122-213h245v-102H705l122-213-90-51z"/><glyph glyph-name="plus" unicode="+" d="M682 31H549v436H109v123h440v434h133V590h440V467H682V31z"/><glyph glyph-name="comma" unicode="," d="M522-236h-82v82h62q123 0 123 123V0H492v225h225V-41q0-93-51-144t-144-51z"/><glyph glyph-name="hyphen" unicode="-" d="M870 563H358v113h512V563z"/><glyph glyph-name="period" unicode="." d="M727 0H502v225h225V0z"/><glyph glyph-name="slash" unicode="/" d="M410 0H266l553 1434h144z"/><glyph glyph-name="zero" unicode="0" d="M614 1464q250 0 391.5-190.5T1147 727t-141.5-546.5T614-10q-254 0-393 192l-4-4v10Q82 384 82 727q0 356 141 546.5T614 1464zm11-133h-21q-55 0-105.5-16.5t-102.5-60-89.5-109.5T245 971.5 221 727q0-172 37-301l666 717q-55 99-134.5 143.5T625 1331zM604 123h21q55 0 105.5 16.5t102.5 60T922.5 309 984 482.5t24 244.5q0 157-31 272L319 289q55-87 130-126.5T604 123z"/><glyph glyph-name="one" unicode="1" d="M752 1434V137h405V0H195v137h423v1092L272 901v168l375 365h105z"/><glyph glyph-name="two" unicode="2" d="M860 662 346 137h746V0H164v143l575 584q120 122 156.5 185t36.5 147q0 108-83.5 185T643 1321h-20q-137 0-220-83t-86-222H178q2 194 127 316t324 122q195 0 318.5-111t123.5-284q0-63-14-115.5t-47-103-63-85-87-93.5z"/><glyph glyph-name="three" unicode="3" d="M621-20Q415-20 294.5 80T152 365h139q23-120 106-186t213-66h21q137 0 229 73t92 201q0 120-88.5 191T641 649h-92v133h110q127 0 205 75.5t78 186.5q0 127-87.5 202T633 1321h-21q-121 0-202.5-72.5T317 1065H178q9 168 134 278.5T623 1454q130 0 232.5-44t164-134.5T1081 1061q0-115-66.5-208T846 717q106-35 176-122.5t70-213.5q0-97-39-174.5t-104.5-126T799 6 621-20z"/><glyph glyph-name="four" unicode="4" d="M918 1434V475h235V346H918V0H784v346H70v152l692 936h156zm-134-164L201 475h583v795z"/><glyph glyph-name="five" unicode="5" d="M659 897q196 0 317.5-124T1098 461q0-210-138.5-345.5T616-20q-128 0-233 43T209.5 155.5 131 369h139q17-122 110-189t226-67h21q146 0 238.5 96T958 451q0 138-86.5 225.5T649 764h-20q-85 0-171-43T322 600H184l172 834h727v-138H471L360 784q113 113 299 113z"/><glyph glyph-name="six" unicode="6" d="M655 942q203 0 333-130.5T1118 479q0-226-134.5-362.5T645-20q-247 0-384.5 187T123 680q0 226 72 402.5t201.5 274T690 1454q179 0 297-94t152-264H999q-26 101-108.5 163T700 1321h-20q-180 0-300.5-176.5T246 684q51 128 164 193t245 65zm-22-829h20q140 0 233 99t93 249q0 152-89.5 250T653 809h-20q-146 0-243-98.5T293 463q0-151 97-250.5T633 113z"/><glyph glyph-name="seven" unicode="7" d="M139 1296v138h953v-164q-276-174-413.5-471.5T541 41V0H401v59q0 452 148.5 771T952 1296H139z"/><glyph glyph-name="eight" unicode="8" d="M614-20Q424-20 305 84.5T186 360q0 126 71 216t171 124q-109 33-189.5 131.5T158 1055q0 179 126.5 289T614 1454t330-110 127-289q0-125-80.5-223.5T801 700q100-34 170.5-123.5T1042 360q0-171-119-275.5T614-20zm-10 796h21q129 0 218 77.5t89 190.5q0 121-87 199t-220 78h-21q-133 0-220-78t-87-199q0-113 89-190.5T604 776zm0-663h21q121 0 200.5 72.5T905 371q0 110-80.5 186T625 633h-21q-119 0-199.5-76T324 371q0-113 79.5-185.5T604 113z"/><glyph glyph-name="nine" unicode="9" d="M584 1454q247 0 384.5-187T1106 754q0-226-72-402.5t-201.5-274T539-20q-179 0-297 94T90 338h139q26-101 108.5-163T528 113h21q180 0 300.5 176.5T983 750q-35-86-102-146t-145-86-163-26q-203 0-332.5 130T111 954q0 226 134.5 363T584 1454zm-9-829h21q146 0 243 98.5T936 971q0 151-97 250.5T596 1321h-21q-140 0-232.5-99T250 973q0-152 89-250t236-98z"/><glyph glyph-name="colon" unicode=":" d="M727 819H502v225h225V819zm0-819H502v225h225V0z"/><glyph glyph-name="semicolon" unicode=";" d="M727 799H502v225h225V799zM522-236h-82v82h62q123 0 123 123V0H492v225h225V-41q0-93-51-144t-144-51z"/><glyph glyph-name="less" unicode="&lt;" d="m174 582 870 362V815L328 528l716-288V104L174 467v115z"/><glyph glyph-name="equal" unicode="=" d="M1120 645H109v133h1011V645zm0-371H109v134h1011V274z"/><glyph glyph-name="greater" unicode="&gt;" d="M184 809v135l871-362V467L184 104v129l717 289z"/><glyph glyph-name="question" unicode="?" d="M588 420H455v260q0 92 35.5 128T618 844h41q110 0 168 67t58 166q0 97-64 160t-182 63H248v134h420q154 0 255-100.5t101-254.5q0-164-99-266T684 711h-27q-40 0-54.5-15T588 641V420zm4-420H438v174h154V0z"/><glyph glyph-name="at" unicode="@" d="M1120-256H895q-396 0-602.5 233T86 635q0 258 62 449t192.5 301T659 1495q213 0 337-131t124-328V195H987v131q-42-73-100-112.5T741 174q-161 0-249.5 123.5T403 612q0 190 89.5 311T741 1044q92 0 148-38.5T987 899v113q0 160-84.5 265T668 1382h-21q-139 0-237.5-98.5T265 1020t-46-381q0-384 167.5-583T895-143h225v-113zM762 287h10q101 0 158 91t57 234q0 139-57 229.5T772 932h-10q-108 0-166.5-91T537 614q0-144 57-235.5T762 287z"/><glyph glyph-name="A" unicode="A" d="M1163 0h-137L901 395H324L199 0H66l456 1434h189zM612 1307 367 528h491z"/><glyph glyph-name="B" unicode="B" d="M694 0H195v1434h495q183 0 284-99t101-276q0-127-63-212.5T846 727q107-21 183.5-107t76.5-225q0-185-109.5-290T694 0zM338 1300V793h328q119 0 192.5 67t73.5 187q0 253-266 253H338zm0-641V133h326q299 0 299 264 0 127-81 194.5T666 659H338z"/><glyph glyph-name="C" unicode="C" d="M662-20q-271 0-415.5 195.5T102 717q0 222 62 386.5T353.5 1361t308.5 93q205 0 326.5-127T1118 993H975q-5 142-83 235t-220 93h-21q-199 0-302-161.5T246 717q0-286 101.5-445T651 113h21q147 0 221 88.5T975 440h143q-4-100-34.5-183.5t-86-145.5T856 14.5 662-20z"/><glyph glyph-name="D" unicode="D" d="M539 0H184v1434h355q268 0 427.5-193T1126 713q0-334-159-523.5T539 0zM328 1300V133h209q223 0 334.5 149.5T983 717q0 283-113.5 433T537 1300H328z"/><glyph glyph-name="E" unicode="E" d="M1085 0H195v1434h870v-134H338V805h616V672H338V133h747V0z"/><glyph glyph-name="F" unicode="F" d="M358 0H215v1434h870v-134H358V762h666V629H358V0z"/><glyph glyph-name="G" unicode="G" d="M639-20q-253 0-395 199T102 717q0 163 33.5 295.5t100 232 174 154.5 247.5 55q215 0 330.5-131.5T1112 973H969q-12 170-90.5 259T662 1321h-13q-196 0-299.5-157T246 717q0-134 23.5-242.5t71-190.5 126-126.5T649 113h13q143 0 237 93t94 263v115H668v133h325q133 0 133-133V0H993v162Q882-20 639-20z"/><glyph glyph-name="H" unicode="H" d="M307 0H164v1434h143V784h615v650h143V0H922v651H307V0z"/><glyph glyph-name="I" unicode="I" d="M993 1434v-123H688V123h305V0H236v123h309v1188H236v123h757z"/><glyph glyph-name="J" unicode="J" d="M637 0H225v133h410q184 0 184 236v1065h144V375q0-185-84.5-280T637 0z"/><glyph glyph-name="K" unicode="K" d="M1167 0h-166L543 725 338 477V0H195v1434h143V672l618 762h174L641 844z"/><glyph glyph-name="L" unicode="L" d="M1094 0H174v1434h143V133h777V0z"/><glyph glyph-name="M" unicode="M" d="m614 537 279 897h190V0H950v1237L692 410H539l-258 827V0H147v1434h189z"/><glyph glyph-name="N" unicode="N" d="M928 238v1196h143V0H903L301 1221V0H158v1434h178z"/><glyph glyph-name="O" unicode="O" d="M614-20q-238 0-375 194.5T102 717t137 542.5T614 1454t375-194.5T1126 717 989 174.5 614-20zm-4 133h8q171 0 268 161t97 443-97 443-268 161h-8q-171 0-267.5-161T246 717t96.5-443T610 113z"/><glyph glyph-name="P" unicode="P" d="M342 0H199v1434h469q194 0 315-111.5t121-312.5q0-134-60-230.5t-158.5-143T662 590H342V0zm0 1300V723h293q155 0 240.5 72t85.5 215q0 144-83.5 217T637 1300H342z"/><glyph glyph-name="Q" unicode="Q" d="M686-16v-107q0-54 24-78t78-24h304v-133H758q-215 0-215 217v125Q337 14 219.5 206T102 717q0 348 137 542.5T614 1454t375-194.5T1126 717q0-320-117-511.5T686-16zM246 717q0-282 96.5-443T610 113h8q171 0 268 161t97 443-97 443-268 161h-8q-171 0-267.5-161T246 717z"/><glyph glyph-name="R" unicode="R" d="M858 707h14q98 0 140.5-47t42.5-148V0H911v512q0 92-92 92H338V0H195v1434h442q189 0 313.5-108.5T1075 1051q0-122-58.5-213T858 707zm-520 30h278q128 0 222 81.5t94 211.5q0 127-84 198.5T616 1300H338V737z"/><glyph glyph-name="S" unicode="S" d="M616-20q-259 0-393.5 127T88 451h143q14-338 392-338h12q155 0 240.5 75T961 379q0 100-60.5 159.5T707 627l-201 43q-179 39-263.5 128T158 1044q0 173 130.5 291.5T631 1454q225 0 356-119t139-321H983q-7 142-100.5 224.5T639 1321h-12q-143 0-234.5-78T301 1047q0-97 59-153t185-83l200-43q359-75 359-381 0-183-131.5-295T616-20z"/><glyph glyph-name="T" unicode="T" d="M686 0H543v1300H123v134h983v-134H686V0z"/><glyph glyph-name="U" unicode="U" d="M614-20q-222 0-341 131T154 477v957h143V498q0-385 313-385h8q314 0 314 385v936h143V477q0-235-119.5-366T614-20z"/><glyph glyph-name="V" unicode="V" d="m614 147 377 1287h152L709 0H520L86 1434h152z"/><glyph glyph-name="W" unicode="W" d="m903 178 90 1256h137L1008 0H829L616 887 387 0H203L100 1434h133l82-1266 215 856h177z"/><glyph glyph-name="X" unicode="X" d="M694 737 1155 0H997L616 618 227 0H74l461 733-437 701h158l358-580 365 580h154z"/><glyph glyph-name="Y" unicode="Y" d="m614 711 357 723h155L684 571V0H541v571l-439 863h158z"/><glyph glyph-name="Z" unicode="Z" d="M1055 1292 297 133h778V0H154v152l751 1148H174v134h881v-142z"/><glyph glyph-name="bracketleft" unicode="[" d="M932-297H522v2028h410v-113H655V-184h277v-113z"/><glyph glyph-name="backslash" unicode="\" d="M819 0 266 1434h144L963 0H819z"/><glyph glyph-name="bracketright" unicode="]" d="M297 1731h410V-297H297v113h276v1802H297v113z"/><glyph glyph-name="asciicircum" unicode="^" d="m694 1434 365-850H922l-310 729-309-729H170l362 850h162z"/><glyph glyph-name="underscore" unicode="_" d="M1055-113H174V0h881v-113z"/><glyph glyph-name="grave" unicode="`" d="M756 1167H655l-180 267h164z"/><glyph glyph-name="a" unicode="a" d="M1004 655V225q0-153 10-225H891q-10 56-10 164-33-75-133.5-129.5T518-20q-136 0-229.5 86.5T195 283q0 65 22 117t56.5 85 82 56.5 94 34T547 590l323 24v41q0 131-68.5 204T614 932h-10q-103 0-174.5-51T348 737H215q9 136 118.5 221.5T608 1044q97 0 173.5-31T906 928t73-123.5 25-149.5zM532 92h21q111 0 214 84t103 193v137l-297-21q-111-8-178-59.5T328 291q0-85 58-142t146-57z"/><glyph glyph-name="b" unicode="b" d="M184 1434h133V860q45 83 142 133.5t200 50.5q202 0 329.5-144.5T1116 512 988.5 124.5 659-20q-103 0-200 50.5T317 164V0H184v1434zm471-502h-10q-80 0-144-34.5t-103.5-93-60-133.5T317 512t20.5-159 60-133.5 103.5-93T645 92h10q80 0 143 34.5t102.5 93 60 133.5T981 512t-20.5 159-60 133.5-102.5 93T655 932z"/><glyph glyph-name="c" unicode="c" d="M649-20q-148 0-256 70.5t-161.5 190T178 512t53.5 271.5 161.5 190 256 70.5q167 0 276-94t124-254H915q-18 105-86.5 170.5T659 932h-20q-107 0-183-59.5T345.5 720 311 512t34.5-208T456 151.5 639 92h20q99 0 167 66.5T915 328h134q-28-161-132.5-254.5T649-20z"/><glyph glyph-name="d" unicode="d" d="M901 1434h133V0H901v164Q856 81 759 30.5T559-20q-202 0-329.5 144.5T102 512t127.5 387.5T559 1044q103 0 200-50.5T901 860v574zM573 932h-10q-105 0-180.5-60t-110-153T238 512t34.5-207 110-153T563 92h10q80 0 144 34.5t103.5 93 60 133.5T901 512t-20.5 159-60 133.5-103.5 93T573 932z"/><glyph glyph-name="e" unicode="e" d="M1049 584v-82H311q1-105 28-185.5T411 188t101-72 121-24h12q96 0 168 51t100 150h134q-33-151-142.5-232T635-20q-97 0-179.5 34.5T311 115t-97.5 168.5T178 514q0 130 38 233t102.5 167 145.5 97 171 33q185 0 299.5-130.5T1049 584zM643 932h-20q-52 0-99-16t-91.5-51-76-99T315 614h600q-5 139-79 228.5T643 932z"/><glyph glyph-name="f" unicode="f" d="M623 0H489v911H143v113h346v225q0 98 47 141.5t148 43.5h381v-113H705q-46 0-64-18t-18-64v-215h391V911H623V0z"/><glyph glyph-name="g" unicode="g" d="M586-451q-214 0-330.5 84T123-143h133q20-95 103.5-145T575-338h21q68 0 125.5 20T826-256.5 899.5-145 926 18v166Q879 97 792.5 48.5T586 0Q389 0 266 136T143 512q0 242 124 387t319 145q120 0 206.5-48.5T926 860v164h133V8q0-204-127-331.5T586-451zm4 564h20q141 0 228.5 105.5T926 512q0 190-88 305T610 932h-20q-139 0-226.5-115T276 512q0-188 86.5-293.5T590 113z"/><glyph glyph-name="h" unicode="h" d="M696 1044q166 0 257-101t91-267V0H911v635q0 297-245 297h-21q-126 0-221.5-104.5T328 553V0H195v1434h133V850q54 93 147.5 143.5T696 1044z"/><glyph glyph-name="i" unicode="i" d="M768 1208H584v205h184v-205zM1110 0H233v113h377v798H264v113h479V113h367V0z"/><glyph glyph-name="j" unicode="j" d="M827 1208H643v205h184v-205zM608-338H199v113h389q46 0 64 18t18 64V911H324v113h479V-154q0-98-47-141t-148-43z"/><glyph glyph-name="k" unicode="k" d="M1096 0H930L555 524 379 356V0H246v1434h133V524l514 500h182L649 616z"/><glyph glyph-name="l" unicode="l" d="M680 113h367V0H170v113h377v1208H221v113h459V113z"/><glyph glyph-name="m" unicode="m" d="M877 1044q101 0 161-67t60-205V0H965v768q0 80-27.5 122T858 932h-4q-70 0-119-70.5T686 680V0H553v768q0 80-27.5 122T446 932h-4q-70 0-119-70.5T274 680V0H141v1024h133V918q64 126 191 126 72 0 124.5-34.5T666 905q78 139 211 139z"/><glyph glyph-name="n" unicode="n" d="M328 0H195v1024h133V852q45 87 140 139.5t218 52.5q159 0 258.5-97.5T1044 670V0H911v629q0 303-245 303h-13q-106 0-181.5-60T362 719t-34-207V0z"/><glyph glyph-name="o" unicode="o" d="M614-20q-205 0-342 148.5T135 512t137 383.5T614 1044t342.5-148.5T1094 512 956.5 128.5 614-20zM604 92h21q142 0 237.5 114.5T958 512t-95.5 305.5T625 932h-21q-142 0-238-114.5T270 512t96-305.5T604 92z"/><glyph glyph-name="p" unicode="p" d="M328-410H195v1434h133V860q45 83 142 133.5t200 50.5q202 0 329-144.5T1126 512 999 124.5 670-20q-103 0-200 50.5T328 164v-574zM655 92h11q105 0 180.5 60t110 153T991 512t-34.5 207-110 153T666 932h-11q-106 0-182-60T362.5 719 328 512t34.5-207T473 152t182-60z"/><glyph glyph-name="q" unicode="q" d="M1044-410H911v574Q866 81 769 30.5T569-20q-202 0-329 144.5T113 512t127 387.5T569 1044q103 0 200-50.5T911 860v164h133V-410zM573 92h11q106 0 182 60t110.5 153T911 512t-34.5 207T766 872t-182 60h-11q-105 0-180.5-60t-110-153T248 512t34.5-207 110-153T573 92z"/><glyph glyph-name="r" unicode="r" d="M492 0H358v1024h123V825q22 91 99 150t229 59h215V911H805q-82 0-143-29t-97.5-82.5-54.5-124T492 518V0z"/><glyph glyph-name="s" unicode="s" d="M623-20q-191 0-295.5 90T215 307h133q10-103 82.5-159T612 92h21q107 0 169 49.5T864 276q0 62-40 99.5T684 434l-149 31q-62 13-110 33.5T337.5 551 277 631.5 256 743q0 140 106.5 220.5T623 1044q95 0 169-27t119-74 69-104 28-122H874q-9 89-75 152t-166 63h-21q-103 0-163-54t-60-133q0-56 44.5-94T575 592l160-35q59-13 103-31.5t81-49.5 57-78.5T997 287q1-144-101-225.5T623-20z"/><glyph glyph-name="t" unicode="t" d="M1055 0H684Q583 0 536 43t-47 141v727H143v113h346v332h134v-332h385V911H623V195q0-46 18-64t64-18h350V0z"/><glyph glyph-name="u" unicode="u" d="M891 471v553h133V0H891v193Q851 91 762.5 35.5T549-20Q382-20 288.5 81.5T195 348v676h133V389q0-297 245-297h21q119 0 208 104t89 275z"/><glyph glyph-name="v" unicode="v" d="m614 121 336 903h140L696 0H530L139 1024h142z"/><glyph glyph-name="w" unicode="w" d="m854 162 127 862h131L940 0H786L614 647 440 0H289L117 1024h135l125-860 160 610h157z"/><glyph glyph-name="x" unicode="x" d="M690 524 1085 0H930L612 420 293 0H143l396 520-381 504h155l303-401 306 401h149z"/><glyph glyph-name="y" unicode="y" d="M967 1024h139L688 35v-195q0-93-47-135.5T494-338H182v113h291q46 0 64 18t18 64V29l-430 995h145l348-829z"/><glyph glyph-name="z" unicode="z" d="M989 903 350 113h670V0H211v125l635 786H221v113h768V903z"/><glyph glyph-name="braceleft" unicode="{" d="M932-297H799q-126 0-181 76.5T563 20v420q0 84-20.5 114T461 584h-51v266h51q61 0 81.5 29.5T563 993v420q0 164 55 241t181 77h133v-113H819q-74 0-98.5-35T696 1454V911q0-174-164-174v-41q164 0 164-174V-20q0-94 24.5-129t98.5-35h113v-113z"/><glyph glyph-name="bar" unicode="|" d="M680-174H547v1782h133V-174z"/><glyph glyph-name="braceright" unicode="}" d="M297 1731h133q126 0 181-77t55-241V993q0-84 20.5-113.5T768 850h51V584h-51q-61 0-81.5-30T666 440V20q0-164-55-240.5T430-297H297v113h113q74 0 98 35t24 129v542q0 174 164 174v41q-164 0-164 174v543q0 94-24 129t-98 35H297v113z"/><glyph glyph-name="asciitilde" unicode="~" d="M780 711q-11 0-23.5 1.5t-22 4-22 7-20 7-19.5 9-16.5 8.5-16.5 8.5-13 7.5l-78 45q-66 41-96 41-84 0-84-129H266v20q0 106 52.5 160.5T457 956q58 0 145-53l82-49q3-2 12.5-7.5t12.5-7 11-6 11.5-6 10.5-4 11.5-3.5 10.5-2 12-1q84 0 84 129h103v-20q0-101-50-158t-133-57z"/><glyph glyph-name="uni00A0"/><glyph glyph-name="exclamdown" unicode="¡" d="M537 850v174h153V850H537zm6-830 41 584h61l41-584v-430H543V20z"/><glyph glyph-name="cent" unicode="¢" d="M911 328h140q-28-161-133-254.5T649-20q-25 0-35 2l-39-228H451L494 2Q343 52 260.5 189T178 512q0 152 53.5 271.5t161.5 190 256 70.5h19l39 226h124l-40-246q109-34 176.5-119.5T1047 696H907q-10 66-46.5 116.5T768 889L637 113h22q98 0 165.5 60.5T911 328zM317 512q0-132 50.5-233.5T516 137l129 774h-6q-80 0-142.5-32t-101-88T337 664t-20-152z"/><glyph glyph-name="sterling" unicode="£" d="M373 133h729V0H129v133h41q154 0 166 184l20 283-227-51v123l238 53 20 281q15 212 115.5 320T801 1434h198v-134H795q-134 0-196-77.5T526 995l-18-237 287 63V698l-297-67-23-295q-6-80-28-126t-74-77z"/><glyph glyph-name="currency" unicode="¤" d="M1073 625q0-149-86-269l154-145-86-86-154 145q-123-96-285-96-159 0-288 98L172 125l-86 86 158 149q-84 117-84 265 0 138 76 254L86 1030l86 86 150-143q124 102 294 102 166 0 291-98l148 139 86-86-146-147q78-115 78-258zM616 307h11q131 0 219 92.5T934 625q0 135-87.5 226T627 942h-21q-132 0-219.5-91T299 625q0-132 92.5-225T616 307z"/><glyph glyph-name="yen" unicode="¥" d="M971 1434h155L774 745l273 62V684l-345-78-18-35V436l301 68V381l-301-68V0H541v281l-297-66v123l297 65v166l-359-80v123l303 68-383 754h158l354-723z"/><glyph glyph-name="brokenbar" unicode="¦" d="M680 881H547v727h133V881zm0-1055H547v747h133v-747z"/><glyph glyph-name="section" unicode="§" d="M647-123H260V10h406q87 0 129.5 39T838 158q0 51-44 87.5T653 319L369 426q-95 35-143 97t-48 136q0 78 50.5 149.5T371 936q-61 52-91 104t-30 117q0 134 85.5 205.5T575 1434h351v-134H578q-89 0-139-35.5T389 1157q0-57 41.5-93T569 997l187-61q72-23 121-46.5t90.5-57T1029 754t20-103q0-164-193-278 62-49 91.5-97.5T977 158q0-56-18.5-104.5t-56-89-103-64T647-123zm-96 627 180-68q104 45 141 93.5T909 631q0 31-14 57t-34 43.5-55.5 35-63.5 28-72 24.5l-178 58q-86-35-130.5-90.5T317 676q0-18 5.5-34.5t13-28 24-24 27.5-20 36.5-18 38-15.5 44.5-16 45-16z"/><glyph glyph-name="dieresis" unicode="¨" d="M512 1208H358v164h154v-164zm358 0H717v164h153v-164z"/><glyph glyph-name="copyright" unicode="©" d="M618 102q-166 0-307.5 82.5T86.5 409 4 717t82.5 307.5 224 224T618 1331t308-82.5 224.5-224T1233 717q0-124-49-238t-131.5-196.5T856 151t-238-49zm0 88q142 0 262.5 71T1071 453.5t70 263.5-70 263.5-190.5 192T618 1243q-106 0-203-42t-166.5-112.5-111-167.5T96 717q0-142 69.5-263.5t190-192.5T618 190zm19 166q-144 0-240 94.5T301 717q0 167 92.5 269T637 1087q119-2 197.5-65T926 846H813q-12 62-59.5 104.5T639 993h-10q-91 0-152-77t-61-199q0-121 60.5-193.5T629 451h10q69 0 119.5 40.5T821 598h115q-20-112-103.5-177T637 356z"/><glyph glyph-name="ordfeminine" unicode="ª" d="M547 840q-76 0-125 47t-49 127q0 84 48.5 130t129.5 56l184 21v18q0 51-34 82t-83 31h-6q-46 0-82-28.5t-36-76.5H381q4 93 72.5 145t164.5 52q95 0 162.5-56.5T848 1235V977q0-84 6-127H752q-11 60-11 102-21-55-73-83.5T547 840zm31 92h6q64 0 107 37.5t44 105.5v66l-151-17q-42-5-70.5-31.5T485 1022q0-43 26.5-66.5T578 932z"/><glyph glyph-name="guillemotleft" unicode="«" d="M492 1024h151L348 586l299-443H492L195 584zm528 0L725 586l299-443H868L571 584l297 440h152z"/><glyph glyph-name="logicalnot" unicode="¬" d="M1061 266H922v297H150v133h911V266z"/><glyph glyph-name="uni00AD" unicode="­" d="M870 563H358v113h512V563z"/><glyph glyph-name="registered" unicode="®" d="M618 102q-166 0-307.5 82.5T86.5 409 4 717t82.5 307.5 224 224T618 1331t308-82.5 224.5-224T1233 717q0-124-49-238t-131.5-196.5T856 151t-238-49zm0 88q142 0 262.5 71T1071 453.5t70 263.5-70 263.5-190.5 192T618 1243q-106 0-203-42t-166.5-112.5-111-167.5T96 717q0-142 69.5-263.5t190-192.5T618 190zM481 383H369v688h303q103 0 161-52t58-136q0-73-39-119.5T752 709q71-2 101-34t30-114V383H770v180q0 88-98 88H481V383zm0 596V739h144q72 0 112.5 30t40.5 89q0 67-37.5 94T625 979H481z"/><glyph glyph-name="macron" unicode="¯" d="M897 1208H334v113h563v-113z"/><glyph glyph-name="degree" unicode="°" d="M614 696q-163 0-270.5 108.5T236 1075t107.5 270.5T614 1454q162 0 270.5-108.5T993 1075 884.5 804.5 614 696zm0 119q104 0 178 76.5t74 183.5-74 183.5-178 76.5-178-76.5-74-183.5 74-183.5T614 815z"/><glyph glyph-name="plusminus" unicode="±" d="M680 1024V727h440V594H680V307H549v287H109v133h440v297h131zM1120 0H109v133h1011V0z"/><glyph glyph-name="uni00B2" unicode="²" d="M887 850H342v139l258 225q96 84 125 123.5t29 96.5q0 59-38 96t-95 37h-11q-51 0-95-39t-44-103H346q0 110 80 177t192 67q114 0 187.5-63t73.5-172q0-44-12-81t-40.5-72-48-54-61.5-56L465 952h422V850z"/><glyph glyph-name="uni00B3" unicode="³" d="M610 840q-114 0-194 62t-80 171h125q3-60 42-95.5T604 942h10q67 0 111.5 38t44.5 103q0 60-39 93.5t-98 33.5h-90v97h94q58 0 92.5 32.5T764 1432q0 66-38.5 100.5T621 1567h-11q-61 0-97.5-33.5T473 1444H348q0 107 79 166t194 59q113 0 190.5-59.5T889 1444q0-63-30.5-112.5T776 1257q57-23 88-72t31-114q0-105-85.5-168T610 840z"/><glyph glyph-name="acute" unicode="´" d="M602 1167H502l116 267h164z"/><glyph glyph-name="uni00B5" unicode="µ" d="M901 471v553h133V0H901v193Q861 91 772.5 35.5T559-20q-131 0-221 65v-455H205v1434h133V389q0-297 246-297h20q119 0 208 104t89 275z"/><glyph glyph-name="paragraph" unicode="¶" d="M631-410H498V666h-41q-173 0-284.5 112.5T61 1051t109 271.5T444 1434h709v-113h-123V-410H897v1731H631V-410z"/><glyph glyph-name="periodcentered" unicode="·" d="M727 614H502v226h225V614z"/><glyph glyph-name="cedilla" unicode="¸" d="M594-461H467v113h129q44 0 72 23t28 67-28 66-72 22h-57V31h92V-92q68 2 118-45t50-121q0-88-54.5-145.5T594-461z"/><glyph glyph-name="uni00B9" unicode="¹" d="M731 850H614v655l-239-192v121l278 225h78V850z"/><glyph glyph-name="ordmasculine" unicode="º" d="M614 840q-123 0-195.5 81.5T346 1141t72.5 220.5T614 1444t196-82.5 73-220.5-73-219.5T614 840zm2 92q72 0 111 57t39 152q0 94-40.5 152.5T614 1352t-111-58.5-40-152.5 41-151.5T616 932z"/><glyph glyph-name="guillemotright" unicode="»" d="M205 1024h155l297-440-297-441H209l295 439zm377 0h155l297-440-297-441H586l295 439z"/><glyph glyph-name="onequarter" unicode="¼" d="M373 827H258v453L82 1133v133l203 168h88V827zM250 0H117l860 1434h133zm811 0H946v133H659v100l279 373h123V233h86V133h-86V0zM946 469 772 233h174v236z"/><glyph glyph-name="onehalf" unicode="½" d="M373 827H258v453L82 1133v133l203 168h88V827zM250 0H117l860 1434h133zm919 0H735v127l205 178q5 4 21.5 19t24.5 22 21.5 21.5 20 24.5 11.5 23 5 25q-1 32-26 50t-64 18h-6q-38 0-63.5-22.5T856 422H737q4 88 65.5 140T956 614q87 0 147-48t60-128q0-32-10.5-60t-37-57-41.5-43-54-47L868 106h301V0z"/><glyph glyph-name="threequarters" unicode="¾" d="M295 819q-90 0-153.5 50T78 1004h119q-1-37 26-60.5t68-23.5h8q44 0 74 21.5t30 59.5q0 37-25.5 58.5T313 1081h-59v107h61q36 0 60 21t24 55-27.5 54.5T303 1339h-8q-38 0-64-20.5t-26-54.5H88q0 84 61.5 131t153.5 47q90 0 151.5-44.5T516 1272q0-47-26.5-83.5T418 1135q104-53 104-146 0-82-66-126t-161-44zM250 0H117l860 1434h133zm811 0H946v133H659v100l279 373h123V233h86V133h-86V0zM946 469 772 233h174v236z"/><glyph glyph-name="questiondown" unicode="¿" d="M637 1024h154V850H637v174zm4-420h133V344q0-92-36-128t-128-36h-41q-110 0-167.5-67T344-53q0-97 64-160t182-63h391v-134H561q-154 0-255 100.5T205-55q0 164 99 266t241 102h26q40 0 55 15t15 55v221z"/><glyph glyph-name="Agrave" unicode="À" d="m549 1823 108-256H535l-170 256h184zM1163 0h-137L901 395H324L199 0H66l456 1434h189zM612 1307 367 528h491z"/><glyph glyph-name="Aacute" unicode="Á" d="M682 1823h184l-170-256H573zM1163 0h-137L901 395H324L199 0H66l456 1434h189zM612 1307 367 528h491z"/><glyph glyph-name="Acircumflex" unicode="Â" d="m807 1567-189 147-188-147H291l235 256h185l235-256H807zM1163 0h-137L901 395H324L199 0H66l456 1434h189zM612 1307 367 528h491z"/><glyph glyph-name="Atilde" unicode="Ã" d="M469 1710q-84 0-84-133H283v47q0 85 51 142t127 57q37 0 67-13.5t80-48.5l15-10q10-7 32.5-24t32.5-24 26.5-17 30-13.5 27.5-3.5q82 0 82 133h102v-47q0-85-51.5-142T778 1556q-40 0-75.5 17.5T618 1628l-16 12q-5 4-27 20.5t-34 24.5-32.5 16.5-39.5 8.5zM1163 0h-137L901 395H324L199 0H66l456 1434h189zM612 1307 367 528h491z"/><glyph glyph-name="Adieresis" unicode="Ä" d="M346 1761h164v-164H346v164zm381 0h164v-164H727v164zM1163 0h-137L901 395H324L199 0H66l456 1434h189zM612 1307 367 528h491z"/><glyph glyph-name="Aring" unicode="Å" d="M618 1554q-64 0-112.5 47T457 1716t48.5 115 112.5 47 113-47 49-115-49-115-113-47zm3 232q-28 0-49-21t-21-49 21-48.5 49-20.5q27 0 46 20.5t19 48.5-19 49-46 21zM1163 0h-137L901 395H324L199 0H66l456 1434h189zM612 1307 367 528h491z"/><glyph glyph-name="AE" unicode="Æ" d="M721 672V133h436V0H578v395H293L164 0H27l475 1434h635v-134H721V805h340V672H721zm-143 598L336 528h242v742z"/><glyph glyph-name="Ccedilla" unicode="Ç" d="M651 113h21q147 0 221 88.5T975 440h143q-8-195-112.5-319T711-18v-74q68 2 118-45t50-121q0-88-54.5-145.5T674-461H547v113h129q44 0 72 23t28 67-28 66-72 22h-58v152Q368-3 235 191T102 717q0 222 62 386.5T353.5 1361t308.5 93q205 0 326.5-127T1118 993H975q-5 142-83 235t-220 93h-21q-199 0-302-161.5T246 717q0-286 101.5-445T651 113z"/><glyph glyph-name="Egrave" unicode="È" d="m578 1823 108-256H563l-170 256h185zM1085 0H195v1434h870v-134H338V805h616V672H338V133h747V0z"/><glyph glyph-name="Eacute" unicode="É" d="M725 1567H602l109 256h184zM1085 0H195v1434h870v-134H338V805h616V672H338V133h747V0z"/><glyph glyph-name="Ecircumflex" unicode="Ê" d="m836 1567-189 147-188-147H319l236 256h184l236-256H836zM338 672V133h747V0H195v1434h870v-134H338V805h616V672H338z"/><glyph glyph-name="Edieresis" unicode="Ë" d="M539 1597H375v164h164v-164zm381 0H756v164h164v-164zM1085 0H195v1434h870v-134H338V805h616V672H338V133h747V0z"/><glyph glyph-name="Igrave" unicode="Ì" d="m557 1823 109-256H543l-170 256h184zm436-389v-123H688V123h305V0H236v123h309v1188H236v123h757z"/><glyph glyph-name="Iacute" unicode="Í" d="M690 1823h184l-169-256H582zm303-389v-123H688V123h305V0H236v123h309v1188H236v123h757z"/><glyph glyph-name="Icircumflex" unicode="Î" d="m815 1567-188 147-189-147H299l236 256h184l235-256H815zm178-133v-123H688V123h305V0H236v123h309v1188H236v123h757z"/><glyph glyph-name="Idieresis" unicode="Ï" d="M354 1761h164v-164H354v164zm381 0h164v-164H735v164zm258-327v-123H688V123h305V0H236v123h309v1188H236v123h757z"/><glyph glyph-name="Eth" unicode="Ð" d="M209 1434h354q268 0 428-193t160-528q0-334-159.5-523.5T563 0H209v657H18v123h191v654zM352 133h209q223 0 335 149.5T1008 717q0 283-114 433t-333 150H352V780h322V657H352V133z"/><glyph glyph-name="Ntilde" unicode="Ñ" d="M475 1710q-84 0-84-133H289v47q0 85 51 142t127 57q37 0 67-13.5t80-48.5l15-10q10-7 32.5-24t32.5-24 26.5-17 30-13.5 27.5-3.5q82 0 82 133h103v-47q0-84-52-141.5T784 1556q-40 0-74.5 17.5T625 1628l-17 12q-5 4-27 20.5t-34 24.5-32.5 16.5-39.5 8.5zM928 238v1196h143V0H903L301 1221V0H158v1434h178z"/><glyph glyph-name="Ograve" unicode="Ò" d="m559 1823 109-256H545l-170 256h184zM614-20q-238 0-375 194.5T102 717t137 542.5T614 1454t375-194.5T1126 717 989 174.5 614-20zm-4 133h8q171 0 268 161t97 443-97 443-268 161h-8q-171 0-267.5-161T246 717t96.5-443T610 113z"/><glyph glyph-name="Oacute" unicode="Ó" d="M707 1567H584l108 256h185zM614-20q-238 0-375 194.5T102 717t137 542.5T614 1454t375-194.5T1126 717 989 174.5 614-20zm-4 133h8q171 0 268 161t97 443-97 443-268 161h-8q-171 0-267.5-161T246 717t96.5-443T610 113z"/><glyph glyph-name="Ocircumflex" unicode="Ô" d="m817 1567-188 147-189-147H301l236 256h184l235-256H817zm-203-113q238 0 375-194.5T1126 717 989 174.5 614-20 239 174.5 102 717t137 542.5T614 1454zm-4-1341h8q171 0 268 161t97 443-97 443-268 161h-8q-171 0-267.5-161T246 717t96.5-443T610 113z"/><glyph glyph-name="Otilde" unicode="Õ" d="M788 1556q-40 0-74.5 17.5T629 1628l-17 12q-5 4-27 20.5t-34 24.5-32.5 16.5-39.5 8.5q-84 0-84-133H293v47q0 85 51 142t127 57q37 0 67-13.5t80-48.5l15-10q10-7 32.5-24t32.5-24 26.5-17 30-13.5 27.5-3.5q82 0 82 133h103v-47q0-84-52-141.5T788 1556zM614-20q-238 0-375 194.5T102 717t137 542.5T614 1454t375-194.5T1126 717 989 174.5 614-20zm-4 133h8q171 0 268 161t97 443-97 443-268 161h-8q-171 0-267.5-161T246 717t96.5-443T610 113z"/><glyph glyph-name="Odieresis" unicode="Ö" d="M520 1597H356v164h164v-164zm381 0H737v164h164v-164zM614-20q-238 0-375 194.5T102 717t137 542.5T614 1454t375-194.5T1126 717 989 174.5 614-20zm-4 133h8q171 0 268 161t97 443-97 443-268 161h-8q-171 0-267.5-161T246 717t96.5-443T610 113z"/><glyph glyph-name="multiply" unicode="×" d="M614 432 283 100l-97 97 332 331-332 330 97 96 331-329 330 329 96-96-329-330 329-331-96-97z"/><glyph glyph-name="Oslash" unicode="Ø" d="m1047 1491 100-66-131-202q112-194 112-506 0-348-137-542.5T616-20q-195 0-323 131L184-57 84 8l133 205Q104 401 104 717q0 348 137 542.5T616 1454q194 0 322-131zM248 717q0-219 59-367l553 852q-93 119-239 119h-9q-171 0-267.5-161T248 717zm737 0q0 220-59 368L373 233q91-120 239-120h9q171 0 267.5 161T985 717z"/><glyph glyph-name="Ugrave" unicode="Ù" d="m514 1823 109-256H500l-170 256h184zM614-20q-222 0-341 131T154 477v957h143V498q0-385 313-385h8q314 0 314 385v936h143V477q0-235-119.5-366T614-20z"/><glyph glyph-name="Uacute" unicode="Ú" d="M662 1567H539l108 256h184zM614-20q-222 0-341 131T154 477v957h143V498q0-385 313-385h8q314 0 314 385v936h143V477q0-235-119.5-366T614-20z"/><glyph glyph-name="Ucircumflex" unicode="Û" d="m772 1567-188 147-189-147H256l236 256h184l235-256H772zM932 498v936h143V477q0-235-119.5-366T614-20 273 111 154 477v957h143V498q0-385 313-385h8q314 0 314 385z"/><glyph glyph-name="Udieresis" unicode="Ü" d="M475 1597H311v164h164v-164zm381 0H692v164h164v-164zM614-20q-222 0-341 131T154 477v957h143V498q0-385 313-385h8q314 0 314 385v936h143V477q0-235-119.5-366T614-20z"/><glyph glyph-name="Yacute" unicode="Ý" d="M678 1823h184l-170-256H569zM614 711l357 723h155L684 571V0H541v571l-439 863h158z"/><glyph glyph-name="Thorn" unicode="Þ" d="M342 0H199v1434h143v-308h332q195 0 311.5-106.5T1102 719q0-195-117-303.5T674 307H342V0zm0 993V440h291q325 0 325 279 0 143-83 208.5T633 993H342z"/><glyph glyph-name="germandbls" unicode="ß" d="M358-379H225v1409q0 214 104 319t298 105q170 0 278.5-103.5T1014 1087q0-127-63-211.5T807 766q44-7 88-32.5t83-68 63-107.5 24-142q0-206-114-311T631 0H512v123h131q151 0 220 79.5T932 418q0 131-84 206.5T635 700H512v113h102q66 0 119 24.5t84 64 47.5 84.5 16.5 91q0 111-67.5 187.5T637 1341h-21q-52 0-96.5-17.5t-82-54-58.5-102-21-153.5V-379z"/><glyph glyph-name="agrave" unicode="à" d="m582 1434 116-267H598l-180 267h164zm422-779V225q0-153 10-225H891q-10 56-10 164-33-75-133.5-129.5T518-20q-136 0-229.5 86.5T195 283q0 65 22 117t56.5 85 82 56.5 94 34T547 590l323 24v41q0 131-68.5 204T614 932h-10q-103 0-174.5-51T348 737H215q9 136 118.5 221.5T608 1044q97 0 173.5-31T906 928t73-123.5 25-149.5zM532 92h21q111 0 214 84t103 193v137l-297-21q-111-8-178-59.5T328 291q0-85 58-142t146-57z"/><glyph glyph-name="aacute" unicode="á" d="M668 1434h163l-180-267H551zm336-779V225q0-153 10-225H891q-10 56-10 164-33-75-133.5-129.5T518-20q-136 0-229.5 86.5T195 283q0 65 22 117t56.5 85 82 56.5 94 34T547 590l323 24v41q0 131-68.5 204T614 932h-10q-103 0-174.5-51T348 737H215q9 136 118.5 221.5T608 1044q97 0 173.5-31T906 928t73-123.5 25-149.5zM532 92h21q111 0 214 84t103 193v137l-297-21q-111-8-178-59.5T328 291q0-85 58-142t146-57z"/><glyph glyph-name="acircumflex" unicode="â" d="m811 1167-205 154-205-154H279l260 267h135l260-267H811zm193-512V225q0-153 10-225H891q-10 56-10 164-33-75-133.5-129.5T518-20q-136 0-229.5 86.5T195 283q0 65 22 117t56.5 85 82 56.5 94 34T547 590l323 24v41q0 131-68.5 204T614 932h-10q-103 0-174.5-51T348 737H215q9 136 118.5 221.5T608 1044q97 0 173.5-31T906 928t73-123.5 25-149.5zM532 92h21q111 0 214 84t103 193v137l-297-21q-111-8-178-59.5T328 291q0-85 58-142t146-57z"/><glyph glyph-name="atilde" unicode="ã" d="M457 1300q-84 0-84-133H270v47q0 85 51.5 142t127.5 57q38 0 68-13t79-48l14-11q6-4 32-23.5t33.5-24.5 26-16 31.5-14 27-3q82 0 82 133h102v-47q0-85-51.5-142T766 1147q-40 0-75.5 17.5T606 1219l-16 12q-4 3-27 20.5t-34 24.5-32 15.5-40 8.5zm547-645V225q0-153 10-225H891q-10 56-10 164-33-75-133.5-129.5T518-20q-136 0-229.5 86.5T195 283q0 65 22 117t56.5 85 82 56.5 94 34T547 590l323 24v41q0 131-68.5 204T614 932h-10q-103 0-174.5-51T348 737H215q9 136 118.5 221.5T608 1044q97 0 173.5-31T906 928t73-123.5 25-149.5zM532 92h21q111 0 214 84t103 193v137l-297-21q-111-8-178-59.5T328 291q0-85 58-142t146-57z"/><glyph glyph-name="adieresis" unicode="ä" d="M350 1372h154v-164H350v164zm359 0h153v-164H709v164zm295-717V225q0-153 10-225H891q-10 56-10 164-33-75-133.5-129.5T518-20q-136 0-229.5 86.5T195 283q0 65 22 117t56.5 85 82 56.5 94 34T547 590l323 24v41q0 131-68.5 204T614 932h-10q-103 0-174.5-51T348 737H215q9 136 118.5 221.5T608 1044q97 0 173.5-31T906 928t73-123.5 25-149.5zM532 92h21q111 0 214 84t103 193v137l-297-21q-111-8-178-59.5T328 291q0-85 58-142t146-57z"/><glyph glyph-name="aring" unicode="å" d="M606 1157q-69 0-120.5 49.5T434 1329t51.5 122.5T606 1501t120.5-49.5T778 1329t-51.5-122.5T606 1157zm2 262q-37 0-63.5-26.5T518 1329t26.5-63.5T608 1239t62.5 26.5T696 1329t-25.5 63.5T608 1419zm396-764V225q0-153 10-225H891q-10 56-10 164-33-75-133.5-129.5T518-20q-136 0-229.5 86.5T195 283q0 65 22 117t56.5 85 82 56.5 94 34T547 590l323 24v41q0 131-68.5 204T614 932h-10q-103 0-174.5-51T348 737H215q9 136 118.5 221.5T608 1044q97 0 173.5-31T906 928t73-123.5 25-149.5zM532 92h21q111 0 214 84t103 193v137l-297-21q-111-8-178-59.5T328 291q0-85 58-142t146-57z"/><glyph glyph-name="ae" unicode="æ" d="M1217 584v-82H692q0-210 61-310T905 92h4q74 0 120 56t52 145h133q-6-65-27-120t-57-99-93-69-130-25q-189 0-278 174-50-82-120-128T328-20Q186-20 99 69.5T12 293q0 84 32 148t85 100.5T243 596t126 18h188v80q0 108-46 173t-142 65h-7q-91 0-140.5-52.5T166 737H33q9 140 97.5 223.5T375 1044q97 0 165.5-43.5T639 891q35 69 103.5 111t156.5 42q106 0 179-61.5T1184 820t33-236zm-523 30h389q0 150-45.5 234T905 932h-4q-194 0-207-318zM557 350v152H381q-98 0-167-56.5T145 297q0-95 51-150t142-55h4q101 0 158 69t57 189z"/><glyph glyph-name="ccedilla" unicode="ç" d="M639 92h20q99 0 167 66.5T915 328h134q-27-156-126-249T670-20v-72q68 2 118-45t50-121q0-88-54.5-145.5T633-461H506v113h129q44 0 72 23t28 67-28 66-72 22h-57v154Q389 10 283.5 155T178 512q0 152 53.5 271.5t161.5 190 256 70.5q167 0 276-94t124-254H915q-18 105-86.5 170.5T659 932h-20q-107 0-183-59.5T345.5 720 311 512t34.5-208T456 151.5 639 92z"/><glyph glyph-name="egrave" unicode="è" d="m612 1434 117-267H629l-180 267h163zm437-850v-82H311q1-105 28-185.5T411 188t101-72 121-24h12q96 0 168 51t100 150h134q-33-151-142.5-232T635-20q-97 0-179.5 34.5T311 115t-97.5 168.5T178 514q0 130 38 233t102.5 167 145.5 97 171 33q185 0 299.5-130.5T1049 584zM643 932h-20q-52 0-99-16t-91.5-51-76-99T315 614h600q-5 139-79 228.5T643 932z"/><glyph glyph-name="eacute" unicode="é" d="M698 1434h164l-180-267H582zm351-850v-82H311q1-105 28-185.5T411 188t101-72 121-24h12q96 0 168 51t100 150h134q-33-151-142.5-232T635-20q-97 0-179.5 34.5T311 115t-97.5 168.5T178 514q0 130 38 233t102.5 167 145.5 97 171 33q185 0 299.5-130.5T1049 584zM643 932h-20q-52 0-99-16t-91.5-51-76-99T315 614h600q-5 139-79 228.5T643 932z"/><glyph glyph-name="ecircumflex" unicode="ê" d="m842 1167-205 154-205-154H309l260 267h136l260-267H842zm207-583v-82H311q1-105 28-185.5T411 188t101-72 121-24h12q96 0 168 51t100 150h134q-33-151-142.5-232T635-20q-97 0-179.5 34.5T311 115t-97.5 168.5T178 514q0 130 38 233t102.5 167 145.5 97 171 33q185 0 299.5-130.5T1049 584zM643 932h-20q-52 0-99-16t-91.5-51-76-99T315 614h600q-5 139-79 228.5T643 932z"/><glyph glyph-name="edieresis" unicode="ë" d="M381 1372h154v-164H381v164zm358 0h154v-164H739v164zm310-788v-82H311q1-105 28-185.5T411 188t101-72 121-24h12q96 0 168 51t100 150h134q-33-151-142.5-232T635-20q-97 0-179.5 34.5T311 115t-97.5 168.5T178 514q0 130 38 233t102.5 167 145.5 97 171 33q185 0 299.5-130.5T1049 584zM643 932h-20q-52 0-99-16t-91.5-51-76-99T315 614h600q-5 139-79 228.5T643 932z"/><glyph glyph-name="igrave" unicode="ì" d="m651 1434 117-267H668l-181 267h164zm92-1321h367V0H233v113h377v798H264v113h479V113z"/><glyph glyph-name="iacute" unicode="í" d="M737 1434h164l-180-267H621zm6-1321h367V0H233v113h377v798H264v113h479V113z"/><glyph glyph-name="icircumflex" unicode="î" d="m881 1167-205 154-205-154H348l260 267h135l261-267H881zM743 113h367V0H233v113h377v798H264v113h479V113z"/><glyph glyph-name="idieresis" unicode="ï" d="M420 1372h153v-164H420v164zm358 0h154v-164H778v164zM743 113h367V0H233v113h377v798H264v113h479V113z"/><glyph glyph-name="eth" unicode="ð" d="m1010 1333-144-96q209-232 209-678 0-265-127-422T604-20q-210 0-335.5 145T143 494q0 134 55 242t161 172.5T604 973q95 0 182.5-36T930 829q-36 213-166 340l-166-112-57 82 139 96q-129 76-297 76v123q243 0 405-125l160 110zM604 92h10q154 0 241 113.5T942 492q0 159-87 263.5T614 860h-20q-153 0-235.5-103T276 494q0-173 87-287.5T604 92z"/><glyph glyph-name="ntilde" unicode="ñ" d="M774 1147q-40 0-75.5 17.5T614 1219l-16 12q-4 3-27 20.5t-34 24.5-32 15.5-40 8.5q-84 0-84-133H279v47q0 85 51 142t127 57q38 0 68-13t79-48l14-11q6-4 32-23.5t33.5-24.5 26-16 31.5-14 27-3q82 0 82 133h102v-47q0-85-51.5-142T774 1147zM328 0H195v1024h133V852q45 87 140 139.5t218 52.5q159 0 258.5-97.5T1044 670V0H911v629q0 303-245 303h-13q-106 0-181.5-60T362 719t-34-207V0z"/><glyph glyph-name="ograve" unicode="ò" d="M707 1167H606l-180 267h164zM614-20q-205 0-342 148.5T135 512t137 383.5T614 1044t342.5-148.5T1094 512 956.5 128.5 614-20zM604 92h21q142 0 237.5 114.5T958 512t-95.5 305.5T625 932h-21q-142 0-238-114.5T270 512t96-305.5T604 92z"/><glyph glyph-name="oacute" unicode="ó" d="M659 1167H559l117 267h164zM614-20q-205 0-342 148.5T135 512t137 383.5T614 1044t342.5-148.5T1094 512 956.5 128.5 614-20zM604 92h21q142 0 237.5 114.5T958 512t-95.5 305.5T625 932h-21q-142 0-238-114.5T270 512t96-305.5T604 92z"/><glyph glyph-name="ocircumflex" unicode="ô" d="m819 1167-205 154-204-154H287l260 267h135l260-267H819zm-205-123q205 0 342.5-148.5T1094 512 956.5 128.5 614-20 272 128.5 135 512t137 383.5T614 1044zM604 92h21q142 0 237.5 114.5T958 512t-95.5 305.5T625 932h-21q-142 0-238-114.5T270 512t96-305.5T604 92z"/><glyph glyph-name="otilde" unicode="õ" d="M774 1147q-40 0-75.5 17.5T614 1219l-16 12q-4 3-27 20.5t-34 24.5-32 15.5-40 8.5q-84 0-84-133H279v47q0 85 51 142t127 57q38 0 68-13t79-48l14-11q6-4 32-23.5t33.5-24.5 26-16 31.5-14 27-3q82 0 82 133h102v-47q0-85-51.5-142T774 1147zM614-20q-205 0-342 148.5T135 512t137 383.5T614 1044t342.5-148.5T1094 512 956.5 128.5 614-20zM604 92h21q142 0 237.5 114.5T958 512t-95.5 305.5T625 932h-21q-142 0-238-114.5T270 512t96-305.5T604 92z"/><glyph glyph-name="odieresis" unicode="ö" d="M512 1208H358v164h154v-164zm358 0H717v164h153v-164zM614-20q-205 0-342 148.5T135 512t137 383.5T614 1044t342.5-148.5T1094 512 956.5 128.5 614-20zM604 92h21q142 0 237.5 114.5T958 512t-95.5 305.5T625 932h-21q-142 0-238-114.5T270 512t96-305.5T604 92z"/><glyph glyph-name="divide" unicode="÷" d="M690 778H537v174h153V778zm430-317H109v133h1011V461zM690 102H537v174h153V102z"/><glyph glyph-name="oslash" unicode="ø" d="M1079 1028 969 883q125-147 125-371 0-235-137.5-383.5T614-20q-150 0-272 86L242-68 154 6l104 137Q135 292 135 512q0 235 137 383.5T614 1044q150 0 269-83l102 133zM270 512q0-155 68-266l475 622q-86 64-188 64h-21q-142 0-238-114.5T270 512zM604 92h21q142 0 237.5 114.5T958 512q0 156-69 268L414 158q84-66 190-66z"/><glyph glyph-name="ugrave" unicode="ù" d="m578 1434 116-267H594l-180 267h164zm313-963v553h133V0H891v193Q851 91 762.5 35.5T549-20Q382-20 288.5 81.5T195 348v676h133V389q0-297 245-297h21q119 0 208 104t89 275z"/><glyph glyph-name="uacute" unicode="ú" d="M664 1434h163l-180-267H547zm227-963v553h133V0H891v193Q851 91 762.5 35.5T549-20Q382-20 288.5 81.5T195 348v676h133V389q0-297 245-297h21q119 0 208 104t89 275z"/><glyph glyph-name="ucircumflex" unicode="û" d="m807 1167-205 154-205-154H274l261 267h135l260-267H807zm84-696v553h133V0H891v193Q851 91 762.5 35.5T549-20Q382-20 288.5 81.5T195 348v676h133V389q0-297 245-297h21q119 0 208 104t89 275z"/><glyph glyph-name="udieresis" unicode="ü" d="M346 1372h154v-164H346v164zm359 0h153v-164H705v164zm186-901v553h133V0H891v193Q851 91 762.5 35.5T549-20Q382-20 288.5 81.5T195 348v676h133V389q0-297 245-297h21q119 0 208 104t89 275z"/><glyph glyph-name="yacute" unicode="ý" d="M676 1434h164l-181-267H559zm291-410h139L688 35v-195q0-93-47-135.5T494-338H182v113h291q46 0 64 18t18 64V29l-430 995h145l348-829z"/><glyph glyph-name="thorn" unicode="þ" d="M670 1044q202 0 329-144.5T1126 512 999 124.5 670-20q-103 0-200 50.5T328 164v-574H195v1844h133V860q45 83 142 133.5t200 50.5zM655 92h11q105 0 180.5 60t110 153T991 512t-34.5 207-110 153T666 932h-11q-106 0-182-60T362.5 719 328 512t34.5-207T473 152t182-60z"/><glyph glyph-name="ydieresis" unicode="ÿ" d="M358 1372h154v-164H358v164zm359 0h153v-164H717v164zm250-348h139L688 35v-195q0-93-47-135.5T494-338H182v113h291q46 0 64 18t18 64V29l-430 995h145l348-829z"/><glyph glyph-name="Amacron" unicode="Ā" d="M338 1710h563v-113H338v113zM1163 0h-137L901 395H324L199 0H66l456 1434h189zM612 1307 367 528h491z"/><glyph glyph-name="amacron" unicode="ā" d="M344 1321h563v-113H344v113zm660-666V225q0-153 10-225H891q-10 56-10 164-33-75-133.5-129.5T518-20q-136 0-229.5 86.5T195 283q0 65 22 117t56.5 85 82 56.5 94 34T547 590l323 24v41q0 131-68.5 204T614 932h-10q-103 0-174.5-51T348 737H215q9 136 118.5 221.5T608 1044q97 0 173.5-31T906 928t73-123.5 25-149.5zM532 92h21q111 0 214 84t103 193v137l-297-21q-111-8-178-59.5T328 291q0-85 58-142t146-57z"/><glyph glyph-name="Abreve" unicode="Ă" d="M618 1546q-134 0-215 72.5T322 1823h112q14-164 184-164 171 0 185 164h112q0-132-81.5-204.5T618 1546zM1163 0h-137L901 395H324L199 0H66l456 1434h189zM612 1307 367 528h491z"/><glyph glyph-name="abreve" unicode="ă" d="M606 1147q-127 0-207 75.5T319 1434h103q7-90 56-136.5t128-46.5 128.5 46.5T791 1434h102q0-136-80-211.5T606 1147zm398-492V225q0-153 10-225H891q-10 56-10 164-33-75-133.5-129.5T518-20q-136 0-229.5 86.5T195 283q0 65 22 117t56.5 85 82 56.5 94 34T547 590l323 24v41q0 131-68.5 204T614 932h-10q-103 0-174.5-51T348 737H215q9 136 118.5 221.5T608 1044q97 0 173.5-31T906 928t73-123.5 25-149.5zM532 92h21q111 0 214 84t103 193v137l-297-21q-111-8-178-59.5T328 291q0-85 58-142t146-57z"/><glyph glyph-name="Aogonek" unicode="Ą" d="M981-199q0-88 104-88h56v-112h-84q-93 0-149 44t-56 130q0 136 172 233L901 395H324L199 0H66l456 1434h189L1163 0Q981-95 981-199zM612 1307 367 528h491z"/><glyph glyph-name="aogonek" unicode="ą" d="M831-199q0-88 105-88h55v-112h-84q-93 0-149 44t-56 130q0 143 187 239-8 60-8 150-33-75-133.5-129.5T518-20q-136 0-229.5 86.5T195 283q0 65 22 117t56.5 85 82 56.5 94 34T547 590l323 24v41q0 131-68.5 204T614 932h-10q-103 0-174.5-51T348 737H215q9 136 118.5 221.5T608 1044q97 0 173.5-31T906 928t73-123.5 25-149.5V225q0-153 10-225-183-96-183-199zM532 92h21q111 0 214 84t103 193v137l-297-21q-111-8-178-59.5T328 291q0-85 58-142t146-57z"/><glyph glyph-name="Cacute" unicode="Ć" d="M758 1567H635l108 256h185zM662-20q-271 0-415.5 195.5T102 717q0 222 62 386.5T353.5 1361t308.5 93q205 0 326.5-127T1118 993H975q-5 142-83 235t-220 93h-21q-199 0-302-161.5T246 717q0-286 101.5-445T651 113h21q147 0 221 88.5T975 440h143q-4-100-34.5-183.5t-86-145.5T856 14.5 662-20z"/><glyph glyph-name="cacute" unicode="ć" d="M684 1167H584l116 267h164zM649-20q-148 0-256 70.5t-161.5 190T178 512t53.5 271.5 161.5 190 256 70.5q167 0 276-94t124-254H915q-18 105-86.5 170.5T659 932h-20q-107 0-183-59.5T345.5 720 311 512t34.5-208T456 151.5 639 92h20q99 0 167 66.5T915 328h134q-28-161-132.5-254.5T649-20z"/><glyph glyph-name="Ccircumflex" unicode="Ĉ" d="m868 1567-188 147-188-147H352l236 256h184l236-256H868zM651 113h21q147 0 221 88.5T975 440h143q-4-100-34.5-183.5t-86-145.5T856 14.5 662-20q-271 0-415.5 195.5T102 717q0 222 62 386.5T353.5 1361t308.5 93q205 0 326.5-127T1118 993H975q-5 142-83 235t-220 93h-21q-199 0-302-161.5T246 717q0-286 101.5-445T651 113z"/><glyph glyph-name="ccircumflex" unicode="ĉ" d="m844 1167-205 154-205-154H311l260 267h136l260-267H844zM639 92h20q99 0 167 66.5T915 328h134q-28-161-132.5-254.5T649-20q-148 0-256 70.5t-161.5 190T178 512t53.5 271.5 161.5 190 256 70.5q167 0 276-94t124-254H915q-18 105-86.5 170.5T659 932h-20q-107 0-183-59.5T345.5 720 311 512t34.5-208T456 151.5 639 92z"/><glyph glyph-name="Cdotaccent" unicode="Ċ" d="M756 1597H602v175h154v-175zM662-20q-271 0-415.5 195.5T102 717q0 222 62 386.5T353.5 1361t308.5 93q205 0 326.5-127T1118 993H975q-5 142-83 235t-220 93h-21q-199 0-302-161.5T246 717q0-286 101.5-445T651 113h21q147 0 221 88.5T975 440h143q-4-100-34.5-183.5t-86-145.5T856 14.5 662-20z"/><glyph glyph-name="cdotaccent" unicode="ċ" d="M715 1208H561v174h154v-174zM649-20q-148 0-256 70.5t-161.5 190T178 512t53.5 271.5 161.5 190 256 70.5q167 0 276-94t124-254H915q-18 105-86.5 170.5T659 932h-20q-107 0-183-59.5T345.5 720 311 512t34.5-208T456 151.5 639 92h20q99 0 167 66.5T915 328h134q-28-161-132.5-254.5T649-20z"/><glyph glyph-name="Ccaron" unicode="Č" d="m1008 1823-236-256H588l-236 256h140l188-148 188 148h140zM651 113h21q147 0 221 88.5T975 440h143q-4-100-34.5-183.5t-86-145.5T856 14.5 662-20q-271 0-415.5 195.5T102 717q0 222 62 386.5T353.5 1361t308.5 93q205 0 326.5-127T1118 993H975q-5 142-83 235t-220 93h-21q-199 0-302-161.5T246 717q0-286 101.5-445T651 113z"/><glyph glyph-name="ccaron" unicode="č" d="m967 1434-260-267H571l-260 267h123l205-154 205 154h123zM639 92h20q99 0 167 66.5T915 328h134q-28-161-132.5-254.5T649-20q-148 0-256 70.5t-161.5 190T178 512t53.5 271.5 161.5 190 256 70.5q167 0 276-94t124-254H915q-18 105-86.5 170.5T659 932h-20q-107 0-183-59.5T345.5 720 311 512t34.5-208T456 151.5 639 92z"/><glyph glyph-name="Dcaron" unicode="Ď" d="m918 1823-236-256H498l-236 256h139l189-148 188 148h140zm-734-389h355q268 0 427.5-193T1126 713q0-334-159-523.5T539 0H184v1434zM328 133h209q223 0 334.5 149.5T983 717q0 283-113.5 433T537 1300H328V133z"/><glyph glyph-name="dcaron" unicode="ď" d="M494-20q-202 0-329.5 144.5T37 512t127.5 387.5T494 1044q103 0 200-50.5T836 860v574h133V0H836v164Q791 81 694 30.5T494-20zm612 1126h-21v72h11q92 0 92 82v20h-62v154h134v-174q0-70-43-112t-111-42zM498 92h10q80 0 144 34.5t103.5 93 60 133.5T836 512t-20.5 159-60 133.5-103.5 93T508 932h-10q-80 0-143-34.5t-102.5-93-60-133.5T172 512t20.5-159 60-133.5 102.5-93T498 92z"/><glyph glyph-name="Dcroat" unicode="Đ" d="M209 1434h354q268 0 428-193t160-528q0-334-159.5-523.5T563 0H209v657H18v123h191v654zM352 133h209q223 0 335 149.5T1008 717q0 283-114 433t-333 150H352V780h322V657H352V133z"/><glyph glyph-name="dcroat" unicode="đ" d="M1034 1280h144v-102h-144V0H901v164Q856 81 759 30.5T559-20q-202 0-329.5 144.5T102 512t127.5 387.5T559 1044q103 0 200-50.5T901 860v318H573v102h328v154h133v-154zM563 92h10q80 0 144 34.5t103.5 93 60 133.5T901 512t-20.5 159-60 133.5-103.5 93T573 932h-10q-105 0-180.5-60t-110-153T238 512t34.5-207 110-153T563 92z"/><glyph glyph-name="Emacron" unicode="Ē" d="M930 1597H367v113h563v-113zM1085 0H195v1434h870v-134H338V805h616V672H338V133h747V0z"/><glyph glyph-name="emacron" unicode="ē" d="M375 1321h563v-113H375v113zm674-737v-82H311q1-105 28-185.5T411 188t101-72 121-24h12q96 0 168 51t100 150h134q-33-151-142.5-232T635-20q-97 0-179.5 34.5T311 115t-97.5 168.5T178 514q0 130 38 233t102.5 167 145.5 97 171 33q185 0 299.5-130.5T1049 584zM643 932h-20q-52 0-99-16t-91.5-51-76-99T315 614h600q-5 139-79 228.5T643 932z"/><glyph glyph-name="Ebreve" unicode="Ĕ" d="M647 1546q-134 0-215.5 72.5T350 1823h113q14-164 184-164t184 164h113q0-132-81.5-204.5T647 1546zM1085 0H195v1434h870v-134H338V805h616V672H338V133h747V0z"/><glyph glyph-name="ebreve" unicode="ĕ" d="M637 1147q-127 0-207 75.5T350 1434h103q7-90 56-136.5t128-46.5 128 46.5 56 136.5h103q0-136-80-211.5T637 1147zm412-563v-82H311q1-105 28-185.5T411 188t101-72 121-24h12q96 0 168 51t100 150h134q-33-151-142.5-232T635-20q-97 0-179.5 34.5T311 115t-97.5 168.5T178 514q0 130 38 233t102.5 167 145.5 97 171 33q185 0 299.5-130.5T1049 584zM643 932h-20q-52 0-99-16t-91.5-51-76-99T315 614h600q-5 139-79 228.5T643 932z"/><glyph glyph-name="Edotaccent" unicode="Ė" d="M723 1597H569v175h154v-175zM1085 0H195v1434h870v-134H338V805h616V672H338V133h747V0z"/><glyph glyph-name="edotaccent" unicode="ė" d="M559 1382h154v-174H559v174zm490-798v-82H311q1-105 28-185.5T411 188t101-72 121-24h12q96 0 168 51t100 150h134q-33-151-142.5-232T635-20q-97 0-179.5 34.5T311 115t-97.5 168.5T178 514q0 130 38 233t102.5 167 145.5 97 171 33q185 0 299.5-130.5T1049 584zM643 932h-20q-52 0-99-16t-91.5-51-76-99T315 614h600q-5 139-79 228.5T643 932z"/><glyph glyph-name="Eogonek" unicode="Ę" d="M1085 133V0Q903-95 903-199q0-88 105-88h55v-112h-84q-93 0-149 44t-56 130Q774-93 934 0H195v1434h870v-134H338V805h616V672H338V133h747z"/><glyph glyph-name="eogonek" unicode="ę" d="M1049 584v-82H311q1-105 28-185.5T411 188t101-72 121-24h12q96 0 168 51t100 150h134q-24-113-93.5-187T782 0Q600-95 600-199q0-88 105-88h55v-112h-84q-93 0-149 44t-56 130q0 115 129 207Q413-7 295.5 132T178 514q0 130 38 233t102.5 167 145.5 97 171 33q185 0 299.5-130.5T1049 584zM643 932h-20q-52 0-99-16t-91.5-51-76-99T315 614h600q-5 139-79 228.5T643 932z"/><glyph glyph-name="Ecaron" unicode="Ě" d="m975 1823-236-256H555l-236 256h140l188-148 189 148h139zM338 672V133h747V0H195v1434h870v-134H338V805h616V672H338z"/><glyph glyph-name="ecaron" unicode="ě" d="m965 1434-260-267H569l-260 267h123l205-154 205 154h123zm84-850v-82H311q1-105 28-185.5T411 188t101-72 121-24h12q96 0 168 51t100 150h134q-33-151-142.5-232T635-20q-97 0-179.5 34.5T311 115t-97.5 168.5T178 514q0 130 38 233t102.5 167 145.5 97 171 33q185 0 299.5-130.5T1049 584zM643 932h-20q-52 0-99-16t-91.5-51-76-99T315 614h600q-5 139-79 228.5T643 932z"/><glyph glyph-name="Gcircumflex" unicode="Ĝ" d="m852 1567-188 147-189-147H336l235 256h185l235-256H852zM668 717h325q133 0 133-133V0H993v162Q882-20 639-20q-253 0-395 199T102 717q0 163 33.5 295.5t100 232 174 154.5 247.5 55q215 0 330.5-131.5T1112 973H969q-12 170-90.5 259T662 1321h-13q-196 0-299.5-157T246 717q0-134 23.5-242.5t71-190.5 126-126.5T649 113h13q143 0 237 93t94 263v115H668v133z"/><glyph glyph-name="gcircumflex" unicode="ĝ" d="m805 1167-205 154-205-154H272l260 267h136l260-267H805zm121-307v164h133V8q0-204-127-331.5T586-451q-214 0-330.5 84T123-143h133q20-95 103.5-145T575-338h21q68 0 125.5 20T826-256.5 899.5-145 926 18v166Q879 97 792.5 48.5T586 0Q389 0 266 136T143 512q0 242 124 387t319 145q120 0 206.5-48.5T926 860zM590 113h20q141 0 228.5 105.5T926 512q0 190-88 305T610 932h-20q-139 0-226.5-115T276 512q0-188 86.5-293.5T590 113z"/><glyph glyph-name="Gbreve" unicode="Ğ" d="M664 1546q-134 0-215.5 72.5T367 1823h112q14-164 185-164 170 0 184 164h113q0-132-81.5-204.5T664 1546zM639-20q-253 0-395 199T102 717q0 163 33.5 295.5t100 232 174 154.5 247.5 55q215 0 330.5-131.5T1112 973H969q-12 170-90.5 259T662 1321h-13q-196 0-299.5-157T246 717q0-134 23.5-242.5t71-190.5 126-126.5T649 113h13q143 0 237 93t94 263v115H668v133h325q133 0 133-133V0H993v162Q882-20 639-20z"/><glyph glyph-name="gbreve" unicode="ğ" d="M600 1147q-127 0-207 75.5T313 1434h103q7-90 56-136.5t128-46.5 128 46.5 56 136.5h103q0-136-80-211.5T600 1147zM586-451q-214 0-330.5 84T123-143h133q20-95 103.5-145T575-338h21q68 0 125.5 20T826-256.5 899.5-145 926 18v166Q879 97 792.5 48.5T586 0Q389 0 266 136T143 512q0 242 124 387t319 145q120 0 206.5-48.5T926 860v164h133V8q0-204-127-331.5T586-451zm4 564h20q141 0 228.5 105.5T926 512q0 190-88 305T610 932h-20q-139 0-226.5-115T276 512q0-188 86.5-293.5T590 113z"/><glyph glyph-name="Gdotaccent" unicode="Ġ" d="M739 1597H586v175h153v-175zM639-20q-253 0-395 199T102 717q0 163 33.5 295.5t100 232 174 154.5 247.5 55q215 0 330.5-131.5T1112 973H969q-12 170-90.5 259T662 1321h-13q-196 0-299.5-157T246 717q0-134 23.5-242.5t71-190.5 126-126.5T649 113h13q143 0 237 93t94 263v115H668v133h325q133 0 133-133V0H993v162Q882-20 639-20z"/><glyph glyph-name="gdotaccent" unicode="ġ" d="M676 1208H522v174h154v-174zM586-451q-214 0-330.5 84T123-143h133q20-95 103.5-145T575-338h21q68 0 125.5 20T826-256.5 899.5-145 926 18v166Q879 97 792.5 48.5T586 0Q389 0 266 136T143 512q0 242 124 387t319 145q120 0 206.5-48.5T926 860v164h133V8q0-204-127-331.5T586-451zm4 564h20q141 0 228.5 105.5T926 512q0 190-88 305T610 932h-20q-139 0-226.5-115T276 512q0-188 86.5-293.5T590 113z"/><glyph glyph-name="uni0122" unicode="Ģ" d="M639-20q-253 0-395 199T102 717q0 163 33.5 295.5t100 232 174 154.5 247.5 55q215 0 330.5-131.5T1112 973H969q-12 170-90.5 259T662 1321h-13q-196 0-299.5-157T246 717q0-134 23.5-242.5t71-190.5 126-126.5T649 113h13q143 0 237 93t94 263v115H668v133h325q133 0 133-133V0H993v162Q882-20 639-20zm-70-492h-20v72h10q92 0 92 82v20h-61v154h133v-174q0-70-43-112t-111-42z"/><glyph glyph-name="uni0123" unicode="ģ" d="M666 1208H532v174q0 70 43 112t111 42h21v-72h-11q-92 0-92-82v-20h62v-154zM586-451q-214 0-330.5 84T123-143h133q20-95 103.5-145T575-338h21q68 0 125.5 20T826-256.5 899.5-145 926 18v166Q879 97 792.5 48.5T586 0Q389 0 266 136T143 512q0 242 124 387t319 145q120 0 206.5-48.5T926 860v164h133V8q0-204-127-331.5T586-451zm4 564h20q141 0 228.5 105.5T926 512q0 190-88 305T610 932h-20q-139 0-226.5-115T276 512q0-188 86.5-293.5T590 113z"/><glyph glyph-name="Hcircumflex" unicode="Ĥ" d="m803 1567-189 147-188-147H287l235 256h185l235-256H803zm119-783v650h143V0H922v651H307V0H164v1434h143V784h615z"/><glyph glyph-name="hcircumflex" unicode="ĥ" d="m840 1567-189 147-188-147H324l235 256h184l236-256H840zm-144-523q166 0 257-101t91-267V0H911v635q0 297-245 297h-21q-126 0-221.5-104.5T328 553V0H195v1434h133V850q54 93 147.5 143.5T696 1044z"/><glyph glyph-name="Hbar" unicode="Ħ" d="M1065 1188h111v-123h-111V0H922v651H307V0H164v1065H53v123h111v246h143v-246h615v246h143v-246zM307 784h615v281H307V784z"/><glyph glyph-name="hbar" unicode="ħ" d="M696 1044q166 0 257-101t91-267V0H911v635q0 297-245 297h-21q-126 0-221.5-104.5T328 553V0H195v1178H20v102h175v154h133v-154h276v-102H328V850q54 93 147.5 143.5T696 1044z"/><glyph glyph-name="Itilde" unicode="Ĩ" d="M477 1710q-84 0-84-133H291v47q0 85 51 142t127 57q37 0 67-13.5t80-48.5l15-10q10-7 32.5-24t32.5-24 26.5-17 30-13.5 27.5-3.5q82 0 82 133h103v-47q0-84-52-141.5T786 1556q-40 0-74.5 17.5T627 1628l-17 12q-5 4-27 20.5t-34 24.5-32.5 16.5-39.5 8.5zm516-276v-123H688V123h305V0H236v123h309v1188H236v123h757z"/><glyph glyph-name="itilde" unicode="ĩ" d="M526 1300q-84 0-84-133H340v47q0 85 51 142t127 57q38 0 68.5-13.5T666 1352l14-11 32-24 33-24 26-16 30.5-13.5 27.5-3.5q82 0 82 133h103v-47q0-85-51.5-142T836 1147q-40 0-75.5 17.5T676 1219l-17 12q-4 3-27 20.5t-34 24.5-32 15.5-40 8.5zM743 113h367V0H233v113h377v798H264v113h479V113z"/><glyph glyph-name="Imacron" unicode="Ī" d="M346 1710h563v-113H346v113zm647-276v-123H688V123h305V0H236v123h309v1188H236v123h757z"/><glyph glyph-name="imacron" unicode="ī" d="M414 1321h563v-113H414v113zM743 113h367V0H233v113h377v798H264v113h479V113z"/><glyph glyph-name="Ibreve" unicode="Ĭ" d="M627 1546q-134 0-215.5 72.5T330 1823h112q14-164 185-164 170 0 184 164h113q0-132-81.5-204.5T627 1546zm366-112v-123H688V123h305V0H236v123h309v1188H236v123h757z"/><glyph glyph-name="ibreve" unicode="ĭ" d="M676 1147q-127 0-207 75.5T389 1434h103q7-90 56-136.5t128-46.5 128 46.5 56 136.5h103q0-136-80-211.5T676 1147zm67-1034h367V0H233v113h377v798H264v113h479V113z"/><glyph glyph-name="Iogonek" unicode="Į" d="M993 1434v-123H688V123h305V0H688Q506-95 506-199q0-88 104-88h56v-112h-84q-93 0-149 44t-56 130Q377-93 537 0H236v123h309v1188H236v123h757z"/><glyph glyph-name="iogonek" unicode="į" d="M584 1413h184v-205H584v205zm159-389V113h367V0H743Q561-95 561-199q0-88 105-88h55v-112h-84q-93 0-149 44t-56 130Q432-93 592 0H233v113h377v798H264v113h479z"/><glyph glyph-name="Idotaccent" unicode="İ" d="M549 1772h153v-175H549v175zm444-338v-123H688V123h305V0H236v123h309v1188H236v123h757z"/><glyph glyph-name="dotlessi" unicode="ı" d="M743 113h367V0H233v113h377v798H264v113h479V113z"/><glyph glyph-name="IJ" unicode="Ĳ" d="M911 369v1065h144V375q0-185-84.5-280T729 0H225v133h502q184 0 184 236zM225 1434h144V379H225v1055z"/><glyph glyph-name="ij" unicode="ĳ" d="M418 1208H264v174h154v-174zm547 0H811v174h154v-174zM760-338H276v113h463q46 0 64 18t18 64v1167h133V-154q0-98-46.5-141T760-338zM410 0H276v1024h134V0z"/><glyph glyph-name="Jcircumflex" unicode="Ĵ" d="M797 1823h184l236-256h-140l-188 147-189-147H561zm22-1454v1065h144V375q0-185-84.5-280T637 0H225v133h410q184 0 184 236z"/><glyph glyph-name="jcircumflex" unicode="ĵ" d="M668 1434h135l260-267H940l-205 154-205-154H408zm-344-410h479V-154q0-98-47-141t-148-43H199v113h389q46 0 64 18t18 64V911H324v113z"/><glyph glyph-name="uni0136" unicode="Ķ" d="M1130 1434 641 844 1167 0h-166L543 725 338 477V0H195v1434h143V672l618 762h174zM702-338h-61v154h133v-174q0-70-42.5-112T621-512h-21v72h10q92 0 92 82v20z"/><glyph glyph-name="uni0137" unicode="ķ" d="M1075 1024 649 616 1096 0H930L555 524 379 356V0H246v1434h133V524l514 500h182zM621-338h-62v154h133v-174q0-70-42.5-112T539-512h-21v72h10q93 0 93 82v20z"/><glyph glyph-name="Lacute" unicode="Ĺ" d="M324 1567H201l108 256h185zM1094 0H174v1434h143V133h777V0z"/><glyph glyph-name="lacute" unicode="ĺ" d="M682 1823h184l-170-256H573zm-2-1710h367V0H170v113h377v1208H221v113h459V113z"/><glyph glyph-name="uni013B" unicode="Ļ" d="M1094 0H174v1434h143V133h777V0zM584-512h-21v72h10q93 0 93 82v20h-62v154h133v-174q0-70-42.5-112T584-512z"/><glyph glyph-name="uni013C" unicode="ļ" d="M680 113h367V0H170v113h377v1208H221v113h459V113zm-76-451h-61v154h133v-174q0-70-43-112t-111-42h-20v72h10q92 0 92 82v20z"/><glyph glyph-name="Lcaron" unicode="Ľ" d="M1094 0H174v1434h143V133h777V0zM651 1106h-20v72h10q92 0 92 82v20h-61v154h133v-174q0-70-43-112t-111-42z"/><glyph glyph-name="lcaron" unicode="ľ" d="M680 113h367V0H170v113h377v1208H221v113h459V113zm356 1321v-174q0-70-42.5-112T883 1106h-21v72h10q93 0 93 82v20h-62v154h133z"/><glyph glyph-name="Ldot" unicode="Ŀ" d="M1094 0H174v1434h143V133h777V0zM948 655H723v226h225V655z"/><glyph glyph-name="ldot" unicode="ŀ" d="M680 1434V113h367V0H170v113h377v1208H221v113h459zm426-779v226h225V655h-225z"/><glyph glyph-name="Lslash" unicode="Ł" d="M354 653V133h776V0H211v571L16 461v145l195 111v717h143V797l398 225V879z"/><glyph glyph-name="lslash" unicode="ł" d="M737 793V113h367V0H227v113h377v602l-174-99v136l174 98v471H279v113h458V926l174 98V891z"/><glyph glyph-name="Nacute" unicode="Ń" d="M688 1823h184l-170-256H580zM928 238v1196h143V0H903L301 1221V0H158v1434h178z"/><glyph glyph-name="nacute" unicode="ń" d="M659 1167H559l117 267h164zM328 0H195v1024h133V852q45 87 140 139.5t218 52.5q159 0 258.5-97.5T1044 670V0H911v629q0 303-245 303h-13q-106 0-181.5-60T362 719t-34-207V0z"/><glyph glyph-name="uni0145" unicode="Ņ" d="M928 238v1196h143V0H903L301 1221V0H158v1434h178zM621-338h-62v154h133v-174q0-70-42.5-112T539-512h-21v72h10q93 0 93 82v20z"/><glyph glyph-name="uni0146" unicode="ņ" d="M328 0H195v1024h133V852q45 87 140 139.5t218 52.5q159 0 258.5-97.5T1044 670V0H911v629q0 303-245 303h-13q-106 0-181.5-60T362 719t-34-207V0zm198-512h-20v72h10q92 0 92 82v20h-61v154h133v-174q0-70-43-112t-111-42z"/><glyph glyph-name="Ncaron" unicode="Ň" d="m952 1823-235-256H532l-235 256h139l189-148 188 148h139zM928 238v1196h143V0H903L301 1221V0H158v1434h178z"/><glyph glyph-name="ncaron" unicode="ň" d="m942 1434-260-267H547l-260 267h123l204-154 205 154h123zm-256-390q159 0 258.5-97.5T1044 670V0H911v629q0 303-245 303h-13q-106 0-181.5-60T362 719t-34-207V0H195v1024h133V852q45 87 140 139.5t218 52.5z"/><glyph glyph-name="Eng" unicode="Ŋ" d="M928 279v1155h143V-143q0-215-215-215H621v133h215q54 0 73 19t19 73V0L301 1178V0H158v1434h153z"/><glyph glyph-name="eng" unicode="ŋ" d="M686 1044q159 0 258.5-97.5T1044 670v-824q0-99-46-141.5T850-338H645v113h184q47 0 64.5 18t17.5 64v772q0 303-245 303h-13q-106 0-181.5-60T362 719t-34-207V0H195v1024h133V852q45 87 140 139.5t218 52.5z"/><glyph glyph-name="Omacron" unicode="Ō" d="M911 1597H348v113h563v-113zM614-20q-238 0-375 194.5T102 717t137 542.5T614 1454t375-194.5T1126 717 989 174.5 614-20zm-4 133h8q171 0 268 161t97 443-97 443-268 161h-8q-171 0-267.5-161T246 717t96.5-443T610 113z"/><glyph glyph-name="omacron" unicode="ō" d="M915 1208H352v113h563v-113zM614-20q-205 0-342 148.5T135 512t137 383.5T614 1044t342.5-148.5T1094 512 956.5 128.5 614-20zM604 92h21q142 0 237.5 114.5T958 512t-95.5 305.5T625 932h-21q-142 0-238-114.5T270 512t96-305.5T604 92z"/><glyph glyph-name="Obreve" unicode="Ŏ" d="M629 1546q-134 0-215.5 72.5T332 1823h112q14-164 185-164 170 0 184 164h113q0-132-81.5-204.5T629 1546zM614-20q-238 0-375 194.5T102 717t137 542.5T614 1454t375-194.5T1126 717 989 174.5 614-20zm-4 133h8q171 0 268 161t97 443-97 443-268 161h-8q-171 0-267.5-161T246 717t96.5-443T610 113z"/><glyph glyph-name="obreve" unicode="ŏ" d="M614 1147q-127 0-206.5 75.5T328 1434h102q7-90 56-136.5t128-46.5 128.5 46.5T799 1434h102q0-136-80-211.5T614 1147zm0-1167q-205 0-342 148.5T135 512t137 383.5T614 1044t342.5-148.5T1094 512 956.5 128.5 614-20zM604 92h21q142 0 237.5 114.5T958 512t-95.5 305.5T625 932h-21q-142 0-238-114.5T270 512t96-305.5T604 92z"/><glyph glyph-name="Ohungarumlaut" unicode="Ő" d="M541 1567H418l108 256h185zm336 0H754l108 256h185zM614-20q-238 0-375 194.5T102 717t137 542.5T614 1454t375-194.5T1126 717 989 174.5 614-20zm-4 133h8q171 0 268 161t97 443-97 443-268 161h-8q-171 0-267.5-161T246 717t96.5-443T610 113z"/><glyph glyph-name="ohungarumlaut" unicode="ő" d="M512 1167H412l116 267h164zm324 0H735l117 267h164zM614-20q-205 0-342 148.5T135 512t137 383.5T614 1044t342.5-148.5T1094 512 956.5 128.5 614-20zM604 92h21q142 0 237.5 114.5T958 512t-95.5 305.5T625 932h-21q-142 0-238-114.5T270 512t96-305.5T604 92z"/><glyph glyph-name="OE" unicode="Œ" d="M788 672V133h338V0H614Q380 0 241 187T102 717t139 530 373 187h492v-134H788V805h293V672H788zM604 133h41v1167h-41q-166 0-262-152.5T246 717t96-431 262-153z"/><glyph glyph-name="oe" unicode="œ" d="M369-20q-171 0-264 144.5T12 512t93 387.5T369 1044q100 0 167-52t101-134q35 85 107 135.5t171 50.5q78 0 137-34.5t94.5-97.5 53-145 17.5-183v-82H709q0-212 56-311t146-99h4q74 0 117 55.5t49 145.5h133q-6-66-26-120.5T1133 74t-91-69-129-25q-108 0-172 48.5T637 158Q595 75 527 27.5T369-20zm-2 112h4q101 0 152.5 110T575 512q0 199-52 309.5T371 932h-4q-108 0-164-110t-56-310 56-310T367 92zm344 522h372q0 147-41.5 232.5T915 932h-4q-91 0-142.5-86.5T711 614z"/><glyph glyph-name="Racute" unicode="Ŕ" d="M670 1823h184l-170-256H561zM858 707h14q98 0 140.5-47t42.5-148V0H911v512q0 92-92 92H338V0H195v1434h442q189 0 313.5-108.5T1075 1051q0-122-58.5-213T858 707zm-520 30h278q128 0 222 81.5t94 211.5q0 127-84 198.5T616 1300H338V737z"/><glyph glyph-name="racute" unicode="ŕ" d="M735 1167H635l117 267h163zM492 0H358v1024h123V825q22 91 99 150t229 59h215V911H805q-82 0-143-29t-97.5-82.5-54.5-124T492 518V0z"/><glyph glyph-name="uni0156" unicode="Ŗ" d="M858 707h14q98 0 140.5-47t42.5-148V0H911v512q0 92-92 92H338V0H195v1434h442q189 0 313.5-108.5T1075 1051q0-122-58.5-213T858 707zm-520 30h278q128 0 222 81.5t94 211.5q0 127-84 198.5T616 1300H338V737zM621-338h-62v154h133v-174q0-70-42.5-112T539-512h-21v72h10q93 0 93 82v20z"/><glyph glyph-name="uni0157" unicode="ŗ" d="M492 0H358v1024h123V825q22 91 99 150t229 59h215V911H805q-82 0-143-29t-97.5-82.5-54.5-124T492 518V0zM340-512h-21v72h11q92 0 92 82v20h-62v154h134v-174q0-70-43-112t-111-42z"/><glyph glyph-name="Rcaron" unicode="Ř" d="m934 1823-236-256H514l-235 256h139l188-148 189 148h139zM858 707h14q98 0 140.5-47t42.5-148V0H911v512q0 92-92 92H338V0H195v1434h442q189 0 313.5-108.5T1075 1051q0-122-58.5-213T858 707zm-520 30h278q128 0 222 81.5t94 211.5q0 127-84 198.5T616 1300H338V737z"/><glyph glyph-name="rcaron" unicode="ř" d="m1018 1434-260-267H623l-261 267h123l205-154 205 154h123zm-209-400h215V911H805q-82 0-143-29t-97.5-82.5-54.5-124T492 518V0H358v1024h123V825q22 91 99 150t229 59z"/><glyph glyph-name="Sacute" unicode="Ś" d="M719 1567H596l109 256h184zM616-20q-259 0-393.5 127T88 451h143q14-338 392-338h12q155 0 240.5 75T961 379q0 100-60.5 159.5T707 627l-201 43q-179 39-263.5 128T158 1044q0 173 130.5 291.5T631 1454q225 0 356-119t139-321H983q-7 142-100.5 224.5T639 1321h-12q-143 0-234.5-78T301 1047q0-97 59-153t185-83l200-43q359-75 359-381 0-183-131.5-295T616-20z"/><glyph glyph-name="sacute" unicode="ś" d="M664 1167H563l117 267h164zM623-20q-191 0-295.5 90T215 307h133q10-103 82.5-159T612 92h21q107 0 169 49.5T864 276q0 62-40 99.5T684 434l-149 31q-62 13-110 33.5T337.5 551 277 631.5 256 743q0 140 106.5 220.5T623 1044q95 0 169-27t119-74 69-104 28-122H874q-9 89-75 152t-166 63h-21q-103 0-163-54t-60-133q0-56 44.5-94T575 592l160-35q59-13 103-31.5t81-49.5 57-78.5T997 287q1-144-101-225.5T623-20z"/><glyph glyph-name="Scircumflex" unicode="Ŝ" d="m829 1567-188 147-188-147H313l236 256h184l236-256H829zM545 811l200-43q359-75 359-381 0-183-131.5-295T616-20q-259 0-393.5 127T88 451h143q14-338 392-338h12q155 0 240.5 75T961 379q0 100-60.5 159.5T707 627l-201 43q-179 39-263.5 128T158 1044q0 173 130.5 291.5T631 1454q225 0 356-119t139-321H983q-7 142-100.5 224.5T639 1321h-12q-143 0-234.5-78T301 1047q0-97 59-153t185-83z"/><glyph glyph-name="scircumflex" unicode="ŝ" d="m823 1167-205 154-204-154H291l260 267h135l260-267H823zM575 592l160-35q59-13 103-31.5t81-49.5 57-78.5T997 287q1-144-101-225.5T623-20q-191 0-295.5 90T215 307h133q10-103 82.5-159T612 92h21q107 0 169 49.5T864 276q0 62-40 99.5T684 434l-149 31q-62 13-110 33.5T337.5 551 277 631.5 256 743q0 140 106.5 220.5T623 1044q95 0 169-27t119-74 69-104 28-122H874q-9 89-75 152t-166 63h-21q-103 0-163-54t-60-133q0-56 44.5-94T575 592z"/><glyph glyph-name="Scedilla" unicode="Ş" d="m545 811 200-43q359-75 359-381 0-176-122.5-287T647-20v-72q68 2 118-45t50-121q0-88-54.5-145.5T610-461H483v113h129q44 0 72.5 23t28.5 67-28.5 66-72.5 22h-57v152Q326-3 207 122T88 451h143q14-338 392-338h12q155 0 240.5 75T961 379q0 100-60.5 159.5T707 627l-201 43q-179 39-263.5 128T158 1044q0 173 130.5 291.5T631 1454q225 0 356-119t139-321H983q-7 142-100.5 224.5T639 1321h-12q-143 0-234.5-78T301 1047q0-97 59-153t185-83z"/><glyph glyph-name="scedilla" unicode="ş" d="m575 592 160-35q59-13 103-31.5t81-49.5 57-78.5T997 287q1-138-92-218.5T653-20v-72q68 2 118-45t50-121q0-88-54.5-145.5T616-461H489v113h129q44 0 72.5 23t28.5 67-28.5 66-72.5 22h-57v152Q399-3 311 84.5T215 307h133q10-103 82.5-159T612 92h21q107 0 169 49.5T864 276q0 62-40 99.5T684 434l-149 31q-62 13-110 33.5T337.5 551 277 631.5 256 743q0 140 106.5 220.5T623 1044q95 0 169-27t119-74 69-104 28-122H874q-9 89-75 152t-166 63h-21q-103 0-163-54t-60-133q0-56 44.5-94T575 592z"/><glyph glyph-name="Scaron" unicode="Š" d="m969 1823-236-256H549l-236 256h140l188-148 188 148h140zM545 811l200-43q359-75 359-381 0-183-131.5-295T616-20q-259 0-393.5 127T88 451h143q14-338 392-338h12q155 0 240.5 75T961 379q0 100-60.5 159.5T707 627l-201 43q-179 39-263.5 128T158 1044q0 173 130.5 291.5T631 1454q225 0 356-119t139-321H983q-7 142-100.5 224.5T639 1321h-12q-143 0-234.5-78T301 1047q0-97 59-153t185-83z"/><glyph glyph-name="scaron" unicode="š" d="m946 1434-260-267H551l-260 267h123l204-154 205 154h123zM575 592l160-35q59-13 103-31.5t81-49.5 57-78.5T997 287q1-144-101-225.5T623-20q-191 0-295.5 90T215 307h133q10-103 82.5-159T612 92h21q107 0 169 49.5T864 276q0 62-40 99.5T684 434l-149 31q-62 13-110 33.5T337.5 551 277 631.5 256 743q0 140 106.5 220.5T623 1044q95 0 169-27t119-74 69-104 28-122H874q-9 89-75 152t-166 63h-21q-103 0-163-54t-60-133q0-56 44.5-94T575 592z"/><glyph glyph-name="uni0162" unicode="Ţ" d="M686 1300V0h-31v-92q68 2 118-45t50-121q0-88-54.5-145.5T618-461H492v113h129q44 0 72 23t28 67-28 66-72 22h-58V0h-20v1300H123v134h983v-134H686z"/><glyph glyph-name="uni0163" unicode="ţ" d="M1055 113V0H754v-88q68 2 118-45t50-121q0-88-54.5-145.5T717-457H590v113h129q44 0 72 23t28 67-28 66-72 22h-57V0q-89 5-131 48t-42 136v727H143v113h346v332h134v-332h385V911H623V195q0-46 18-64t64-18h350z"/><glyph glyph-name="Tcaron" unicode="Ť" d="m942 1823-235-256H522l-235 256h139l188-148 189 148h139zm-819-523v134h983v-134H686V0H543v1300H123z"/><glyph glyph-name="tcaron" unicode="ť" d="M782 1106h-20v72h10q92 0 92 82v20h-61v154h133v-174q0-70-43-112t-111-42zM1055 0H684Q583 0 536 43t-47 141v727H143v113h346v332h134v-332h385V911H623V195q0-46 18-64t64-18h350V0z"/><glyph glyph-name="Tbar" unicode="Ŧ" d="M1106 1434v-134H686V840h338V717H686V0H543v717H205v123h338v460H123v134h983z"/><glyph glyph-name="tbar" unicode="ŧ" d="M723 113h350V0H702Q601 0 554.5 43T508 184v359H203v112h305v256H162v113h346v332h133v-332h385V911H641V655h385V543H641V195q0-46 18-64t64-18z"/><glyph glyph-name="Utilde" unicode="Ũ" d="M743 1556q-40 0-74.5 17.5T584 1628l-17 12q-5 4-27 20.5t-34 24.5-32.5 16.5-39.5 8.5q-84 0-84-133H248v47q0 85 51 142t127 57q37 0 67-13.5t80-48.5l15-10q10-7 32.5-24t32.5-24 26.5-17 30-13.5 27.5-3.5q82 0 82 133h103v-47q0-84-52-141.5T743 1556zM614-20q-222 0-341 131T154 477v957h143V498q0-385 313-385h8q314 0 314 385v936h143V477q0-235-119.5-366T614-20z"/><glyph glyph-name="utilde" unicode="ũ" d="M453 1300q-84 0-84-133H266v47q0 85 51 142t127 57q38 0 68.5-13.5T592 1352l14-11q6-4 32-23.5t33.5-24.5 26-16 31.5-14 27-3q82 0 82 133h102v-47q0-85-51.5-142T762 1147q-40 0-75.5 17.5T602 1219l-16 12q-4 3-27 20.5t-34 24.5-32 15.5-40 8.5zm438-829v553h133V0H891v193Q851 91 762.5 35.5T549-20Q382-20 288.5 81.5T195 348v676h133V389q0-297 245-297h21q119 0 208 104t89 275z"/><glyph glyph-name="Umacron" unicode="Ū" d="M866 1597H303v113h563v-113zM614-20q-222 0-341 131T154 477v957h143V498q0-385 313-385h8q314 0 314 385v936h143V477q0-235-119.5-366T614-20z"/><glyph glyph-name="umacron" unicode="ū" d="M340 1321h563v-113H340v113zm551-850v553h133V0H891v193Q851 91 762.5 35.5T549-20Q382-20 288.5 81.5T195 348v676h133V389q0-297 245-297h21q119 0 208 104t89 275z"/><glyph glyph-name="Ubreve" unicode="Ŭ" d="M584 1546q-134 0-215.5 72.5T287 1823h112q14-164 185-164 170 0 184 164h113q0-132-81.5-204.5T584 1546zM614-20q-222 0-341 131T154 477v957h143V498q0-385 313-385h8q314 0 314 385v936h143V477q0-235-119.5-366T614-20z"/><glyph glyph-name="ubreve" unicode="ŭ" d="M602 1147q-127 0-207 75.5T315 1434h103q7-90 56-136.5t128-46.5 128 46.5 56 136.5h103q0-136-80-211.5T602 1147zm289-676v553h133V0H891v193Q851 91 762.5 35.5T549-20Q382-20 288.5 81.5T195 348v676h133V389q0-297 245-297h21q119 0 208 104t89 275z"/><glyph glyph-name="Uring" unicode="Ů" d="M584 1554q-64 0-113 47t-49 115 49 115 113 47 112.5-47 48.5-115-48.5-115-112.5-47zm2 93q27 0 46 20.5t19 48.5-19 49-46 21q-28 0-49-21t-21-49 21-48.5 49-20.5zM614-20q-222 0-341 131T154 477v957h143V498q0-385 313-385h8q314 0 314 385v936h143V477q0-235-119.5-366T614-20z"/><glyph glyph-name="uring" unicode="ů" d="M602 1157q-69 0-120.5 49.5T430 1329t51.5 122.5T602 1501t120.5-49.5T774 1329t-51.5-122.5T602 1157zm2 262q-37 0-63.5-26.5T514 1329t26.5-63.5T604 1239t62.5 26.5T692 1329t-25.5 63.5T604 1419zm287-948v553h133V0H891v193Q851 91 762.5 35.5T549-20Q382-20 288.5 81.5T195 348v676h133V389q0-297 245-297h21q119 0 208 104t89 275z"/><glyph glyph-name="Uhungarumlaut" unicode="Ű" d="M496 1567H373l108 256h185zm335 0H709l108 256h184zM614-20q-222 0-341 131T154 477v957h143V498q0-385 313-385h8q314 0 314 385v936h143V477q0-235-119.5-366T614-20z"/><glyph glyph-name="uhungarumlaut" unicode="ű" d="M516 1434h164l-180-267H399zm324 0h164l-181-267H723zm51-963v553h133V0H891v193Q851 91 762.5 35.5T549-20Q382-20 288.5 81.5T195 348v676h133V389q0-297 245-297h21q119 0 208 104t89 275z"/><glyph glyph-name="Uogonek" unicode="Ų" d="M932 498v936h143V477q0-190-77.5-313T772 0Q590-95 590-199q0-88 104-88h56v-112h-84q-93 0-149 44t-56 130q0 114 127 205-210 7-322 137.5T154 477v957h143V498q0-385 313-385h8q314 0 314 385z"/><glyph glyph-name="uogonek" unicode="ų" d="M1024 1024V0Q842-95 842-199q0-88 104-88h55v-112h-83q-93 0-149 44t-56 130q0 139 178 235v183Q851 91 762.5 35.5T549-20Q382-20 288.5 81.5T195 348v676h133V389q0-297 245-297h21q119 0 208 104t89 275v553h133z"/><glyph glyph-name="Wcircumflex" unicode="Ŵ" d="m784 1567-188 147-188-147H268l236 256h184l236-256H784zM903 178l90 1256h137L1008 0H829L616 887 387 0H203L100 1434h133l82-1266 215 856h177z"/><glyph glyph-name="wcircumflex" unicode="ŵ" d="m819 1167-205 154-204-154H287l260 267h135l260-267H819zm35-1005 127 862h131L940 0H786L614 647 440 0H289L117 1024h135l125-860 160 610h157z"/><glyph glyph-name="Ycircumflex" unicode="Ŷ" d="m803 1567-189 147-188-147H287l235 256h185l235-256H803zM614 711l357 723h155L684 571V0H541v571l-439 863h158z"/><glyph glyph-name="ycircumflex" unicode="ŷ" d="m819 1167-205 154-204-154H287l260 267h135l260-267H819zm148-143h139L688 35v-195q0-93-47-135.5T494-338H182v113h291q46 0 64 18t18 64V29l-430 995h145l348-829z"/><glyph glyph-name="Ydieresis" unicode="Ÿ" d="M342 1761h164v-164H342v164zm381 0h164v-164H723v164zM614 711l357 723h155L684 571V0H541v571l-439 863h158z"/><glyph glyph-name="Zacute" unicode="Ź" d="M674 1823h184l-170-256H565zm381-531L297 133h778V0H154v152l751 1148H174v134h881v-142z"/><glyph glyph-name="zacute" unicode="ź" d="M690 1434h164l-180-267H573zm299-531L350 113h670V0H211v125l635 786H221v113h768V903z"/><glyph glyph-name="Zdotaccent" unicode="Ż" d="M532 1772h154v-175H532v175zm523-480L297 133h778V0H154v152l751 1148H174v134h881v-142z"/><glyph glyph-name="zdotaccent" unicode="ż" d="M551 1382h154v-174H551v174zm438-479L350 113h670V0H211v125l635 786H221v113h768V903z"/><glyph glyph-name="Zcaron" unicode="Ž" d="m938 1823-236-256H518l-235 256h139l188-148 189 148h139zm117-531L297 133h778V0H154v152l751 1148H174v134h881v-142z"/><glyph glyph-name="zcaron" unicode="ž" d="m956 1434-260-267H561l-260 267h123l205-154 205 154h122zm33-531L350 113h670V0H211v125l635 786H221v113h768V903z"/><glyph glyph-name="florin" unicode="ƒ" d="M1071 1300h-72q-116 0-162-54t-67-191l-22-144h266V788H729L606-20q-33-211-114-300.5T242-410h-82v134h71q119 0 167 54.5T467-31l127 819H365v123h247l23 150q32 209 109 291t245 82h82v-134z"/><glyph glyph-name="AEacute" unicode="Ǽ" d="M723 1823h184l-170-256H614zm-2-1151V133h436V0H578v395H293L164 0H27l475 1434h635v-134H721V805h340V672H721zm-143 598L336 528h242v742z"/><glyph glyph-name="aeacute" unicode="ǽ" d="M680 1167H580l116 267h164zm537-583v-82H692q0-210 61-310T905 92h4q74 0 120 56t52 145h133q-6-65-27-120t-57-99-93-69-130-25q-189 0-278 174-50-82-120-128T328-20Q186-20 99 69.5T12 293q0 84 32 148t85 100.5T243 596t126 18h188v80q0 108-46 173t-142 65h-7q-91 0-140.5-52.5T166 737H33q9 140 97.5 223.5T375 1044q97 0 165.5-43.5T639 891q35 69 103.5 111t156.5 42q106 0 179-61.5T1184 820t33-236zm-523 30h389q0 150-45.5 234T905 932h-4q-194 0-207-318zM557 350v152H381q-98 0-167-56.5T145 297q0-95 51-150t142-55h4q101 0 158 69t57 189z"/><glyph glyph-name="Oslashacute" unicode="Ǿ" d="M694 1823h185l-170-256H586zm353-332 100-66-131-202q112-194 112-506 0-348-137-542.5T616-20q-195 0-323 131L184-57 84 8l133 205Q104 401 104 717q0 348 137 542.5T616 1454q194 0 322-131zM248 717q0-219 59-367l553 852q-93 119-239 119h-9q-171 0-267.5-161T248 717zm737 0q0 220-59 368L373 233q91-120 239-120h9q171 0 267.5 161T985 717z"/><glyph glyph-name="oslashacute" unicode="ǿ" d="M676 1434h164l-181-267H559zm403-406L969 883q125-147 125-371 0-235-137.5-383.5T614-20q-150 0-272 86L242-68 154 6l104 137Q135 292 135 512q0 235 137 383.5T614 1044q150 0 269-83l102 133zM270 512q0-155 68-266l475 622q-86 64-188 64h-21q-142 0-238-114.5T270 512zM604 92h21q142 0 237.5 114.5T958 512q0 156-69 268L414 158q84-66 190-66z"/><glyph glyph-name="uni0218" unicode="Ș" d="M616-20q-259 0-393.5 127T88 451h143q14-338 392-338h12q155 0 240.5 75T961 379q0 100-60.5 159.5T707 627l-201 43q-179 39-263.5 128T158 1044q0 173 130.5 291.5T631 1454q225 0 356-119t139-321H983q-7 142-100.5 224.5T639 1321h-12q-143 0-234.5-78T301 1047q0-97 59-153t185-83l200-43q359-75 359-381 0-183-131.5-295T616-20zm-96-492h-20v72h10q92 0 92 82v20h-61v154h133v-174q0-70-43-112t-111-42z"/><glyph glyph-name="uni0219" unicode="ș" d="M623-20q-191 0-295.5 90T215 307h133q10-103 82.5-159T612 92h21q107 0 169 49.5T864 276q0 62-40 99.5T684 434l-149 31q-62 13-110 33.5T337.5 551 277 631.5 256 743q0 140 106.5 220.5T623 1044q95 0 169-27t119-74 69-104 28-122H874q-9 89-75 152t-166 63h-21q-103 0-163-54t-60-133q0-56 44.5-94T575 592l160-35q59-13 103-31.5t81-49.5 57-78.5T997 287q1-144-101-225.5T623-20zm-97-492h-20v72h10q92 0 92 82v20h-61v154h133v-174q0-70-43-112t-111-42z"/><glyph glyph-name="uni021A" unicode="Ț" d="M686 0H543v1300H123v134h983v-134H686V0zM528-512h-20v72h10q92 0 92 82v20h-61v154h133v-174q0-70-43-112t-111-42z"/><glyph glyph-name="uni021B" unicode="ț" d="M1055 0H684Q583 0 536 43t-47 141v727H143v113h346v332h134v-332h385V911H623V195q0-46 18-64t64-18h350V0zM627-508h-21v72h10q93 0 93 82v20h-62v154h133v-174q0-70-42.5-112T627-508z"/><glyph glyph-name="uni0226" unicode="Ȧ" d="M541 1772h153v-175H541v175zM1163 0h-137L901 395H324L199 0H66l456 1434h189zM612 1307 367 528h491z"/><glyph glyph-name="uni0227" unicode="ȧ" d="M528 1382h154v-174H528v174zm476-727V225q0-153 10-225H891q-10 56-10 164-33-75-133.5-129.5T518-20q-136 0-229.5 86.5T195 283q0 65 22 117t56.5 85 82 56.5 94 34T547 590l323 24v41q0 131-68.5 204T614 932h-10q-103 0-174.5-51T348 737H215q9 136 118.5 221.5T608 1044q97 0 173.5-31T906 928t73-123.5 25-149.5zM532 92h21q111 0 214 84t103 193v137l-297-21q-111-8-178-59.5T328 291q0-85 58-142t146-57z"/><glyph glyph-name="uni0232" unicode="Ȳ" d="M334 1710h563v-113H334v113zm280-999 357 723h155L684 571V0H541v571l-439 863h158z"/><glyph glyph-name="uni0233" unicode="ȳ" d="M352 1321h563v-113H352v113zm615-297h139L688 35v-195q0-93-47-135.5T494-338H182v113h291q46 0 64 18t18 64V29l-430 995h145l348-829z"/><glyph glyph-name="uni0237" unicode="ȷ" d="M803 1024V-154q0-98-47-141t-148-43H199v113h389q46 0 64 18t18 64V911H324v113h479z"/><glyph glyph-name="uni02BC" unicode="ʼ" d="M522 973h-82v82h62q123 0 123 123v30H492v226h225v-267q0-93-50.5-143.5T522 973z"/><glyph glyph-name="circumflex" unicode="ˆ" d="m682 1434 260-267H819l-205 154-204-154H287l260 267h135z"/><glyph glyph-name="caron" unicode="ˇ" d="m614 1280 205 154h123l-260-267H547l-260 267h123z"/><glyph glyph-name="breve" unicode="˘" d="M614 1147q-127 0-206.5 75.5T328 1434h102q7-90 56-136.5t128-46.5 128.5 46.5T799 1434h102q0-136-80-211.5T614 1147z"/><glyph glyph-name="dotaccent" unicode="˙" d="M690 1208H537v174h153v-174z"/><glyph glyph-name="ring" unicode="˚" d="M614 1157q-69 0-120.5 49.5T442 1329t51.5 122.5T614 1501t120.5-49.5T786 1329t-51.5-122.5T614 1157zm2 82q37 0 63 26.5t26 63.5-26 63.5-63 26.5-63.5-26.5T526 1329t26.5-63.5T616 1239z"/><glyph glyph-name="ogonek" unicode="˛" d="M700-287v-112h-84q-93 0-148.5 44T412-225q0 48 21 90.5t56.5 74T556-9t65 36L723 0Q541-95 541-199q0-88 104-88h55z"/><glyph glyph-name="tilde" unicode="˜" d="M774 1147q-40 0-75.5 17.5T614 1219l-16 12q-4 3-27 20.5t-34 24.5-32 15.5-40 8.5q-84 0-84-133H279v47q0 85 51 142t127 57q38 0 68-13t79-48l14-11q6-4 32-23.5t33.5-24.5 26-16 31.5-14 27-3q82 0 82 133h102v-47q0-85-51.5-142T774 1147z"/><glyph glyph-name="hungarumlaut" unicode="˝" d="M428 1167H328l116 267h164zm324 0H651l117 267h164z"/><glyph glyph-name="uni0394" unicode="Δ" d="M1118 0H111v143l411 1291h189l407-1291V0zM612 1307 242 133h741z"/><glyph glyph-name="uni03A9" unicode="Ω" d="M520 0H59v133h287q-32 29-55.5 53t-62 79.5-63.5 115-44 154T102 737q0 341 137.5 529T614 1454q236 0 374-188.5T1126 737q0-108-19-202.5t-43.5-154-63-115-62-79.5-55.5-53h286V0H709v113q37 26 69.5 57t72.5 85.5 68.5 118 48 156.5T987 729q0 280-98 436t-271 156h-8q-173 0-270.5-156T242 729q0-106 19.5-199t48-156.5 68.5-118 72.5-85.5 69.5-57V0z"/><glyph glyph-name="uni03BC" unicode="μ" d="M901 471v553h133V0H901v193Q861 91 772.5 35.5T559-20q-131 0-221 65v-455H205v1434h133V389q0-297 246-297h20q119 0 208 104t89 275z"/><glyph glyph-name="pi" unicode="π" d="M420 0H287v911H72v113h1054V911H911V215q0-102 93-102h122V0H993Q778 0 778 215v696H420V0z"/><glyph glyph-name="Wgrave" unicode="Ẁ" d="m526 1823 109-256H512l-170 256h184zM903 178l90 1256h137L1008 0H829L616 887 387 0H203L100 1434h133l82-1266 215 856h177z"/><glyph glyph-name="wgrave" unicode="ẁ" d="m590 1434 117-267H606l-180 267h164zM854 162l127 862h131L940 0H786L614 647 440 0H289L117 1024h135l125-860 160 610h157z"/><glyph glyph-name="Wacute" unicode="Ẃ" d="M659 1823h185l-170-256H551zM903 178l90 1256h137L1008 0H829L616 887 387 0H203L100 1434h133l82-1266 215 856h177z"/><glyph glyph-name="wacute" unicode="ẃ" d="M676 1434h164l-181-267H559zM854 162l127 862h131L940 0H786L614 647 440 0H289L117 1024h135l125-860 160 610h157z"/><glyph glyph-name="Wdieresis" unicode="Ẅ" d="M324 1761h163v-164H324v164zm381 0h163v-164H705v164zM903 178l90 1256h137L1008 0H829L616 887 387 0H203L100 1434h133l82-1266 215 856h177z"/><glyph glyph-name="wdieresis" unicode="ẅ" d="M358 1372h154v-164H358v164zm359 0h153v-164H717v164zM854 162l127 862h131L940 0H786L614 647 440 0H289L117 1024h135l125-860 160 610h157z"/><glyph glyph-name="uni1E9E" unicode="ẞ" d="M338 0H195v1434h432q166 0 275.5-101.5T1012 1059q0-99-51.5-184T821 743q130-28 207.5-122.5T1106 395q0-180-117.5-287.5T694 0H563v133h101q135 0 217 68.5T963 397t-81 194.5T666 659H563v134h51q113 0 183.5 69.5T868 1053q0 119-73 183t-193 64H338V0z"/><glyph glyph-name="Ygrave" unicode="Ỳ" d="m545 1823 108-256H530l-170 256h185zm69-1112 357 723h155L684 571V0H541v571l-439 863h158z"/><glyph glyph-name="ygrave" unicode="ỳ" d="m590 1434 117-267H606l-180 267h164zm377-410h139L688 35v-195q0-93-47-135.5T494-338H182v113h291q46 0 64 18t18 64V29l-430 995h145l348-829z"/><glyph glyph-name="uni2002"/><glyph glyph-name="uni2003"/><glyph glyph-name="uni2009" horiz-adv-x="614"/><glyph glyph-name="uni200A" horiz-adv-x="307"/><glyph glyph-name="endash" unicode="–" d="M1014 563H215v113h799V563z"/><glyph glyph-name="emdash" unicode="—" d="M1188 563H41v113h1147V563z"/><glyph glyph-name="uni2015" unicode="―" d="M1188 563H41v113h1147V563z"/><glyph glyph-name="quoteleft" unicode="‘" d="M707 1434h81v-82h-61q-123 0-123-123v-31h133V973H512v266q0 93 51 144t144 51z"/><glyph glyph-name="quoteright" unicode="’" d="M522 973h-82v82h62q123 0 123 123v30H492v226h225v-267q0-93-50.5-143.5T522 973z"/><glyph glyph-name="quotesinglbase" unicode="‚" d="M543-236h-82v82h61q123 0 123 123V0H512v225h225V-41q0-93-50.5-144T543-236z"/><glyph glyph-name="quotedblleft" unicode="“" d="M481 1434h82v-82h-61q-123 0-123-123v-31h133V973H287v266q0 93 50.5 144t143.5 51zm420 0h82v-82h-61q-123 0-123-123v-31h133V973H707v266q0 93 50.5 144t143.5 51z"/><glyph glyph-name="quotedblright" unicode="”" d="M328 973h-82v82h61q123 0 123 123v30H297v226h225v-267q0-93-50.5-143.5T328 973zm420 0h-82v82h61q123 0 123 123v30H717v226h225v-267q0-93-50.5-143.5T748 973z"/><glyph glyph-name="quotedblbase" unicode="„" d="M328-236h-82v82h61q123 0 123 123V0H297v225h225V-41q0-93-50.5-144T328-236zm420 0h-82v82h61q123 0 123 123V0H717v225h225V-41q0-93-50.5-144T748-236z"/><glyph glyph-name="dagger" unicode="†" d="M680-174H547V973H172v112h375v523h133v-523h375V973H680V-174z"/><glyph glyph-name="daggerdbl" unicode="‡" d="M1055 1085V973H680V461h375V348H680v-522H547v522H172v113h375v512H172v112h375v523h133v-523h375z"/><glyph glyph-name="bullet" unicode="•" d="M614 369q-141 0-244.5 103.5T266 717t103.5 244.5T614 1065t245-103.5T963 717 859 472.5 614 369z"/><glyph glyph-name="ellipsis" unicode="…" d="M328 0H102v225h226V0zm399 0H502v225h225V0zm399 0H901v225h225V0z"/><glyph glyph-name="perthousand" unicode="‰" d="M272 819q-120 0-190 85t-70 226 70 226.5 190 85.5q122 0 192.5-85.5T535 1130t-70.5-226T272 819zm4 520h-6q-66 0-102.5-62T131 1130q0-84 36.5-147T270 920h6q66 0 103 63t37 147q0 85-37 147t-103 62zM70 602l694 344V831L70 487v115zm886 12q122 0 192.5-85t70.5-226-70.5-226T956-8Q828-8 756 90 684-8 553-8 433-8 363 77t-70 226 70 226 190 85q131 0 203-98 72 98 200 98zM551 92h6q66 0 102.5 63.5T696 303q0 85-36.5 147T557 512h-6q-66 0-102.5-62T412 303q0-84 36.5-147.5T551 92zm403 0h7q66 0 102.5 63.5T1100 303q0 85-36.5 147T961 512h-7q-66 0-102.5-62T815 303q0-84 36.5-147.5T954 92z"/><glyph glyph-name="guilsinglleft" unicode="‹" d="M827 1024 532 586l299-443H676L379 584l297 440h151z"/><glyph glyph-name="guilsinglright" unicode="›" d="M397 1024h156l297-440-297-441H401l295 439z"/><glyph glyph-name="fraction" unicode="⁄" d="M250 0H117l860 1434h133z"/><glyph glyph-name="uni2070" unicode="⁰" d="M614 1669q154 0 243-113.5t89-302.5-89-301-243-112-242.5 112-88.5 301 88.5 302.5T614 1669zm4-102h-8q-66 0-113.5-47.5t-68-116.5-20.5-150q0-65 14-120l334 360q-54 74-138 74zm-8-625h8q66 0 113.5 46.5t68.5 115 21 149.5q0 73-18 140l-338-367q54-84 145-84z"/><glyph glyph-name="uni2074" unicode="⁴" d="M805 850H690v197H311v114l367 498h127v-510h110v-102H805V850zm-115 659-260-360h260v360z"/><glyph glyph-name="uni2075" unicode="⁵" d="M616 840q-124 0-199.5 58.5T332 1067h125q7-61 51-93t106-32h9q65 0 107 46t42 118q0 70-40.5 109.5T625 1255h-7q-89 0-145-69H365l92 473h428v-103H547l-53-256q61 58 151 58 114 0 183-69.5t69-178.5q0-123-80.5-196.5T616 840z"/><glyph glyph-name="uni2076" unicode="⁶" d="M610 840q-139 0-218 103.5T313 1231q0 199 94 318.5T643 1669q129 0 200.5-68.5T915 1444H795q-11 55-50.5 88t-97.5 33h-12q-82 0-141.5-77.5T424 1278q25 51 85 83t134 32q107 0 183.5-73t76.5-192q0-126-79-207t-214-81zm0 102h6q71 0 118.5 49.5T782 1116q0 76-45 125t-116 49h-7q-71 0-117-49t-46-125 44.5-125T610 942z"/><glyph glyph-name="uni2077" unicode="⁷" d="M604 850H479v74q0 226 83 384.5T776 1556H342v103h545v-109q-283-235-283-626v-74z"/><glyph glyph-name="uni2078" unicode="⁸" d="M608 840q-113 0-191.5 57.5T338 1057q0 130 137 190-66 28-107.5 79.5T326 1444q0 105 79.5 165t206.5 60q128 0 208.5-60t80.5-165q0-67-41-118.5T752 1247q129-59 129-190 0-102-80-159.5T608 840zm-4 465h10q66 0 114 34t48 95q0 63-45.5 98T618 1567h-10q-67 0-112-35t-45-98q0-61 45-95t108-34zm0-363h10q60 0 101 35.5t41 97.5q0 58-41.5 94.5T614 1206h-10q-59 0-100-36.5t-41-94.5q0-62 40.5-97.5T604 942z"/><glyph glyph-name="uni2079" unicode="⁹" d="M618 1669q139 0 218-103.5t79-287.5q0-199-93.5-318.5T586 840q-129 0-201 68.5T313 1065h121q11-55 50.5-88t97.5-33h12q82 0 141.5 77.5T805 1231q-25-51-85-83t-134-32q-107 0-183.5 72.5T326 1380q0 126 78.5 207.5T618 1669zm0-102h-6q-71 0-118.5-49.5T446 1393q0-76 45.5-125t116.5-49h6q71 0 117.5 49t46.5 125q0 75-45 124.5T618 1567z"/><glyph glyph-name="uni20A9" unicode="₩" d="M1067 774h162V662h-170L1004 0H825L616 885 391 0H207l-45 662H0v112h154l-45 660h133l77-1264 211 854h177l192-842 86 1252h137z"/><glyph glyph-name="Euro" unicode="€" d="M688 113h21q135 0 210.5 78.5T1010 420h139q-19-209-135-324.5T700-20Q515-20 399 92T238 412L53 371v123l166 36q-10 85-10 164L53 659v123l158 35q18 306 139.5 471.5T700 1454q198 0 314-115.5t135-324.5h-139q-15 150-90.5 228.5T709 1321h-21q-299 0-336-471l365 82V809l-369-84v-8q0-83 6-156l277 62V500l-260-58q68-329 317-329z"/><glyph glyph-name="uni20B4" unicode="₴" d="m1040 973 152 12V864L39 766v121l850 71q22 56 22 121 0 117-77 179.5T641 1321h-12q-76 0-136-23.5t-93.5-60.5-51.5-73.5-22-71.5H172q3 42 19.5 88t53 96 87.5 88.5 130 64 173 25.5q182 0 301-101t119-266q0-65-15-114zM176 492l-96-9v121l1057 92V575l-811-69q-27-58-27-127 0-120 83-193t218-73h29q131 0 212 69.5T942 358h150q-7-72-41-138T958.5 99.5t-149-87T610-20Q402-20 279 86.5T156 362q0 74 20 130z"/><glyph glyph-name="uni20BD" unicode="₽" d="M412 0H268v379H43v123h225v151H41v131h227v650h492q95 0 174.5-23t142-69 98-123 35.5-177-35.5-176.5-98-122-142-68T760 653H412V502h485V379H412V0zm0 1300V784h317q162 0 250 59.5t88 198.5-88 198.5-250 59.5H412z"/><glyph glyph-name="uni20BF" unicode="₿" d="M846 727q107-21 183.5-107t76.5-225q0-185-109.5-290T694 0H532l-40-246H365L406 0H195v1434h450l43 245h127l-43-252q145-22 224-117.5t79-250.5q0-127-63-212.5T846 727zm-180 573H338V793h328q119 0 192.5 67t73.5 187q0 253-266 253zM338 133h326q299 0 299 264 0 127-81 194.5T666 659H338V133z"/><glyph glyph-name="uni2105" unicode="℅" d="M305 840q-122 0-193 75.5T41 1135q0 145 73.5 227t194.5 82q97 0 168-55t78-148H436q-6 51-41 81t-82 30h-6q-75 0-112-62t-37-155q0-91 36.5-147T307 932h6q46 0 79 29t42 79h117q-10-96-79.5-148T305 840zM250 0H117l860 1434h133zm670-10q-123 0-196 81.5T651 291t73 220.5T920 594t195.5-82.5T1188 291t-72.5-219.5T920-10zm2 92q72 0 110.5 57t38.5 152q0 94-40 152.5T920 502t-111.5-58.5T768 291t41.5-151.5T922 82z"/><glyph glyph-name="uni2113" unicode="ℓ" d="M571 520V250q0-66 26-91.5t91-25.5h174V0H627Q432 0 432 215v221l-153-92v148l153 90v526q0 168 73 257t206 89q74 0 130-28.5t88.5-79.5 48-114 15.5-138q0-166-79-290.5T713 606zm0 608V666l64 36q113 67 166 166.5t53 212.5q0 117-38.5 178.5T711 1321q-61 0-100.5-50T571 1128z"/><glyph glyph-name="uni2116" unicode="№" horiz-adv-x="2457" d="M1923 842q-123 0-195.5 81.5T1655 1143t72.5 220.5T1923 1446t195.5-82.5T2191 1143t-72.5-219.5T1923 842zM492 1436l788-1215v1215h143V2h-174L451 1237V2H307v1434h185zm1431-82q-71 0-111-58.5t-40-152.5 41-151.5 112-57.5q72 0 111 57t39 152q0 94-40.5 152.5T1923 1354zm266-727h-534v92h534v-92z"/><glyph glyph-name="uni2117" unicode="℗" d="M618 102q-166 0-307.5 82.5T86.5 409 4 717t82.5 307.5 224 224T618 1331t308-82.5 224.5-224T1233 717q0-124-49-238t-131.5-196.5T856 151t-238-49zm0 88q142 0 262.5 71T1071 453.5t70 263.5-70 263.5-190.5 192T618 1243q-106 0-203-42t-166.5-112.5-111-167.5T96 717q0-142 69.5-263.5t190-192.5T618 190zm-92 193H414v688h266q112 0 181-52t69-159q0-104-69.5-155.5T680 653H526V383zm0 596V745h138q73 0 113 25.5t40 91.5q0 67-39.5 92T664 979H526z"/><glyph glyph-name="trademark" unicode="™" d="M193 1331H45v103h420v-103H317V655H193v676zm638-336 111 439h178V655h-112v678L895 874H764l-115 447V655H537v779h180z"/><glyph glyph-name="uni2126" unicode="Ω" d="M520 0H59v133h287q-32 29-55.5 53t-62 79.5-63.5 115-44 154T102 737q0 341 137.5 529T614 1454q236 0 374-188.5T1126 737q0-108-19-202.5t-43.5-154-63-115-62-79.5-55.5-53h286V0H709v113q37 26 69.5 57t72.5 85.5 68.5 118 48 156.5T987 729q0 280-98 436t-271 156h-8q-173 0-270.5-156T242 729q0-106 19.5-199t48-156.5 68.5-118 72.5-85.5 69.5-57V0z"/><glyph glyph-name="uni2153" unicode="⅓" d="M373 827H258v453L82 1133v133l203 168h88V827zM250 0H117l860 1434h133zm680-8q-90 0-153.5 50T713 176h118q-1-37 26.5-60.5T926 92h8q44 0 74 22t30 60q0 37-25.5 58.5T948 254h-59v106h61q36 0 60 21t24 55-27.5 55-68.5 21h-8q-38 0-64-21t-26-55H723q0 84 61.5 131T938 614q90 0 151.5-44.5T1151 444q0-47-26.5-83.5T1053 307q104-53 104-145 0-82-66-126T930-8z"/><glyph glyph-name="uni2154" unicode="⅔" d="M451 827H16v127l205 179q3 2 26 22t30.5 28.5 23 25.5 21 31 4.5 28q-1 32-26 49.5t-64 17.5h-7q-38 0-63.5-22.5T137 1249H18q4 88 66 140.5t154 52.5q87 0 146.5-48t59.5-128q0-32-10.5-60t-37-57-41.5-43-54-47L150 934h301V827zM250 0H117l860 1434h133zm680-8q-90 0-153.5 50T713 176h118q-1-37 26.5-60.5T926 92h8q44 0 74 22t30 60q0 37-25.5 58.5T948 254h-59v106h61q36 0 60 21t24 55-27.5 55-68.5 21h-8q-38 0-64-21t-26-55H723q0 84 61.5 131T938 614q90 0 151.5-44.5T1151 444q0-47-26.5-83.5T1053 307q104-53 104-145 0-82-66-126T930-8z"/><glyph glyph-name="uni2155" unicode="⅕" d="M373 827H258v453L82 1133v133l203 168h88V827zM250 0H117l860 1434h133zm672-8q-90 0-153 46t-75 130h125q4-37 32.5-56.5T920 92h6q46 0 76 28.5t30 72.5q0 39-28.5 63.5T934 281h-6q-42 0-90-37H725l70 362h350V506H883l-35-170q55 45 123 45 76 0 127-53t51-131q0-93-64.5-149T922-8z"/><glyph glyph-name="uni2156" unicode="⅖" d="M506 827H72v127l204 179q3 2 26 22t30.5 28.5 23 25.5 21 31 4.5 28q-1 32-26 49.5t-64 17.5h-6q-38 0-63.5-22.5T193 1249H74q4 88 65.5 140.5T293 1442q87 0 147-48t60-128q0-22-4.5-41.5t-18.5-40-21.5-32.5-32.5-34.5-31-28-36-30.5L205 934h301V827zM250 0H117l860 1434h133zm672-8q-90 0-153 46t-75 130h125q4-37 32.5-56.5T920 92h6q46 0 76 28.5t30 72.5q0 39-28.5 63.5T934 281h-6q-42 0-90-37H725l70 362h350V506H883l-35-170q55 45 123 45 76 0 127-53t51-131q0-93-64.5-149T922-8z"/><glyph glyph-name="uni2157" unicode="⅗" d="M289 819q-90 0-153.5 50T72 1004h118q-1-37 26.5-60.5T285 920h8q44 0 74 21.5t30 59.5q0 37-25.5 58.5T307 1081h-59v107h61q36 0 60 21t24 55-27.5 54.5T297 1339h-8q-38 0-64-20.5t-26-54.5H82q0 84 61.5 131t153.5 47q90 0 151.5-44.5T510 1272q0-47-26.5-83.5T412 1135q104-53 104-146 0-82-66-126t-161-44zM250 0H117l860 1434h133zm672-8q-90 0-153 46t-75 130h125q4-37 32.5-56.5T920 92h6q46 0 76 28.5t30 72.5q0 39-28.5 63.5T934 281h-6q-42 0-90-37H725l70 362h350V506H883l-35-170q55 45 123 45 76 0 127-53t51-131q0-93-64.5-149T922-8z"/><glyph glyph-name="uni2158" unicode="⅘" d="M424 827H309v134H23v100l278 373h123v-373h86V961h-86V827zM250 0H117l860 1434h133zm59 1296-174-235h174v235zM922-8q-90 0-153 46t-75 130h125q4-37 32.5-56.5T920 92h6q46 0 76 28.5t30 72.5q0 39-28.5 63.5T934 281h-6q-42 0-90-37H725l70 362h350V506H883l-35-170q55 45 123 45 76 0 127-53t51-131q0-93-64.5-149T922-8z"/><glyph glyph-name="uni2159" unicode="⅙" d="M373 827H258v453L82 1133v133l203 168h88V827zM250 0H117l860 1434h133zm706-8Q849-8 785 70t-64 215q0 151 75 240t199 89q97 0 149-51t52-121h-115q-6 32-29.5 51T993 512h-8q-60 0-105.5-52T827 322q19 37 63.5 61.5T987 408q84 0 142.5-57t58.5-148q0-87-63-149T956-8zm0 100h5q49 0 80.5 30.5T1073 199q0 45-30.5 75.5T963 305h-5q-43 0-76.5-30T848 199q0-45 31.5-76T956 92z"/><glyph glyph-name="uni215A" unicode="⅚" d="M227 819q-89 0-152 46T0 995h125q4-37 32-56t68-19h6q46 0 76.5 28t30.5 72q0 39-28.5 63.5T240 1108h-7q-42 0-90-37H31l69 363h351v-101H188l-34-170q55 45 122 45 76 0 127.5-53t51.5-131q0-93-65-149t-163-56zM250 0H117l860 1434h133zm706-8Q849-8 785 70t-64 215q0 151 75 240t199 89q97 0 149-51t52-121h-115q-6 32-29.5 51T993 512h-8q-60 0-105.5-52T827 322q19 37 63.5 61.5T987 408q84 0 142.5-57t58.5-148q0-87-63-149T956-8zm0 100h5q49 0 80.5 30.5T1073 199q0 45-30.5 75.5T963 305h-5q-43 0-76.5-30T848 199q0-45 31.5-76T956 92z"/><glyph glyph-name="oneeighth" unicode="⅛" d="M373 827H258v453L82 1133v133l203 168h88V827zM250 0H117l860 1434h133zm719-8q-90 0-151.5 42.5T756 156q0 97 112 141-125 48-125 147 0 80 63 125t163 45 163.5-45 63.5-125q0-96-117-147 47-20 76-57t29-84q0-79-62-121.5T969-8zm-2 368h8q43 0 74.5 20.5T1081 438q0 35-30.5 54.5T973 512h-6q-47 0-78-19.5T858 438q0-37 32-57.5t77-20.5zm0-268h8q40 0 67 20.5t27 55.5q0 36-27.5 58T975 248h-8q-40 0-68.5-22T870 168q0-35 28.5-55.5T967 92z"/><glyph glyph-name="threeeighths" unicode="⅜" d="M295 819q-90 0-153.5 50T78 1004h119q-1-37 26-60.5t68-23.5h8q44 0 74 21.5t30 59.5q0 37-25.5 58.5T313 1081h-59v107h61q36 0 60 21t24 55-27.5 54.5T303 1339h-8q-38 0-64-20.5t-26-54.5H88q0 84 61.5 131t153.5 47q90 0 151.5-44.5T516 1272q0-47-26.5-83.5T418 1135q104-53 104-146 0-82-66-126t-161-44zM252 0H119l860 1434h133zm717-8q-90 0-151.5 42.5T756 156q0 97 112 141-125 48-125 147 0 80 63 125t163 45 163.5-45 63.5-125q0-96-117-147 47-20 76-57t29-84q0-79-62-121.5T969-8zm-2 368h8q43 0 74.5 20.5T1081 438q0 35-30.5 54.5T973 512h-6q-47 0-78-19.5T858 438q0-37 32-57.5t77-20.5zm0-268h8q40 0 67 20.5t27 55.5q0 36-27.5 58T975 248h-8q-40 0-68.5-22T870 168q0-35 28.5-55.5T967 92z"/><glyph glyph-name="fiveeighths" unicode="⅝" d="M248 819q-90 0-153 46T20 995h125q4-37 32.5-56t68.5-19h6q46 0 76 28t30 72q0 39-28.5 63.5T260 1108h-6q-42 0-90-37H51l70 363h350v-101H209l-35-170q55 45 123 45 76 0 127-53t51-131q0-93-64.5-149T248 819zm2-819H117l860 1434h133zm719-8q-90 0-151.5 42.5T756 156q0 97 112 141-125 48-125 147 0 80 63 125t163 45 163.5-45 63.5-125q0-96-117-147 47-20 76-57t29-84q0-79-62-121.5T969-8zm-2 368h8q43 0 74.5 20.5T1081 438q0 35-30.5 54.5T973 512h-6q-47 0-78-19.5T858 438q0-37 32-57.5t77-20.5zm0-268h8q40 0 67 20.5t27 55.5q0 36-27.5 58T975 248h-8q-40 0-68.5-22T870 168q0-35 28.5-55.5T967 92z"/><glyph glyph-name="seveneighths" unicode="⅞" d="M324 827H207v56q0 77 14.5 144t35 112 51.5 85.5 55.5 63T418 1333H106v101h426v-107q-208-175-208-444v-56zM250 0H117l860 1434h133zm719-8q-90 0-151.5 42.5T756 156q0 97 112 141-125 48-125 147 0 80 63 125t163 45 163.5-45 63.5-125q0-96-117-147 47-20 76-57t29-84q0-79-62-121.5T969-8zm-2 368h8q43 0 74.5 20.5T1081 438q0 35-30.5 54.5T973 512h-6q-47 0-78-19.5T858 438q0-37 32-57.5t77-20.5zm0-268h8q40 0 67 20.5t27 55.5q0 36-27.5 58T975 248h-8q-40 0-68.5-22T870 168q0-35 28.5-55.5T967 92z"/><glyph glyph-name="uni215F" unicode="⅟" d="M250 0H117l860 1434h133zm172 889H317v407l-157-133v119l182 152h80V889z"/><glyph glyph-name="uni2160" unicode="Ⅰ" d="M989 0H242v113h307v1208H242v113h747v-113H682V113h307V0z"/><glyph glyph-name="uni2161" unicode="Ⅱ" d="M1137 0H92v113h246v1208H92v113h1045v-113H891V113h246V0zM471 1321V113h287v1208H471z"/><glyph glyph-name="uni2162" unicode="Ⅲ" d="M1184 0H47v113h184v1208H47v113h1137v-113H999V113h185V0zM365 1321V113h184v1208H365zm317 0V113h184v1208H682z"/><glyph glyph-name="uni2163" unicode="Ⅳ" horiz-adv-x="2457" d="M2005 0H289v113h307v1208H289v113h1093v-113h-245l403-1104 385 1104h-246v113h574v-113h-195L1638 113h367V0zM729 1321V113h715l-440 1208H729z"/><glyph glyph-name="uni2164" unicode="Ⅴ" d="M1204 1434v-113h-174L713 113h264V0H254v113h264L201 1321H27v113h481v-113H334L616 248l281 1073H723v113h481z"/><glyph glyph-name="uni2165" unicode="Ⅵ" horiz-adv-x="2457" d="M2150 0H434v113h367L381 1321H184v113h576v-113H514L899 217l404 1104h-246v113h1093v-113h-307V113h307V0zm-714 1321L995 113h715v1208h-274z"/><glyph glyph-name="uni2166" unicode="Ⅶ" horiz-adv-x="2457" d="M2273 1434v-113h-245V113h245V0H336v113h305L283 1321H109v113h491v-113H416L739 248l326 1073H881v113h1392zM836 113h577v1208h-215zm710 0h348v1208h-348V113z"/><glyph glyph-name="uni2167" unicode="Ⅷ" horiz-adv-x="2457" d="M2273 1434v-113h-184V113h184V0H336v113h264L283 1321H109v113h481v-113H416L698 248l281 1073H805v113h1468zM795 113h526v1208h-209zm659 0h184v1208h-184V113zm318 0h184v1208h-184V113z"/><glyph glyph-name="uni2168" unicode="Ⅸ" horiz-adv-x="2457" d="M2204 0H258v113h307v1208H258v113h1925v-113h-180l-408-596 420-612h189V0zM698 1321V113h322l420 612-408 596H698zm490 0 330-481 329 481h-659zm330-709-342-499h684z"/><glyph glyph-name="uni2169" unicode="Ⅹ" d="m694 729 328-616h170V0H49v113h170l328 616-316 592H70v113h1101v-113h-161zm168 592H379l242-455zm12-1208L621 590 367 113h507z"/><glyph glyph-name="uni216C" unicode="Ⅼ" d="M1126 0H102v113h205v1208H102v113h584v-113H440V113h553v358h133V0z"/><glyph glyph-name="uni216D" unicode="Ⅽ" d="M645-20q-149 0-261 55.5T205 192 105 424 72 717t33 293 100 232 179 156.5 261 55.5q245 0 348-170v150h133V993H993q-70 348-346 348h-4q-96 0-171.5-33.5t-125-90.5-81.5-138-46-170-14-192 14-192 46-170 81.5-138.5 125-91T643 92h4q147 0 230.5 88T993 440h133V0H993v141Q885-20 645-20z"/><glyph glyph-name="uni216E" unicode="Ⅾ" d="M514 0H35v113h186v1208H35v113h475q293 0 454.5-190.5T1126 719q0-343-161-531T514 0zM354 1321V113h109q269 0 399.5 149.5T993 715q0 296-125.5 451T485 1321H354z"/><glyph glyph-name="uni216F" unicode="Ⅿ" d="M1167 1434v-113h-145V113h145V0H725v113h164v1169L692 410H539l-199 874V113h164V0H61v113h146v1208H61v113h353l200-895 201 895h352z"/><glyph glyph-name="arrowleft" unicode="←" d="m645 336-90-92L82 717l473 473 90-92-317-318h776V653H328z"/><glyph glyph-name="arrowup" unicode="↑" d="m233 686-92 90 473 473 473-473-92-90-317 318V227H551v777z"/><glyph glyph-name="arrowright" unicode="→" d="m584 1098 90 92 473-473-473-473-90 92 317 317H125v127h776z"/><glyph glyph-name="arrowdown" unicode="↓" d="m995 788 92-90-473-473-473 473 92 90 318-317v776h127V471z"/><glyph glyph-name="uni2196" unicode="↖" d="m1024 469-90-88-549 549V479H256v668h670v-129H475z"/><glyph glyph-name="uni2197" unicode="↗" d="M844 930 295 381l-90 88 549 549H303v129h670V479H844v451z"/><glyph glyph-name="uni2198" unicode="↘" d="m205 965 90 88 549-549v450h129V287H303v129h451z"/><glyph glyph-name="uni2199" unicode="↙" d="m385 504 549 549 90-88-549-549h451V287H256v667h129V504z"/><glyph glyph-name="uni21A4" unicode="↤" d="M973 780v346h133V307H973v346H328l317-317-90-92L82 717l473 473 90-92-317-318h645z"/><glyph glyph-name="uni21A5" unicode="↥" d="M995 676 678 993V348h346V215H205v133h346v645L233 676l-92 90 473 473 473-473z"/><glyph glyph-name="uni21A6" unicode="↦" d="m584 1098 90 92 473-473-473-473-90 92 317 317H256V307H123v819h133V780h645z"/><glyph glyph-name="uni21A7" unicode="↧" d="m678 399 317 318 92-90-473-473-473 473 92 90 318-318v645H205v134h819v-134H678V399z"/><glyph glyph-name="uni21B0" unicode="↰" d="M1096 780V0H956v653H317l318-317-90-92L72 717l473 473 90-92-318-318h779z"/><glyph glyph-name="uni21B1" unicode="↱" d="m594 1098 90 92 473-473-473-473-90 92 317 317H272V0H133v780h778z"/><glyph glyph-name="uni21B2" unicode="↲" d="M956 780v654h140V653H317l318-317-90-92L72 717l473 473 90-92-318-318h639z"/><glyph glyph-name="uni21B3" unicode="↳" d="m594 1098 90 92 473-473-473-473-90 92 317 317H133v781h139V780h639z"/><glyph glyph-name="partialdiff" unicode="∂" d="M610-20q-216 0-340.5 140T145 494q0 221 123.5 360T592 993q107 0 194-36.5T926 850l-6 47q-14 108-58.5 191.5t-108 133T618 1296t-149 25q-103 0-190-31v133q96 31 206 31 118 0 216-42t168-117 118-179.5 71-229.5 23-268q0-320-127.5-479T610-20zm-4 133h10q139 0 232.5 98T942 492q0 185-90.5 281.5T616 870h-20q-143 0-227-95t-84-281q0-185 88.5-283T606 113z"/><glyph glyph-name="uni2206" unicode="∆" d="M1118 0H111v143l411 1291h189l407-1291V0zM612 1307 242 133h741z"/><glyph glyph-name="product" unicode="∏" d="M399 0H260v1300H47v134h1135v-134H971V0H831v1300H399V0z"/><glyph glyph-name="summation" unicode="∑" d="M184 1434h871v-134H356l422-583-422-584h699V0H184v135l418 582-418 588v129z"/><glyph glyph-name="minus" unicode="−" d="M1120 461H109v133h1011V461z"/><glyph glyph-name="uni2215" unicode="∕" d="M410 0H266l553 1434h144z"/><glyph glyph-name="uni2219" unicode="∙" d="M614 369q-141 0-244.5 103.5T266 717t103.5 244.5T614 1065t245-103.5T963 717 859 472.5 614 369z"/><glyph glyph-name="radical" unicode="√" d="M711 1434h456v-113H809L545 0H383L102 1024h140l219-836z"/><glyph glyph-name="infinity" unicode="∞" d="M301 369q-123 0-202 73T20 635t79 193 202 73q103 0 177.5-43T614 729q61 86 136 129t178 43q123 0 201.5-73t78.5-193-78.5-193T928 369q-103 0-178 43T614 541q-61-86-135.5-129T301 369zm6 112h10q70 0 126 36.5T557 635q-58 80-114 116.5T317 788h-10q-71 0-117.5-41.5T143 635t46.5-112T307 481zm604 0h11q71 0 117 42t46 112-46 111.5T922 788h-11q-70 0-125.5-36T672 635q58-81 114-117.5T911 481z"/><glyph glyph-name="integral" unicode="∫" d="M319-205h-81v133h71q126 0 177 57t51 189v870q0 390 356 390h82v-134h-72q-126 0-176.5-56.5T676 1055V184q0-389-357-389z"/><glyph glyph-name="approxequal" unicode="≈" d="M850 569q-58 0-154 41.5t-182 83T395 735q-129 0-129-145H133v51q0 102 66.5 169T379 877q58 0 154-41.5t182-83T834 711q72 0 100.5 35.5T963 846h133v-51q0-103-63-164.5T850 569zm0-389q-58 0-154 41.5t-182 83T395 346q-129 0-129-145H133v51q0 102 66.5 168.5T379 487q58 0 154-41t182-82.5T834 322q72 0 100.5 35.5T963 457h133v-51q0-103-63-164.5T850 180z"/><glyph glyph-name="notequal" unicode="≠" d="M1120 778V645H725l-74-237h469V274H610L535 31H389l76 243H109v134h397l74 237H109v133h512l75 246h146l-76-246h354z"/><glyph glyph-name="lessequal" unicode="≤" d="m109 733 1011 311V897L256 657l864-239V266L109 578v155zM1120 51H109v133h1011V51z"/><glyph glyph-name="greaterequal" unicode="≥" d="M109 893v151l1011-311V578L109 266v148l864 239zM1120 51H109v133h1011V51z"/><glyph glyph-name="angleleft" unicode="〈" d="M983-174H838L369 717l469 891h145L514 719z"/><glyph glyph-name="angleright" unicode="〉" d="M246 1608h145l469-891-469-891H246l469 889z"/><glyph glyph-name="uni2460" unicode="①" d="M614 102q-166 0-307.5 82.5T82.5 409 0 717t82.5 307.5 224 224T614 1331t308-82.5 224.5-224T1229 717q0-124-49-238t-131.5-196.5T852 151t-238-49zm0 88q142 0 262.5 71T1067 453.5t70 263.5-70 263.5-190.5 192T614 1243q-106 0-203-42t-166.5-112.5-111-167.5T92 717q0-142 69.5-263.5t190-192.5T614 190zm101 228H600v452L424 723v133l203 168h88V418z"/><glyph glyph-name="uni2461" unicode="②" d="M614 102q-166 0-307.5 82.5T82.5 409 0 717t82.5 307.5 224 224T614 1331t308-82.5 224.5-224T1229 717q0-124-49-238t-131.5-196.5T852 151t-238-49zm0 88q142 0 262.5 71T1067 453.5t70 263.5-70 263.5-190.5 192T614 1243q-106 0-203-42t-166.5-112.5-111-167.5T92 717q0-142 69.5-263.5t190-192.5T614 190zm217 228H397v127l205 178q3 2 26 22t30.5 28.5 23 25.5 21 31 4.5 28q-1 32-26.5 50T616 926h-6q-38 0-63.5-22.5T518 840H399q4 88 65.5 140t153.5 52q87 0 147-48t60-128q0-32-10.5-60t-37-57-41.5-43-54-47L530 524h301V418z"/><glyph glyph-name="uni2462" unicode="③" d="M614 102q-166 0-307.5 82.5T82.5 409 0 717t82.5 307.5 224 224T614 1331t308-82.5 224.5-224T1229 717q0-124-49-238t-131.5-196.5T852 151t-238-49zm0 88q142 0 262.5 71T1067 453.5t70 263.5-70 263.5-190.5 192T614 1243q-106 0-203-42t-166.5-112.5-111-167.5T92 717q0-142 69.5-263.5t190-192.5T614 190zm-6 220q-90 0-153.5 50T391 594h119q-1-37 26-60.5t68-23.5h8q44 0 74.5 22t30.5 60q0 37-25.5 58.5T627 672h-60v106h62q36 0 60 21t24 55-28 55-69 21h-8q-38 0-64-21t-26-55H401q0 84 61.5 131t153.5 47q90 0 151.5-44.5T829 862q0-47-26.5-83.5T731 725q105-54 105-145 0-82-66.5-126T608 410z"/><glyph glyph-name="uni2463" unicode="④" d="M614 102q-166 0-307.5 82.5T82.5 409 0 717t82.5 307.5 224 224T614 1331t308-82.5 224.5-224T1229 717q0-124-49-238t-131.5-196.5T852 151t-238-49zm0 88q142 0 262.5 71T1067 453.5t70 263.5-70 263.5-190.5 192T614 1243q-106 0-203-42t-166.5-112.5-111-167.5T92 717q0-142 69.5-263.5t190-192.5T614 190zm136 228H635v133H348v100l279 373h123V651h86V551h-86V418zM635 887 461 651h174v236z"/><glyph glyph-name="uni2464" unicode="⑤" d="M614 102q-166 0-307.5 82.5T82.5 409 0 717t82.5 307.5 224 224T614 1331t308-82.5 224.5-224T1229 717q0-124-49-238t-131.5-196.5T852 151t-238-49zm0 88q142 0 262.5 71T1067 453.5t70 263.5-70 263.5-190.5 192T614 1243q-106 0-203-42t-166.5-112.5-111-167.5T92 717q0-142 69.5-263.5t190-192.5T614 190zm-18 220q-89 0-152 46t-75 130h125q4-37 32-56.5t68-19.5h6q46 0 76.5 28t30.5 72q0 39-29 63.5T608 698h-6q-44 0-90-36H399l70 362h350V924H557l-35-170q55 45 123 45 76 0 127-53.5T823 614q0-93-64.5-148.5T596 410z"/><glyph glyph-name="uni2465" unicode="⑥" d="M614 102q-166 0-307.5 82.5T82.5 409 0 717t82.5 307.5 224 224T614 1331t308-82.5 224.5-224T1229 717q0-124-49-238t-131.5-196.5T852 151t-238-49zm0 88q142 0 262.5 71T1067 453.5t70 263.5-70 263.5-190.5 192T614 1243q-106 0-203-42t-166.5-112.5-111-167.5T92 717q0-142 69.5-263.5t190-192.5T614 190zm-6 220q-107 0-171 78t-64 214q0 151 75 240.5t199 89.5q97 0 149-51t52-121H733q-6 32-29.5 51T645 930h-8q-60 0-105.5-52.5T479 739q19 37 63.5 61.5T639 825q84 0 142.5-56.5T840 621q0-87-63-149t-169-62zm0 100h4q49 0 81 30t32 76q0 45-31 76t-80 31h-4q-43 0-76.5-30.5T500 616q0-45 31.5-75.5T608 510z"/><glyph glyph-name="uni2466" unicode="⑦" d="M614 102q-166 0-307.5 82.5T82.5 409 0 717t82.5 307.5 224 224T614 1331t308-82.5 224.5-224T1229 717q0-124-49-238t-131.5-196.5T852 151t-238-49zm0 88q142 0 262.5 71T1067 453.5t70 263.5-70 263.5-190.5 192T614 1243q-106 0-203-42t-166.5-112.5-111-167.5T92 717q0-142 69.5-263.5t190-192.5T614 190zm9 228H506v55q0 95 20 173t55.5 131.5 66 85.5 69.5 61H406v100h425V918Q623 743 623 473v-55z"/><glyph glyph-name="uni2467" unicode="⑧" d="M614 102q-166 0-307.5 82.5T82.5 409 0 717t82.5 307.5 224 224T614 1331t308-82.5 224.5-224T1229 717q0-124-49-238t-131.5-196.5T852 151t-238-49zm0 88q142 0 262.5 71T1067 453.5t70 263.5-70 263.5-190.5 192T614 1243q-106 0-203-42t-166.5-112.5-111-167.5T92 717q0-142 69.5-263.5t190-192.5T614 190zm-2 220q-90 0-151.5 42T399 573q0 97 113 142-125 48-125 147 0 80 62.5 125t162.5 45 164-45 64-125q0-96-117-147 46-20 75-57t29-85q0-79-62-121t-153-42zm-2 368h8q43 0 75 20.5t32 57.5q0 35-31 54.5T616 930h-6q-47 0-77.5-19.5T502 856q0-38 31.5-58t76.5-20zm0-268h8q40 0 67.5 20.5T713 586q0 36-27.5 58T618 666h-8q-40 0-68-22t-28-58q0-35 28-55.5t68-20.5z"/><glyph glyph-name="uni2468" unicode="⑨" d="M614 102q-166 0-307.5 82.5T82.5 409 0 717t82.5 307.5 224 224T614 1331t308-82.5 224.5-224T1229 717q0-124-49-238t-131.5-196.5T852 151t-238-49zm0 88q142 0 262.5 71T1067 453.5t70 263.5-70 263.5-190.5 192T614 1243q-106 0-203-42t-166.5-112.5-111-167.5T92 717q0-142 69.5-263.5t190-192.5T614 190zm9 840q107 0 170-78t63-215q0-151-75-240t-199-89q-97 0-149 51t-52 121h115q8-33 31.5-52.5T584 508h10q60 0 105 53t51 139q-19-37-63.5-61.5T590 614q-82 0-140.5 57T391 819q0 88 62 149.5t170 61.5zm0-100h-7q-47 0-78.5-30.5T506 823q0-45 30.5-75.5T614 717h4q44 0 77.5 30t33.5 76q0 45-31.5 76T623 930z"/><glyph glyph-name="uni24EA" unicode="⓪" d="M614 102q-166 0-307.5 82.5T82.5 409 0 717t82.5 307.5 224 224T614 1331t308-82.5 224.5-224T1229 717q0-124-49-238t-131.5-196.5T852 151t-238-49zm0 88q142 0 262.5 71T1067 453.5t70 263.5-70 263.5-190.5 192T614 1243q-106 0-203-42t-166.5-112.5-111-167.5T92 717q0-142 69.5-263.5t190-192.5T614 190zm-2 220q-120 0-190 85t-70 226 70 226 190 85q122 0 192-85t70-226-70-226-192-85zm-2 100h6q66 0 103 63.5T756 721q0 85-37 147t-103 62h-6q-66 0-102.5-62T471 721q0-84 36.5-147.5T610 510z"/><glyph glyph-name="uni24FF" unicode="⓿" d="M614 102q-166 0-307.5 82.5T82.5 409 0 717t82.5 307.5 224 224T614 1331t308-82.5 224.5-224T1229 717q0-125-49-239t-131.5-196.5-196-131T614 102zm-2 308q122 0 192 85t70 226-70 226-192 85q-120 0-190-85t-70-226 70-226 190-85zm4 100h-6q-66 0-102.5 63.5T471 721q0 85 36.5 147T610 930h6q66 0 103-62t37-147q0-84-37-147.5T616 510z"/><glyph glyph-name="triagup" unicode="▲" d="M1229 0H0l614 1094z"/><glyph glyph-name="lozenge" unicode="◊" d="M690 0H547L55 717l492 717h143l481-717zM219 717l399-578 400 578-400 588z"/><glyph glyph-name="uni2776" unicode="❶" d="M614 102q-166 0-307.5 82.5T82.5 409 0 717t82.5 307.5 224 224T614 1331t308-82.5 224.5-224T1229 717q0-124-49-238t-131.5-196.5T852 151t-238-49zm-28 768V418h114v606h-88L410 856V723z"/><glyph glyph-name="uni2777" unicode="❷" d="M614 102q-166 0-307.5 82.5T82.5 409 0 717t82.5 307.5 224 224T614 1331t308-82.5 224.5-224T1229 717q0-124-49-238t-131.5-196.5T852 151t-238-49zM397 545V418h434v106H530l152 125q39 33 54 47t41.5 43 37 57 10.5 60q0 80-60 128t-147 48q-92 0-153.5-52T399 840h119q3 41 28.5 63.5T610 926h6q39 0 64.5-18t26.5-50q1-14-4.5-28t-21-31-23-25.5T628 745t-26-22z"/><glyph glyph-name="uni2778" unicode="❸" d="M614 102q-166 0-307.5 82.5T82.5 409 0 717t82.5 307.5 224 224T614 1331t308-82.5 224.5-224T1229 717q0-124-49-238t-131.5-196.5T852 151t-238-49zm-6 308q95 0 161.5 44T836 580q0 91-105 145 45 17 71.5 53.5T829 862q0 81-61.5 125.5T616 1032q-92 0-153.5-47T401 854h117q0 34 26 55t64 21h8q41 0 69-21t28-55-24-55-60-21h-62V672h60q39 0 64.5-21.5T717 592q0-38-30.5-60T612 510h-8q-41 0-68 23.5T510 594H391q0-84 63.5-134T608 410z"/><glyph glyph-name="uni2779" unicode="❹" d="M614 102q-166 0-307.5 82.5T82.5 409 0 717t82.5 307.5 224 224T614 1331t308-82.5 224.5-224T1229 717q0-124-49-238t-131.5-196.5T852 151t-238-49zm21 449V418h115v133h86v100h-86v373H627L348 651V551h287zm0 100H461l174 236V651z"/><glyph glyph-name="uni277A" unicode="❺" d="M614 102q-166 0-307.5 82.5T82.5 409 0 717t82.5 307.5 224 224T614 1331t308-82.5 224.5-224T1229 717q0-124-49-238t-131.5-196.5T852 151t-238-49zm-10 308q98 0 162.5 55.5T831 614q0 78-51 131.5T653 799q-68 0-123-45l35 170h262v100H477l-69-362h112q46 36 90 36h6q41 0 70-24.5t29-63.5q0-44-30.5-72T608 510h-6q-40 0-68 19.5T502 586H377q12-84 75-130t152-46z"/><glyph glyph-name="uni277B" unicode="❻" d="M614 102q-166 0-307.5 82.5T82.5 409 0 717t82.5 307.5 224 224T614 1331t308-82.5 224.5-224T1229 717q0-124-49-238t-131.5-196.5T852 151t-238-49zm-2 308q106 0 169 62t63 149q0 91-58.5 147.5T643 825q-52 0-96.5-24.5T483 739q7 86 52.5 138.5T641 930h8q35 0 58.5-19t29.5-51h115q0 70-52 121t-149 51q-124 0-199-89.5T377 702q0-136 64-214t171-78zm4 100h-4q-45 0-76.5 30.5T504 616q0 46 33.5 76.5T614 723h4q49 0 80-31t31-76q0-46-32-76t-81-30z"/><glyph glyph-name="uni277C" unicode="❼" d="M614 102q-166 0-307.5 82.5T82.5 409 0 717t82.5 307.5 224 224T614 1331t308-82.5 224.5-224T1229 717q0-124-49-238t-131.5-196.5T852 151t-238-49zM502 473v-55h116v55q0 269 209 445v106H401V924h312q-39-29-69.5-61t-66-85.5T522 646t-20-173z"/><glyph glyph-name="uni277D" unicode="❽" d="M614 102q-166 0-307.5 82.5T82.5 409 0 717t82.5 307.5 224 224T614 1331t308-82.5 224.5-224T1229 717q0-124-49-238t-131.5-196.5T852 151t-238-49zm-2 308q91 0 153 42t62 121q0 48-29 85t-75 57q117 51 117 147 0 80-64 125t-164 45-162.5-45T387 862q0-99 125-147-113-45-113-142 0-79 61.5-121T612 410zm6 368h-8q-45 0-76.5 20T502 856q0 35 30.5 54.5T610 930h6q47 0 78-19.5t31-54.5q0-37-32-57.5T618 778zm0-268h-8q-40 0-68 20.5T514 586q0 36 28 58t68 22h8q40 0 67.5-22t27.5-58q0-35-27.5-55.5T618 510z"/><glyph glyph-name="uni277E" unicode="❾" d="M614 102q-166 0-307.5 82.5T82.5 409 0 717t82.5 307.5 224 224T614 1331t308-82.5 224.5-224T1229 717q0-124-49-238t-131.5-196.5T852 151t-238-49zm-32 306q124 0 199 89t75 240q0 137-63 215t-170 78q-108 0-170-61.5T391 819q0-91 58.5-148T590 614q52 0 96.5 24.5T750 700q-6-86-51-139t-105-53h-10q-33 0-56.5 19.5T496 580H381q0-70 52-121t149-51zm36 309h-4q-47 0-77.5 30.5T506 823q0 46 31.5 76.5T616 930h7q43 0 74.5-31t31.5-76q0-46-33.5-76T618 717z"/><glyph glyph-name="uni300A" unicode="《" d="M776-174H631L164 717l467 891h145L309 719zm377 0h-145L541 717l467 891h145L686 719z"/><glyph glyph-name="uni300B" unicode="》" d="M76 1608h145l467-891-467-891H76l467 889zm377 0h145l467-891-467-891H453l467 889z"/><glyph glyph-name="uni300C" unicode="「" d="M641 795H512v936h410v-113H641V795z"/><glyph glyph-name="uni300D" unicode="」" d="M588 639h129v-936H307v113h281v823z"/><glyph glyph-name="uni300E" unicode="『" d="M723 682H336v1049h668v-338H723V682zm-258 936V795h129v710h280v113H465z"/><glyph glyph-name="uni300F" unicode="』" d="M506 752h387V-297H225V41h281v711zm258-936v823H635V-72H354v-112h410z"/><glyph glyph-name="uni3010" unicode="【" d="M1024-297H498v2028h526q-197-211-295-474t-98-538q0-273 97-536.5T1024-297z"/><glyph glyph-name="uni3011" unicode="】" d="M205 1733h526V-295H205Q402-84 500 179t98 538q0 273-97 536.5T205 1733z"/><glyph glyph-name="uni3014" unicode="〔" d="M1010-297H842L547 35v1364l295 332h166l-328-373V78z"/><glyph glyph-name="uni3015" unicode="〕" d="M219 1733h168l295-332V37L387-295H221L549 78v1280z"/><glyph glyph-name="uniE000" unicode="" d="M965 367H264v700h701V367zM395 936V498h439v438H395z"/><glyph glyph-name="uniE001" unicode="" d="M1098 233H131v967h967V233zm-834 834V367h701v700H264z"/><glyph glyph-name="uniE002" unicode="" d="M1229 102H0v1229h1229V102zM131 1200V233h967v967H131z"/><glyph glyph-name="uniE009" unicode="" d="M965 367H264v700h701V367zM395 936V498h439v438H395zm307-307H526v176h176V629z"/><glyph glyph-name="uniE00A" unicode="" d="M1098 233H131v967h967V233zm-834 834V367h701v700H264zm570-569H395v438h439V498zM526 805V629h176v176H526z"/><glyph glyph-name="uniE00B" unicode="" d="M1229 102H0v1229h1229V102zM131 1200V233h967v967H131zm834-833H264v700h701V367zM395 936V498h439v438H395zm307-307H526v176h176V629z"/><glyph glyph-name="uniE00C" unicode="" d="M965 367H264v700h701V367z"/><glyph glyph-name="uniE00D" unicode="" d="M1098 233H131v967h967V233z"/><glyph glyph-name="uniE00E" unicode="" d="M1229 102H0v1229h1229V102z"/><glyph glyph-name="uniE010" unicode="" d="M614 338q-157 0-267.5 111T236 717t110.5 268T614 1096t268-111 111-268-111-268-268-111zm0 119q107 0 183.5 76.5T874 717t-76.5 183.5T614 977t-183.5-76.5T354 717t76.5-183.5T614 457zm0 118q-58 0-99.5 41.5T473 717t41.5 100 99.5 41q59 0 100.5-41.5T756 717q0-59-42-100.5T614 575z"/><glyph glyph-name="uniE011" unicode="" d="M614 221q-134 0-248 67T185.5 469 119 717t66.5 248T366 1145.5t248 66.5 248-66.5T1043 965t67-248-67-248-181-181-248-67zm0 117q157 0 268 111t111 268-111 268-268 111-267.5-111T236 717t110.5-268T614 338zm0 119q-107 0-183.5 76.5T354 717t76.5 183.5T614 977t183.5-76.5T874 717t-76.5-183.5T614 457zm0 118q58 0 100 41.5T756 717q0 58-41.5 99.5T614 858q-58 0-99.5-41T473 717t41.5-100.5T614 575z"/><glyph glyph-name="uniE012" unicode="" d="M614 102q-166 0-307.5 82.5T82.5 409 0 717t82.5 307.5 224 224T614 1331t308-82.5 224.5-224T1229 717q0-124-49-238t-131.5-196.5T852 151t-238-49zm0 119q134 0 248 67t181 181 67 248-67 248-181 180.5-248 66.5-248-66.5T185.5 965 119 717t66.5-248T366 288t248-67zm0 117q-157 0-267.5 111T236 717t110.5 268T614 1096t268-111 111-268-111-268-268-111zm0 119q107 0 183.5 76.5T874 717t-76.5 183.5T614 977t-183.5-76.5T354 717t76.5-183.5T614 457zm0 118q-58 0-99.5 41.5T473 717t41.5 100 99.5 41q59 0 100.5-41.5T756 717q0-59-42-100.5T614 575z"/><glyph glyph-name="uniF8FF" unicode="" horiz-adv-x="2457" d="M1896 1444q67 7 137.5-5.5t96.5-35.5q-1-4-1.5-19t-2-25-4.5-13q-11-11-40-14t-52.5 0-38.5 7q2-55-12.5-103t-52.5-81.5-93-28.5q-14-46-42.5-81.5t-63-56-76-35.5-81-19-78-6-67.5 2q0-1 7-23.5t18-62 23-87.5 24-109 19-116q7-8 29.5-33.5t39-44.5 43.5-46.5 53-51.5q44-39 78-84t45-75q19-50-35-60-44 26-84.5 65.5t-90.5 97-85 91.5q-4-59 7-125.5t26-132 19-98.5q-28-22-52.5-23T1475 29q-28 44-45 137t-25 184-10 99q-64 3-457-91-1-47 16-91t44.5-82 56.5-74.5 57.5-83.5 42.5-93q-5-6-13-11.5t-25.5-9T1079-76q-20 11-42.5 37.5t-54 72T940 94q-23 30-48.5 86T854 244Q757-44 725-47h-27l-24.5 10L664-6q3 60 39.5 165T791 354q-14 2-105.5 9T517 387.5 393 442q-10 13-20 29 12 15 25 26t21.5 16.5T445 529t26 16q29 39 106.5 97.5T686 745q-12 10-59 32t-85.5 48.5T494 881q4 4 18 39 9 7 65-15t121-55q16 132 21 145 3 7 22 14t37 10l17 3q18-11 22-31 4-18-9.5-85.5T797 805q46 0 97 27t100.5 60 80.5 42q13 4 62 16.5t102 27 92 26.5q-39 69-41.5 148.5T1325 1276q161 1 228.5-70t31.5-174q40 3 83.5 28t49.5 50q-18 17-55.5 48t-63.5 59q-46 53-28.5 110t84.5 82q92 35 150-27.5t44-171.5q56 27 47 234zm-141-240q14 39-4 79.5t-65 53.5q-26-44 1.5-86t67.5-47zm-266-162q3 1 8 4.5t13 21.5 8 44q-57 57-117 57-11-30-6.5-70.5t22.5-58.5q11-11 72 2zM909 459q67 3 151.5 29.5T1231 536t172 15q-5 36-20 85t-19 73q-4 26-8 59t-6.5 49-10 36.5T1317 891q-99-22-240-96t-223-95q13-45 25.5-102.5t20.5-96 9-42.5zm-336 24q170-26 228-20-11 27-27.5 90T741 649q-19-17-60-51t-65.5-59-42.5-56z"/><glyph glyph-name="G.ss02" d="M668 584v133h458V432q0-204-129.5-328T659-20q-185 0-312 95T161 333t-59 384q0 163 33.5 295.5t100 232T410 1399t249 55q214 0 329-132t124-349H969q-12 172-90.5 260T666 1321h-13q-198 0-302.5-156.5T246 717q0-295 106.5-449.5T653 113h13q156 0 241.5 91.5T993 455v129H668z"/><glyph glyph-name="Gbreve.ss02" d="M664 1546q-134 0-215.5 72.5T367 1823h112q14-164 185-164 170 0 184 164h113q0-132-81.5-204.5T664 1546zm4-962v133h458V432q0-204-129.5-328T659-20q-185 0-312 95T161 333t-59 384q0 163 33.5 295.5t100 232T410 1399t249 55q214 0 329-132t124-349H969q-12 172-90.5 260T666 1321h-13q-198 0-302.5-156.5T246 717q0-295 106.5-449.5T653 113h13q156 0 241.5 91.5T993 455v129H668z"/><glyph glyph-name="Gcircumflex.ss02" d="m852 1567-188 147-189-147H336l235 256h185l235-256H852zM668 584v133h458V432q0-204-129.5-328T659-20q-185 0-312 95T161 333t-59 384q0 163 33.5 295.5t100 232T410 1399t249 55q214 0 329-132t124-349H969q-12 172-90.5 260T666 1321h-13q-198 0-302.5-156.5T246 717q0-295 106.5-449.5T653 113h13q156 0 241.5 91.5T993 455v129H668z"/><glyph glyph-name="uni0122.ss02" d="M668 584v133h458V432q0-204-129.5-328T659-20q-185 0-312 95T161 333t-59 384q0 163 33.5 295.5t100 232T410 1399t249 55q214 0 329-132t124-349H969q-12 172-90.5 260T666 1321h-13q-198 0-302.5-156.5T246 717q0-295 106.5-449.5T653 113h13q156 0 241.5 91.5T993 455v129H668zm-17-922h-61v154h133v-174q0-70-43-112t-111-42h-20v72h10q92 0 92 82v20z"/><glyph glyph-name="Gdotaccent.ss02" d="M586 1772h153v-175H586v175zm82-1188v133h458V432q0-204-129.5-328T659-20q-185 0-312 95T161 333t-59 384q0 163 33.5 295.5t100 232T410 1399t249 55q214 0 329-132t124-349H969q-12 172-90.5 260T666 1321h-13q-198 0-302.5-156.5T246 717q0-295 106.5-449.5T653 113h13q156 0 241.5 91.5T993 455v129H668z"/><glyph glyph-name="R.ss03" d="M338 0H195v1434h442q190 0 314-112t124-275q0-141-67.5-238.5T836 682q79 0 119.5-38.5T1020 528L1188 0h-154L877 487q-22 68-55.5 92.5T715 604H338V0zm0 1300V737h278q140 0 228 75.5t88 203.5q0 135-87 209.5T616 1300H338z"/><glyph glyph-name="Racute.ss03" d="M702 1567H580l108 256h184zM338 0H195v1434h442q190 0 314-112t124-275q0-141-67.5-238.5T836 682q79 0 119.5-38.5T1020 528L1188 0h-154L877 487q-22 68-55.5 92.5T715 604H338V0zm0 1300V737h278q140 0 228 75.5t88 203.5q0 135-87 209.5T616 1300H338z"/><glyph glyph-name="Rcaron.ss03" d="m952 1823-235-256H532l-235 256h139l189-148 188 148h139zm68-1295L1188 0h-154L877 487q-22 68-55.5 92.5T715 604H338V0H195v1434h442q190 0 314-112t124-275q0-141-67.5-238.5T836 682q79 0 119.5-38.5T1020 528zM338 737h278q140 0 228 75.5t88 203.5q0 135-87 209.5T616 1300H338V737z"/><glyph glyph-name="uni0156.ss03" d="M338 0H195v1434h442q190 0 314-112t124-275q0-141-67.5-238.5T836 682q79 0 119.5-38.5T1020 528L1188 0h-154L877 487q-22 68-55.5 92.5T715 604H338V0zm0 1300V737h278q140 0 228 75.5t88 203.5q0 135-87 209.5T616 1300H338zM580-512h-21v72h10q93 0 93 82v20h-62v154h133v-174q0-70-42.5-112T580-512z"/><glyph glyph-name="a.ss01" d="M586-20q-202 0-329.5 144.5T129 512t127.5 387.5T586 1044q103 0 200-50.5T928 860v164h133V0H928v164Q883 81 786 30.5T586-20zm4 112h10q80 0 144 34.5t103.5 93 60 133.5T928 512t-20.5 159-60 133.5-103.5 93T600 932h-10q-80 0-144-34.5t-103.5-93-60-133.5T262 512t20.5-159 60-133.5 103.5-93T590 92z"/><glyph glyph-name="aacute.ss01" d="M666 1167H565l117 267h164zM586-20q-202 0-329.5 144.5T129 512t127.5 387.5T586 1044q103 0 200-50.5T928 860v164h133V0H928v164Q883 81 786 30.5T586-20zm4 112h10q80 0 144 34.5t103.5 93 60 133.5T928 512t-20.5 159-60 133.5-103.5 93T600 932h-10q-80 0-144-34.5t-103.5-93-60-133.5T262 512t20.5-159 60-133.5 103.5-93T590 92z"/><glyph glyph-name="abreve.ss01" d="M621 1147q-127 0-207 75.5T334 1434h102q7-90 56.5-136.5T621 1251t128 46.5 56 136.5h102q0-136-79.5-211.5T621 1147zM586-20q-202 0-329.5 144.5T129 512t127.5 387.5T586 1044q103 0 200-50.5T928 860v164h133V0H928v164Q883 81 786 30.5T586-20zm4 112h10q80 0 144 34.5t103.5 93 60 133.5T928 512t-20.5 159-60 133.5-103.5 93T600 932h-10q-80 0-144-34.5t-103.5-93-60-133.5T262 512t20.5-159 60-133.5 103.5-93T590 92z"/><glyph glyph-name="acircumflex.ss01" d="m825 1167-204 154-205-154H293l260 267h135l260-267H825zm103-307v164h133V0H928v164Q883 81 786 30.5T586-20q-202 0-329.5 144.5T129 512t127.5 387.5T586 1044q103 0 200-50.5T928 860zM590 92h10q80 0 144 34.5t103.5 93 60 133.5T928 512t-20.5 159-60 133.5-103.5 93T600 932h-10q-80 0-144-34.5t-103.5-93-60-133.5T262 512t20.5-159 60-133.5 103.5-93T590 92z"/><glyph glyph-name="adieresis.ss01" d="M518 1208H365v164h153v-164zm359 0H723v164h154v-164zM586-20q-202 0-329.5 144.5T129 512t127.5 387.5T586 1044q103 0 200-50.5T928 860v164h133V0H928v164Q883 81 786 30.5T586-20zm4 112h10q80 0 144 34.5t103.5 93 60 133.5T928 512t-20.5 159-60 133.5-103.5 93T600 932h-10q-80 0-144-34.5t-103.5-93-60-133.5T262 512t20.5-159 60-133.5 103.5-93T590 92z"/><glyph glyph-name="uni0227.ss01" d="M696 1208H543v174h153v-174zM586-20q-202 0-329.5 144.5T129 512t127.5 387.5T586 1044q103 0 200-50.5T928 860v164h133V0H928v164Q883 81 786 30.5T586-20zm4 112h10q80 0 144 34.5t103.5 93 60 133.5T928 512t-20.5 159-60 133.5-103.5 93T600 932h-10q-80 0-144-34.5t-103.5-93-60-133.5T262 512t20.5-159 60-133.5 103.5-93T590 92z"/><glyph glyph-name="agrave.ss01" d="M713 1167H612l-180 267h164zM586-20q-202 0-329.5 144.5T129 512t127.5 387.5T586 1044q103 0 200-50.5T928 860v164h133V0H928v164Q883 81 786 30.5T586-20zm4 112h10q80 0 144 34.5t103.5 93 60 133.5T928 512t-20.5 159-60 133.5-103.5 93T600 932h-10q-80 0-144-34.5t-103.5-93-60-133.5T262 512t20.5-159 60-133.5 103.5-93T590 92z"/><glyph glyph-name="amacron.ss01" d="M922 1208H358v113h564v-113zM586-20q-202 0-329.5 144.5T129 512t127.5 387.5T586 1044q103 0 200-50.5T928 860v164h133V0H928v164Q883 81 786 30.5T586-20zm4 112h10q80 0 144 34.5t103.5 93 60 133.5T928 512t-20.5 159-60 133.5-103.5 93T600 932h-10q-80 0-144-34.5t-103.5-93-60-133.5T262 512t20.5-159 60-133.5 103.5-93T590 92z"/><glyph glyph-name="aogonek.ss01" d="M1061 1024V0Q879-95 879-199q0-88 104-88h55v-112h-84q-93 0-148.5 44T750-225q0 139 178 235v154Q883 81 786 30.5T586-20q-202 0-329.5 144.5T129 512t127.5 387.5T586 1044q103 0 200-50.5T928 860v164h133zM590 92h10q80 0 144 34.5t103.5 93 60 133.5T928 512t-20.5 159-60 133.5-103.5 93T600 932h-10q-80 0-144-34.5t-103.5-93-60-133.5T262 512t20.5-159 60-133.5 103.5-93T590 92z"/><glyph glyph-name="aring.ss01" d="M621 1157q-69 0-120.5 49.5T449 1329t51.5 122.5T621 1501t120.5-49.5T793 1329t-51.5-122.5T621 1157zm2 82q37 0 62.5 26.5T711 1329t-25.5 63.5T623 1419t-64-26.5-27-63.5 27-63.5 64-26.5zM586-20q-202 0-329.5 144.5T129 512t127.5 387.5T586 1044q103 0 200-50.5T928 860v164h133V0H928v164Q883 81 786 30.5T586-20zm4 112h10q80 0 144 34.5t103.5 93 60 133.5T928 512t-20.5 159-60 133.5-103.5 93T600 932h-10q-80 0-144-34.5t-103.5-93-60-133.5T262 512t20.5-159 60-133.5 103.5-93T590 92z"/><glyph glyph-name="atilde.ss01" d="M780 1147q-40 0-74.5 17.5T621 1219l-17 12q-4 3-27 20.5t-34 24.5-32 15.5-40 8.5q-84 0-84-133H285v47q0 85 51 142t127 57q38 0 68-13t79-48l15-11 32-24 33-24 26-16 30.5-13.5 27.5-3.5q82 0 82 133h102v-47q0-85-51.5-142T780 1147zM586-20q-202 0-329.5 144.5T129 512t127.5 387.5T586 1044q103 0 200-50.5T928 860v164h133V0H928v164Q883 81 786 30.5T586-20zm4 112h10q80 0 144 34.5t103.5 93 60 133.5T928 512t-20.5 159-60 133.5-103.5 93T600 932h-10q-80 0-144-34.5t-103.5-93-60-133.5T262 512t20.5-159 60-133.5 103.5-93T590 92z"/><glyph glyph-name="i.loclTRK" d="M768 1208H584v205h184v-205zM1110 0H233v113h377v798H264v113h479V113h367V0z"/><glyph glyph-name="i.ss08" d="M768 1208H584v205h184v-205zM743 0H610v911H264v113h479V0z"/><glyph glyph-name="dotlessi.ss08" d="M264 1024h479V0H610v911H264v113z"/><glyph glyph-name="iacute.ss08" d="M737 1434h164l-180-267H621zM264 911v113h479V0H610v911H264z"/><glyph glyph-name="ibreve.ss08" d="M860 1434h103q0-136-80-211.5T676 1147t-207 75.5-80 211.5h103q7-90 56-136.5t128-46.5 128 46.5 56 136.5zM264 911v113h479V0H610v911H264z"/><glyph glyph-name="icircumflex.ss08" d="M608 1434h135l261-267H881l-205 154-205-154H348zM264 911v113h479V0H610v911H264z"/><glyph glyph-name="idieresis.ss08" d="M420 1372h153v-164H420v164zm358-164v164h154v-164H778zM264 911v113h479V0H610v911H264z"/><glyph glyph-name="i.loclTRK.ss08" d="M768 1208H584v205h184v-205zM743 0H610v911H264v113h479V0z"/><glyph glyph-name="igrave.ss08" d="m651 1434 117-267H668l-181 267h164zM264 911v113h479V0H610v911H264z"/><glyph glyph-name="imacron.ss08" d="M414 1208v113h563v-113H414zM264 911v113h479V0H610v911H264z"/><glyph glyph-name="iogonek.ss08" d="M584 1208v205h184v-205H584zm26-297H264v113h479V0Q561-95 561-199q0-88 105-88h55v-112h-84q-93 0-149 44t-56 130q0 139 178 235v901z"/><glyph glyph-name="itilde.ss08" d="M911 1393h103v-47q0-85-51.5-142T836 1147q-40 0-75.5 17.5T676 1219l-17 12q-4 3-27 20.5t-34 24.5-32 15.5-40 8.5q-84 0-84-133H340v47q0 85 51 142t127 57q38 0 68.5-13.5T666 1352l14-11 32-24 33-24 26-16 30.5-13.5 27.5-3.5q82 0 82 133zM264 911v113h479V0H610v911H264z"/><glyph glyph-name="r.ss08" d="M354 0H221v1024h133V852q41 78 130.5 135t215.5 57q154 0 254.5-86T1063 737H930q-10 77-70 134t-168 57h-2q-150 0-243-115.5T354 522V0z"/><glyph glyph-name="racute.ss08" d="M680 1167H580l116 267h164zM354 0H221v1024h133V852q41 78 130.5 135t215.5 57q154 0 254.5-86T1063 737H930q-10 77-70 134t-168 57h-2q-150 0-243-115.5T354 522V0z"/><glyph glyph-name="rcaron.ss08" d="m963 1434-261-267H567l-260 267h123l205-154 205 154h123zm-263-390q154 0 254.5-86T1063 737H930q-10 77-70 134t-168 57h-2q-150 0-243-115.5T354 522V0H221v1024h133V852q41 78 130.5 135t215.5 57z"/><glyph glyph-name="uni0157.ss08" d="M354 0H221v1024h133V852q41 78 130.5 135t215.5 57q154 0 254.5-86T1063 737H930q-10 77-70 134t-168 57h-2q-150 0-243-115.5T354 522V0zM203-512h-21v72h11q92 0 92 82v20h-62v154h133v-174q0-70-42.5-112T203-512z"/><glyph glyph-name="y.ss04" d="m637 215 334 809h139L641-115q-44-107-99.5-154.5T395-317H162v112h207q63 0 95 37.5T537-31l34 86-450 969h145z"/><glyph glyph-name="yacute.ss04" d="M676 1434h164l-181-267H559zM637 215l334 809h139L641-115q-44-107-99.5-154.5T395-317H162v112h207q63 0 95 37.5T537-31l34 86-450 969h145z"/><glyph glyph-name="ycircumflex.ss04" d="m819 1167-205 154-204-154H287l260 267h135l260-267H819zM637 215l334 809h139L641-115q-44-107-99.5-154.5T395-317H162v112h207q63 0 95 37.5T537-31l34 86-450 969h145z"/><glyph glyph-name="ydieresis.ss04" d="M358 1372h154v-164H358v164zm359 0h153v-164H717v164zM637 215l334 809h139L641-115q-44-107-99.5-154.5T395-317H162v112h207q63 0 95 37.5T537-31l34 86-450 969h145z"/><glyph glyph-name="ygrave.ss04" d="m590 1434 117-267H606l-180 267h164zm47-1219 334 809h139L641-115q-44-107-99.5-154.5T395-317H162v112h207q63 0 95 37.5T537-31l34 86-450 969h145z"/><glyph glyph-name="uni0233.ss04" d="M352 1321h563v-113H352v113zM637 215l334 809h139L641-115q-44-107-99.5-154.5T395-317H162v112h207q63 0 95 37.5T537-31l34 86-450 969h145z"/><glyph glyph-name="I_S_B_N" horiz-adv-x="3686" d="M3000 1454q258 0 390.5-143T3523 922V0h-144v901q0 199-94.5 309.5T3011 1321h-21q-159 0-313-123v154q147 102 323 102zm-659-727q98-6 179-100t81-232q0-180-117.5-287.5T2189 0h-391v133h361q135 0 217 68.5t82 195.5-81 194.5-216 67.5h-363v134h363q118 0 192 67t74 187-73.5 186.5T2161 1300H1149q-158 0-248-64.5T811 1055q0-103 60-156t178-78l176-37q407-85 407-374 0-184-137.5-297T1100 0H174v1434h143V133h813q169 0 253.5 68t84.5 188q0 111-72.5 171T1192 649l-176 39q-82 18-141 43t-108 65.5T693 899t-25 145q0 177 134.5 283.5T1159 1434h1026q166 0 275.5-101.5T2570 1059q0-119-67.5-212T2341 727z"/><glyph glyph-name="f_f_i.ss08" horiz-adv-x="3686" d="M623 0H489v911H143v113h346v225q0 98 47 141.5t148 43.5h524v-113H705q-46 0-64-18t-18-64v-215h1155v225q0 99 46.5 142t147.5 43h525v-113h-504q-46 0-64-18t-18-64v-215h1290V0h-133v911H1911V0h-133v911H623V0zm2603 1208h-185v205h185v-205z"/><glyph glyph-name="fi.ss08" horiz-adv-x="2457" d="M772 0H639v911H190v113h449v225q0 98 47 141.5t148 43.5h524v-113H854q-46 0-64-18t-18-64v-215h1227V0h-133v911H772V0zm1251 1208h-184v205h184v-205z"/><glyph glyph-name="a.sups" d="M547 840q-76 0-125 47t-49 127q0 84 48.5 130t129.5 56l184 21v18q0 51-34 82t-83 31h-6q-46 0-82-28.5t-36-76.5H381q4 93 72.5 145t164.5 52q95 0 162.5-56.5T848 1235V977q0-84 6-127H752q-11 60-11 102-21-55-73-83.5T547 840zm31 92h6q64 0 107 37.5t44 105.5v66l-151-17q-42-5-70.5-31.5T485 1022q0-43 26.5-66.5T578 932z"/><glyph glyph-name="a.sups.ss01" d="M582 840q-111 0-172.5 86.5T348 1143q0 129 64.5 215t177.5 86q65 0 114.5-30t65.5-64v84h109V850H770v82q-73-92-188-92zm32 92q72 0 112 58.5t40 152.5q0 93-40 151t-112 58-112.5-58-40.5-151 40.5-152T614 932z"/><glyph glyph-name="b.sups" d="M649 1444q113 0 178.5-85.5T893 1145q0-129-64.5-217T651 840q-116 0-178 98v-88H356v809h117v-307q24 43 73 67.5t103 24.5zm-24-512q71 0 111 59.5t40 153.5q0 93-39.5 150T625 1352t-111-57.5-39-151.5 39.5-152.5T625 932z"/><glyph glyph-name="c.sups" d="M621 840q-122 0-193.5 75.5T356 1135q0 145 74 227t195 82q96 0 167-55t78-148H752q-6 51-41 81t-82 30h-6q-75 0-112.5-62T473 1135q0-91 37-147t113-56h6q46 0 79 29t42 79h116q-10-96-79-148t-166-52z"/><glyph glyph-name="d.sups" d="M756 1350v309h116V850H756v86q-34-50-84-73t-101-23q-112 0-173.5 85.5T336 1141q0 128 65.5 215.5T580 1444q54 0 103-25.5t73-68.5zM604 932q72 0 111 57.5t39 151.5-39.5 152.5T604 1352q-72 0-111.5-58.5T453 1141q0-93 39.5-151T604 932z"/><glyph glyph-name="e.sups" d="M877 1141v-41H457q7-79 51-123.5T623 932h10q44 0 82 25.5t51 70.5h96q-12-92-78-140t-161-48q-123 0-197 81t-74 207q0 138 75 227t198 89q117 0 184.5-85t67.5-218zm-248 211h-11q-65 0-106.5-44T459 1188h311q-5 67-40 115.5T629 1352z"/><glyph glyph-name="f.sups" d="M633 850H516v496H406v88h110v73q0 68 38.5 110t107.5 42h159v-84H700q-37 0-52-17.5t-15-58.5v-65h143v-88H633V850z"/><glyph glyph-name="g.sups" d="M756 1366v68h110V844q0-114-66-177t-206-63q-113 0-178 49.5T346 791h113q14-48 45.5-71.5T598 696h6q74 0 113 37.5T756 860v76q-21-37-68.5-66.5T573 840q-106 0-169.5 88T340 1143q0 129 64.5 215t179.5 86q51 0 97-20.5t75-57.5zM606 932q72 0 112 58.5t40 152.5q0 93-40 151t-112 58q-73 0-114-58t-41-151q0-94 41-152.5T606 932z"/><glyph glyph-name="h.sups" d="M668 1444q94 0 146-61.5t52-159.5V850H750v352q0 70-32.5 110t-84.5 40h-12q-59 0-101.5-53T477 1171V850H360v809h117v-316q66 101 191 101z"/><glyph glyph-name="i.sups" d="M676 1530H551v129h125v-129zm-6-680H557v584h113V850z"/><glyph glyph-name="j.sups" d="M698 1530H573v129h125v-129zM545 614H406v97h110q35 0 49.5 15t14.5 52v656h112V762q0-65-38.5-106.5T545 614z"/><glyph glyph-name="k.sups" d="M874 850H739l-176 270-98-106V850H352v809h113v-504l248 279h145l-221-236z"/><glyph glyph-name="l.sups" d="M670 850H557v809h113V850z"/><glyph glyph-name="m.sups" d="M852 1444q96 0 146.5-62.5T1049 1212V850H932v352q0 72-28.5 111t-82.5 39h-6q-60 0-101.5-54.5T672 1171V850H555v352q0 72-28.5 111t-82.5 39h-6q-65 0-104-53.5T295 1167V850H178v584h117v-95q18 43 67.5 74t110.5 31q135 0 180-121 65 121 199 121z"/><glyph glyph-name="n.sups" d="M670 1444q93 0 144.5-61.5T866 1223V850H750v352q0 72-31.5 111t-85.5 39h-12q-59 0-101.5-53T477 1171V850H360v584h117v-91q67 101 193 101z"/><glyph glyph-name="o.sups" d="M614 840q-123 0-195.5 81.5T346 1141t72.5 220.5T614 1444t196-82.5 73-220.5-73-219.5T614 840zm2 92q72 0 111 57t39 152q0 94-40.5 152.5T614 1352t-111-58.5-40-152.5 41-151.5T616 932z"/><glyph glyph-name="p.sups" d="M657 1444q112 0 174-86.5t62-216.5q0-128-65.5-214.5T649 840q-55 0-103.5 23.5T473 930V625H356v809h117v-88q65 98 184 98zm-32-512q72 0 111.5 58t39.5 151q0 94-39.5 152.5T625 1352q-71 0-110.5-60.5T475 1137q0-93 39-149t111-56z"/><glyph glyph-name="q.sups" d="M756 1350v84h116V625H756v305q-24-43-72.5-66.5T580 840q-113 0-178.5 85.5T336 1139q0 131 64 218t184 87q43 0 94.5-25t77.5-69zM604 932q72 0 111 56t39 149q0 94-39.5 154.5T604 1352t-111-59.5-40-153.5q0-93 39.5-150T604 932z"/><glyph glyph-name="r.sups" d="M756 1444h16v-105h-33q-88 0-129-60.5T569 1126V850H457v584h112v-117q22 60 71 93.5t116 33.5z"/><glyph glyph-name="s.sups" d="M616 840q-117 0-181 52.5T371 1040h112q0-51 34-79.5t95-28.5h13q53 0 86.5 19.5T745 1008q0 59-94 79l-98 21q-81 16-124.5 52.5T385 1266q0 83 62.5 130.5T616 1444t169-53 63-144H735q0 49-33 77t-84 28h-12q-51 0-80.5-20t-29.5-54q0-32 21-47t81-27l82-16q87-17 131.5-61t44.5-109q0-84-65.5-131T616 840z"/><glyph glyph-name="t.sups" d="M813 850H674q-71 0-109.5 40T526 993v353H414v88h112v184h115v-184h160v-88H641v-324q0-40 17.5-60t62.5-20h92v-92z"/><glyph glyph-name="u.sups" d="M559 840q-93 0-143.5 61T365 1061v373h116v-353q0-70 31-109.5t80-39.5h12q59 0 101.5 52.5T748 1112v322h116V850H748v102q-17-45-67-78.5T559 840z"/><glyph glyph-name="v.sups" d="m616 977 170 457h111L676 850H553l-221 584h114z"/><glyph glyph-name="w.sups" d="m801 985 135 449h106L858 850H756l-140 459-133-459H381l-197 584h115l131-437 133 437h117z"/><glyph glyph-name="x.sups" d="M469 850H342l211 291-207 293h129l141-205 144 205h125l-209-289 211-295H756l-142 205z"/><glyph glyph-name="y.sups" d="m610 1014 187 420h121L668 901V758q0-62-40.5-103T520 614H367v97h122q62 0 62 63v127l-240 533h121z"/><glyph glyph-name="y.sups.ss04" d="m614 1018 183 416h121L616 762q-21-45-31-64.5t-29-43-42-32-57-8.5H328v97h102q28 0 44.5 15t35.5 56l47 107-246 545h121z"/><glyph glyph-name="z.sups" d="M827 1354 524 946h324v-96H381v63l309 428H387v93h440v-80z"/><glyph glyph-name="zero.zero" d="M614-20q-250 0-391 190.5T82 717t141 546.5T614 1454t391.5-190.5T1147 717t-141.5-546.5T614-20zm-10 133h21q55 0 105.5 16.5t102.5 60T922.5 299 984 472.5t24 244.5-24 244.5-61.5 173.5-89.5 109.5-102.5 60T625 1321h-21q-55 0-105.5-16.5t-102.5-60-89.5-109.5T245 961.5 221 717t24-244.5T306.5 299 396 189.5t102.5-60T604 113z"/><glyph glyph-name="zero.osf" d="M596 1055q141 0 260-66t190.5-189.5T1118 522t-71.5-277T856 56 596-10 336 56 145.5 245 74 522t71.5 277.5T336 989t260 66zM207 522q0-154 86-268l553 596q-106 92-240 92h-20q-70 0-137-28.5T327.5 833 240 700t-33-178zm385-420h14q70 0 137 28.5T864.5 211 952 344t33 178q0 135-61 234L379 172q103-70 213-70z"/><glyph glyph-name="one.osf" d="m309 655 377 369h102V0H659v834L309 498v157z"/><glyph glyph-name="two.osf" d="M788 442 381 119h569V0H256v166l451 362q80 64 105.5 113T838 748q0 76-60.5 130T637 932h-19q-96 0-157.5-53.5T389 709H256q7 162 108 248.5t265 86.5q149 0 245.5-85.5T971 748q0-88-43-159T788 442z"/><glyph glyph-name="three.osf" d="M842 313q108-32 178-122.5T1090-29q0-124-63-216T858-383.5 618-430q-203 0-333 100.5T137-45h133q17-129 108-200.5T606-317h21q138 0 233.5 77T956-29q0 125-87 203t-220 78H537v113h112q134 0 215.5 76T946 641q0 135-90.5 213T629 932h-21q-129 0-214-76.5T297 655H164q9 172 137 280.5T621 1044q129 0 232-46t164.5-136.5T1079 651q0-123-65.5-211.5T842 313z"/><glyph glyph-name="four.osf" d="M913 1024V113h236V0H913v-410H784V0H94v145l668 879h151zM784 862 219 113h565v749z"/><glyph glyph-name="five.osf" d="M641 487q196 0 316-124t120-312q0-212-137.5-346.5T596-430q-197 0-331 101T111-41h135q18-131 112-203.5T586-317h20q149 0 243.5 101.5T944 41q0 147-87 240.5T631 375h-21q-95 0-175.5-49T295 184H162l174 840h727V905H442L324 348q117 139 317 139z"/><glyph glyph-name="six.osf" d="M688 942q196 0 320.5-132.5T1133 477q0-225-136.5-361T657-20q-250 0-384 176T139 680q0 226 71 402.5t199.5 274T702 1454q184 0 304.5-94t152.5-264h-133q-25 109-113 177t-202 68h-21q-180 0-300-181T260 688q59 126 175 190t253 64zM649 92h21q146 0 237.5 101.5T999 461t-86.5 267T682 829h-20q-162 0-260.5-100.5T303 463q0-169 93-270T649 92z"/><glyph glyph-name="seven.osf" d="M139 905v119h953V891Q805 717 670 418.5T535-369v-41H401v60q0 913 525 1255H139z"/><glyph glyph-name="eight.osf" d="M848 702q89-46 141.5-133.5T1042 379q0-184-118-291.5T614-20Q423-20 304.5 88T186 379q0 100 53 188.5T381 702q-109 46-166 138.5T158 1049q0 180 126.5 292.5T614 1454t330-112.5 127-292.5q0-116-56.5-207.5T848 702zm-555 345q0-125 86.5-203T604 766h21q138 0 224.5 78t86.5 203q0 134-86 214t-225 80h-21q-139 0-225-80t-86-214zM604 92h21q126 0 205 79t79 206q0 121-78.5 193.5T625 643h-21q-127 0-206-72.5T319 377q0-127 79.5-206T604 92z"/><glyph glyph-name="nine.osf" d="M567 1044q250 0 384-176t134-524q0-226-71-402.5t-199.5-274T522-430q-183 0-303.5 94T66-72h133q25-109 113-177t202-68h21q180 0 300 181t130 472q-59-126-175-190T537 82q-196 0-320.5 132.5T92 547q0 225 136 361t339 136zm-24-849h20q162 0 260.5 100.5T922 561q0 168-93.5 269.5T575 932h-20q-146 0-238-101.5T225 563t87-267 231-101z"/><glyph glyph-name="zero.osf.zero" d="M614-20q-141 0-260 66T163.5 235 92 512t71.5 277T354 978t260 66 260-66 191-189 72-277-72-277T874 46 614-20zm-4 112h15q70 0 137 28.5T883.5 201 971 334t33 178-33 178-87.5 133T762 903.5 625 932h-21q-70 0-137-28.5T345.5 823 258 690t-33-178 34-178 89.5-133T472 120.5 610 92z"/><glyph glyph-name="zero.subs" d="M614 584q154 0 243-113.5T946 168t-89-301.5T614-246 371.5-133.5 283 168t88.5 302.5T614 584zm4-103h-8q-66 0-113.5-47t-68-116T408 168q0-66 14-121l334 361q-54 73-138 73zm-8-624h8q66 0 113.5 46.5t68.5 115T821 168q0 71-18 139L465-59q54-84 145-84z"/><glyph glyph-name="one.subs" d="M731-236H614v656L375 227v121l278 225h78v-809z"/><glyph glyph-name="two.subs" d="M887-236H342v140l258 225q97 85 125.5 123.5T754 348q0 59-38 96t-95 37h-11q-51 0-95-38.5T471 340H346q0 110 80 177t192 67q114 0 187.5-63T879 348q0-36-10.5-69t-22-55-38.5-51.5-41.5-42.5T717 86L465-133h422v-103z"/><glyph glyph-name="three.subs" d="M610-246q-114 0-194 62.5T336-12h125q3-60 42-95.5T604-143h10q67 0 111.5 38T770-2q0 60-39 93.5T633 125h-90v96h94q58 0 92.5 32.5T764 346q0 66-38.5 100.5T621 481h-11q-61 0-97.5-33.5T473 358H348q0 107 79.5 166.5T621 584q113 0 190.5-60T889 358q0-63-30.5-112T776 172q57-23 88-72t31-114q0-105-85.5-168.5T610-246z"/><glyph glyph-name="four.subs" d="M805-236H690v197H311V76l367 497h127V63h110V-39H805v-197zM690 424 430 63h260v361z"/><glyph glyph-name="five.subs" d="M616-246q-124 0-199.5 58.5T332-18h125q7-61 51-93t106-32h9q65 0 107 45.5T772 20q0 71-40.5 110.5T625 170h-7q-88 0-145-70H365l92 473h428V471H547l-53-256q60 57 151 57 114 0 183-69t69-178q0-123-80.5-197T616-246z"/><glyph glyph-name="six.subs" d="M610-246q-139 0-218 103.5T313 145q0 199 94 319t236 120q129 0 200.5-69T915 358H795q-11 55-50.5 88T647 479h-12q-82 0-141.5-77T424 193q25 51 84.5 82.5T643 307q107 0 183.5-72.5T903 43q0-126-79-207.5T610-246zm0 103h6q71 0 118.5 49.5T782 31q0 76-45 125t-116 49h-7q-71 0-117-49T451 31t44.5-125T610-143z"/><glyph glyph-name="seven.subs" d="M604-236H479v74q0 117 24 219.5t66.5 180 94 134.5T776 471H342v102h545V465Q604 230 604-162v-74z"/><glyph glyph-name="eight.subs" d="M608-246q-113 0-191.5 57.5T338-29q0 66 37 114.5T475 162q-66 28-107.5 79T326 358q0 105 79.5 165.5T612 584q128 0 208.5-60.5T901 358q0-67-41-118t-108-78q60-28 94.5-76.5T881-29q0-102-80-159.5T608-246zm-4 465h10q66 0 114 34t48 95q0 63-45.5 98T618 481h-10q-67 0-112-35t-45-98q0-61 45-95t108-34zm0-362h10q60 0 101 35.5T756-10q0 58-41.5 94.5T614 121h-10q-59 0-100-36.5T463-10q0-62 40.5-97.5T604-143z"/><glyph glyph-name="nine.subs" d="M618 584q139 0 218-103.5T915 193q0-199-93.5-319T586-246q-129 0-201 69T313-20h121q11-55 50.5-88t97.5-33h12q82 0 141.5 77T805 145q-25-51-84.5-82.5T586 31q-107 0-183.5 72.5T326 295q0 126 78.5 207.5T618 584zm0-103h-6q-71 0-118.5-49.5T446 307q0-76 45.5-125T608 133h6q71 0 117.5 49T778 307q0 75-45 124.5T618 481z"/><glyph glyph-name="zero.subs.zero" d="M614-246q-154 0-242.5 112.5T283 168t88.5 302.5T614 584t243-113.5T946 168t-89-301.5T614-246zm-4 103h8q66 0 113.5 46.5t68.5 115T821 168t-21 150-68.5 116T618 481h-8q-66 0-113.5-47t-68-116T408 168t20.5-149.5 68-115T610-143z"/><glyph glyph-name="zero.dnom" d="M612 614q122 0 192-85t70-226-70-226T612-8Q492-8 422 77t-70 226 70 226 190 85zm4-102h-6q-66 0-102.5-62T471 303q0-41 8-72l223 240q-30 41-86 41zm-6-420h6q66 0 103 63.5T756 303q0 34-6 64L528 127q35-35 82-35z"/><glyph glyph-name="one.dnom" d="M700 0H586v453L410 305v133l202 168h88V0z"/><glyph glyph-name="two.dnom" d="M831 0H397v127l205 178q3 2 26 22t30.5 28.5 23 25.5 21 31 4.5 28q-1 32-26.5 50T616 508h-6q-38 0-63.5-22.5T518 422H399q4 88 65.5 140T618 614q87 0 147-48t60-128q0-32-10.5-60t-37-57-41.5-43-54-47L530 106h301V0z"/><glyph glyph-name="three.dnom" d="M608-8q-90 0-153.5 50T391 176h119q-1-37 26-60.5T604 92h8q44 0 74.5 22t30.5 60q0 37-25.5 58.5T627 254h-60v106h62q36 0 60 21t24 55-28 55-69 21h-8q-38 0-64-21t-26-55H401q0 84 61.5 131T616 614q90 0 151.5-44.5T829 444q0-47-26.5-83.5T731 307q105-54 105-145 0-82-66.5-126T608-8z"/><glyph glyph-name="four.dnom" d="M762 0H647v133H360v100l279 373h123V233h86V133h-86V0zM647 469 473 233h174v236z"/><glyph glyph-name="five.dnom" d="M604-8q-89 0-152 46t-75 130h125q4-37 32-56.5T602 92h6q46 0 76.5 28.5T715 193q0 39-29 63.5T616 281h-6q-42 0-90-37H408l69 362h350V506H565l-35-170q55 45 123 45 76 0 127-53t51-131q0-93-64.5-149T604-8z"/><glyph glyph-name="six.dnom" d="M612-8Q505-8 441 70t-64 215q0 151 75 240t199 89q97 0 149-51t52-121H737q-6 32-29.5 51T649 512h-8q-60 0-105.5-52T483 322q19 37 63.5 61.5T643 408q84 0 142.5-57T844 203q0-87-63-149T612-8zm0 100h4q49 0 81 30.5t32 76.5q0 45-31 75.5T618 305h-4q-43 0-76.5-30T504 199q0-45 31.5-76T612 92z"/><glyph glyph-name="seven.dnom" d="M618 0H502v55q0 95 20 173t55.5 131.5 66 85.5 69.5 61H401v100h426V500Q618 324 618 55V0z"/><glyph glyph-name="eight.dnom" d="M612-8q-90 0-151.5 42.5T399 156q0 96 113 141-125 48-125 147 0 80 62.5 125T612 614t164-45 64-125q0-96-117-147 46-20 75-56.5t29-84.5q0-79-62-121.5T612-8zm-2 368h8q43 0 75 20.5t32 57.5q0 35-31 54.5T616 512h-6q-47 0-77.5-19.5T502 438q0-38 31.5-58t76.5-20zm0-268h8q40 0 67.5 20.5T713 168q0 36-27.5 58T618 248h-8q-40 0-68-22t-28-58q0-35 28-55.5T610 92z"/><glyph glyph-name="nine.dnom" d="M623 612q107 0 170-78t63-215q0-151-75-240T582-10q-97 0-149 51t-52 121h115q8-33 31.5-52.5T584 90h10q60 0 105 53.5T750 283q-19-37-63.5-61.5T590 197q-82 0-140.5 56.5T391 401q0 88 62 149.5T623 612zm0-100h-7q-47 0-78.5-30T506 406q0-45 30.5-76t77.5-31h4q44 0 77.5 30.5T729 406q0 45-31.5 75.5T623 512z"/><glyph glyph-name="zero.dnom.zero" d="M612-12q-120 0-190 85t-70 226 70 226 190 85q122 0 192-85t70-226-70-226-192-85zm-2 100h6q66 0 103 63.5T756 299q0 85-37 147t-103 62h-6q-66 0-102.5-62T471 299q0-84 36.5-147.5T610 88z"/><glyph glyph-name="zero.numr" d="M612 1442q122 0 192-85.5t70-226.5-70-226-192-85q-120 0-190 85t-70 226 70 226.5 190 85.5zm4-103h-6q-66 0-102.5-62T471 1130q0-40 8-71l223 239q-30 41-86 41zm-6-419h6q66 0 103 63t37 147q0 34-6 64L528 954q34-34 82-34z"/><glyph glyph-name="one.numr" d="M700 827H586v453l-176-147v133l202 168h88V827z"/><glyph glyph-name="two.numr" d="M831 827H397v127l205 179q3 2 26 22t30.5 28.5 23 25.5 21 31 4.5 28q-1 32-26.5 49.5T616 1335h-6q-38 0-63.5-22.5T518 1249H399q4 88 65.5 140.5T618 1442q87 0 147-48t60-128q0-32-10.5-60t-37-57-41.5-43-54-47L530 934h301V827z"/><glyph glyph-name="three.numr" d="M608 819q-90 0-153.5 50T391 1004h119q-1-37 26-60.5t68-23.5h8q44 0 74.5 21.5T717 1001q0 37-25.5 58.5T627 1081h-60v107h62q36 0 60 21t24 55-28 54.5-69 20.5h-8q-38 0-64-20.5t-26-54.5H401q0 84 61.5 131t153.5 47q90 0 151.5-44.5T829 1272q0-47-26.5-83.5T731 1135q105-54 105-146 0-82-66.5-126T608 819z"/><glyph glyph-name="four.numr" d="M762 827H647v134H360v100l279 373h123v-373h86V961h-86V827zm-115 469-174-235h174v235z"/><glyph glyph-name="five.numr" d="M604 819q-89 0-152 46t-75 130h125q4-37 32-56t68-19h6q46 0 76.5 28t30.5 72q0 39-29 63.5t-70 24.5h-6q-42 0-90-37H408l69 363h350v-101H565l-35-170q55 45 123 45 76 0 127-53t51-131q0-93-64.5-149T604 819z"/><glyph glyph-name="six.numr" d="M612 819q-107 0-171 78t-64 215q0 151 75 240.5t199 89.5q97 0 149-51t52-121H737q-6 32-29.5 50.5T649 1339h-8q-60 0-105.5-52T483 1149q19 37 63.5 61.5T643 1235q84 0 142.5-57t58.5-148q0-87-63-149t-169-62zm0 101h4q49 0 81 30t32 76q0 45-31 76t-80 31h-4q-43 0-76.5-30.5T504 1026q0-45 31.5-75.5T612 920z"/><glyph glyph-name="seven.numr" d="M618 827H502v56q0 77 14.5 144t35 112 51.5 85.5 55.5 63T713 1333H401v101h426v-107q-209-176-209-444v-56z"/><glyph glyph-name="eight.numr" d="M612 819q-90 0-151.5 42.5T399 983q0 96 113 141-56 22-90.5 59.5T387 1272q0 80 62.5 125t162.5 45 164-45 64-125q0-97-117-148 46-20 75-56.5t29-84.5q0-79-62-121.5T612 819zm-2 369h8q43 0 75 20.5t32 57.5q0 35-31 54t-78 19h-6q-47 0-77.5-19t-30.5-54q0-38 31.5-58t76.5-20zm0-268h8q40 0 67.5 20t27.5 55q0 36-27.5 58t-67.5 22h-8q-40 0-68-22t-28-58q0-35 28-55t68-20z"/><glyph glyph-name="nine.numr" d="M623 1440q107 0 170-78t63-215q0-151-75-240.5T582 817q-97 0-149 51t-52 121h115q8-33 31.5-52t56.5-19h10q60 0 105 53t51 139q-19-37-63.5-61.5T590 1024q-82 0-140.5 57T391 1229q0 88 62 149.5t170 61.5zm0-101h-7q-47 0-78.5-30t-31.5-76q0-45 30.5-76t77.5-31h4q44 0 77.5 30.5T729 1233q0 45-31.5 75.5T623 1339z"/><glyph glyph-name="zero.numr.zero" d="M612 819q-120 0-190 85t-70 226 70 226.5 190 85.5q122 0 192-85.5t70-226.5-70-226-192-85zm-2 101h6q66 0 103 63t37 147q0 85-37 147t-103 62h-6q-66 0-102.5-62T471 1130q0-84 36.5-147T610 920z"/><glyph glyph-name="uni2070.zero" d="M614 840q-154 0-242.5 112T283 1253t88.5 302.5T614 1669t243-113.5 89-302.5-89-301-243-112zm-4 102h8q66 0 113.5 46.5t68.5 115 21 149.5-21 150-68.5 116.5T618 1567h-8q-66 0-113.5-47.5t-68-116.5-20.5-150 20.5-149.5 68-115T610 942z"/><glyph glyph-name="exclamdown.case" d="M539 1260v174h153v-174H539zm6-830 41 584h61l41-584V0H545v430z"/><glyph glyph-name="questiondown.case" d="M637 1434h154v-174H637v174zm4-420h133V754q0-92-36-128t-128-36h-41q-109 0-167-67.5T344 356q0-97 64-160t182-63h391V0H561Q407 0 306 100T205 354q0 164 99 266.5T545 723h26q40 0 55 15t15 55v221z"/><glyph glyph-name="question.ss06" d="M616 420H477v184q0 125 113 166l69 25q59 21 99 41.5t79 52.5 58.5 78.5T915 1075q0 105-74 175.5T635 1321q-125 0-203-64.5T344 1075H205q5 119 64 206t153.5 130 212.5 43q177 0 298.5-106t121.5-273q0-136-69.5-228.5T819 719l-67-25q-87-32-111.5-55T616 569V420zm7-420H469v174h154V0z"/><glyph glyph-name="questiondown.ss06" d="M627 1024h153V850H627v174zm6-420h139V420q0-125-113-166l-69-25q-59-21-99-41.5T412 135t-58.5-78.5T334-51q0-105 74-175.5T614-297q125 0 203 64.5T905-51h139q-5-119-64-206T826.5-387 614-430q-177 0-298 106T195-51q0 136 69 229t166 127l68 25q87 31 111 54.5t24 70.5v149z"/><glyph glyph-name="questiondown.ss06.case" d="M606 1434h154v-174H606v174zm6-420h140V829q0-61-26-102t-87-63l-70-25q-59-21-99-41.5t-79-53-58.5-79T313 358q0-105 74-175t207-70q125 0 203 64t88 181h139q-5-119-64-205.5T806.5 23 594-20Q417-20 295.5 85.5T174 358q0 136 69.5 229.5T410 715l67 24q87 31 111 54.5t24 70.5v150z"/><glyph glyph-name="edgeleft" d="M963-297H778q-110 0-188 72T512-41q0 95 74 174-166 36-166 234v700q0 197 166 233-74 79-74 175 0 112 78 184t188 72h185v-113H793q-67 0-107.5-37.5T645 1483v-17q0-60 40.5-97.5T793 1331h36v-112h-98q-178 0-178-181V395q0-180 178-180h98V102h-36q-67 0-107.5-37.5T645-33v-16q0-60 40.5-97.5T793-184h170v-113z"/><glyph glyph-name="edgeright" d="M451-297H266v113h170q67 0 107.5 37.5T584-49v16q0 60-40.5 97.5T436 102h-37v113h99q178 0 178 180v643q0 181-178 181h-99v112h37q67 0 107.5 37.5T584 1466v17q0 60-40.5 97.5T436 1618H266v113h185q110 0 188-72t78-184q0-96-74-175 166-36 166-233V367q0-198-166-234 74-79 74-174 0-112-78-184t-188-72z"/><glyph glyph-name="parenleft.case" d="M860 113V-20Q643 10 506 210T369 717t137 507 354 230v-133q-161-29-254.5-192T512 717t93.5-411T860 113z"/><glyph glyph-name="parenright.case" d="M369 1321v133q217-30 354-230t137-507-137-507T369-20v133q161 29 254.5 192T717 717t-93.5 411T369 1321z"/><glyph glyph-name="braceleft.case" d="M891 0H758Q632 0 577 76.5T522 317v123q0 78-20.5 105.5T420 573h-51v287h51q61 0 81.5 27.5T522 993v123q0 164 55 241t181 77h133v-134h-82q-87 0-115-32.5T666 1147V911q0-174-164-174v-41q164 0 164-174V287q0-88 28.5-121T809 133h82V0z"/><glyph glyph-name="braceright.case" d="M338 1434h133q126 0 181-77t55-241V993q0-78 20.5-105.5T809 860h51V573h-51q-61 0-81.5-27.5T707 440V317q0-164-55-240.5T471 0H338v133h82q86 0 114.5 33T563 287v235q0 174 164 174v41q-164 0-164 174v236q0 88-28 120.5T420 1300h-82v134z"/><glyph glyph-name="bracketleft.case" d="M829 0H461v1434h368v-134H604V133h225V0z"/><glyph glyph-name="bracketright.case" d="M399 1434h369V0H399v133h226v1167H399v134z"/><glyph glyph-name="edgeleft.case" d="M854 0H680Q565 0 491.5 72.5T418 262q0 52 21 99.5t59 74.5q-80 34-125 111t-45 170 45 169 125 111q-38 27-59 74.5t-21 99.5q0 118 73.5 190.5T680 1434h174v-144H690q-59 0-99-32t-40-82v-17q0-55 40-90t99-35h41V891h-82q-82 0-135-47t-53-117v-20q0-70 53-117t135-47h82V399h-41q-59 0-99-35t-40-90v-16q0-50 40-82.5t99-32.5h164V0z"/><glyph glyph-name="edgeright.case" d="M549 0H375v143h164q59 0 99 32.5t40 82.5v16q0 55-40 90t-99 35h-41v144h82q82 0 135 47t53 117v20q0 70-53 117t-135 47h-82v143h41q59 0 99 35t40 90v17q0 50-40 82t-99 32H375v144h174q115 0 188.5-72.5T811 1171q0-52-21-99.5T731 997q80-35 125-111t45-169-45-170-125-111q38-27 59-74.5t21-99.5q0-117-73.5-189.5T549 0z"/><glyph glyph-name="hyphen.case" d="M870 662H358v112h512V662z"/><glyph glyph-name="uni00AD.case" d="M870 662H358v112h512V662z"/><glyph glyph-name="endash.case" d="M1014 651H215v113h799V651z"/><glyph glyph-name="emdash.case" d="M1188 651H41v113h1147V651z"/><glyph glyph-name="uni2015.case" d="M1188 651H41v113h1147V651z"/><glyph glyph-name="guillemotleft.case" d="M492 1157h161L358 719l299-443H492L195 717zm540 0L737 719l299-443H870L573 717l297 440h162z"/><glyph glyph-name="guillemotright.case" d="M193 1157h165l297-440-297-441H197l295 439zm378 0h166l297-440-297-441H575l295 439z"/><glyph glyph-name="guilsinglleft.case" d="M838 1157 543 719l299-443H676L379 717l297 440h162z"/><glyph glyph-name="guilsinglright.case" d="M383 1157h166l297-440-297-441H387l295 439z"/><glyph glyph-name="plus.case" d="M682 221H549v436H109v123h440v434h133V780h440V657H682V221z"/><glyph glyph-name="minus.case" d="M1120 651H109v133h1011V651z"/><glyph glyph-name="multiply.case" d="M614 623 283 291l-97 96 332 332-332 330 97 96 331-330 330 330 96-96-329-330 329-332-96-96z"/><glyph glyph-name="divide.case" d="M690 969H537v174h153V969zm430-318H109v133h1011V651zM690 293H537v174h153V293z"/><glyph glyph-name="equal.case" d="M1120 836H109v133h1011V836zm0-371H109v133h1011V465z"/><glyph glyph-name="notequal.case" d="M1120 969V836H725l-74-238h469V465H610l-75-244H389l76 244H109v133h397l74 238H109v133h512l75 245h146l-76-245h354z"/><glyph glyph-name="greater.case" d="M184 999v136l871-363V657L184 295v129l717 289z"/><glyph glyph-name="less.case" d="m174 772 870 363v-129L328 719l716-289V295L174 657v115z"/><glyph glyph-name="greaterequal.case" d="M109 1083v152l1011-311V768L109 457v147l864 240zm1011-841H109v133h1011V242z"/><glyph glyph-name="lessequal.case" d="m109 924 1011 311v-148L256 848l864-240V457L109 768v156zm1011-682H109v133h1011V242z"/><glyph glyph-name="plusminus.case" d="M680 1214V918h440V784H680V498H549v286H109v134h440v296h131zm440-1024H109v134h1011V190z"/><glyph glyph-name="approxequal.case" d="M850 760q-58 0-154 41.5t-182 83T395 926q-129 0-129-146H133v51q0 102 66.5 169t179.5 67q58 0 154-41.5t182-83T834 901q72 0 100.5 35.5T963 1036h133v-51q0-103-63-164t-183-61zm0-389q-58 0-154 41.5t-182 83T395 537q-129 0-129-146H133v51q0 102 66.5 169T379 678q58 0 154-41.5t182-83T834 512q72 0 100.5 35.5T963 647h133v-51q0-103-63-164t-183-61z"/><glyph glyph-name="logicalnot.case" d="M1061 457H922v297H150v133h911V457z"/><glyph glyph-name="at.ss07" d="M983-256H758q-359 0-536 222.5T45 635q0 407 164 633.5T647 1495q181 0 308.5-95.5t190-267.5 62.5-407q0-294-57.5-412T938 195H799v116q-23-64-74.5-100.5T608 174q-132 0-207 121.5T326 614q0 186 74.5 308T610 1044q128 0 189-122v102h123V303h28q51 0 78 30t42 123 15 269q0 308-107.5 482.5T647 1382q-233 0-356-196T168 635q0-399 145-588.5T780-143h203v-113zM623 283h8q79 0 123.5 90T799 614q0 154-46.5 238T631 936h-8q-82 0-127-93t-45-229q0-142 45-236.5T623 283z"/><glyph glyph-name="at.case" d="M1120-195H895q-396 0-602.5 233T86 696q0 258 62 449t192.5 301T659 1556q213 0 337-130.5t124-327.5V256H987v131q-41-73-99-112t-147-39q-161 0-249.5 123.5T403 674q0 190 89.5 311T741 1106q92 0 148-38.5T987 961v112q0 160-84.5 265.5T668 1444h-21q-139 0-237.5-98.5t-144.5-264T219 700q0-384 167.5-583T895-82h225v-113zM762 348h10q101 0 158 91.5T987 674q0 139-57 229t-158 90h-10q-108 0-166.5-90.5T537 676q0-145 57.5-236.5T762 348z"/><glyph glyph-name="at.ss07.case" d="M983-195H758q-359 0-536 222.5T45 696q0 407 164 633.5T647 1556q181 0 308.5-95.5t190-267.5 62.5-407q0-294-57.5-412T938 256H799v117q-23-64-74.5-100.5T608 236q-132 0-207 121.5T326 676q0 186 74.5 308T610 1106q128 0 189-123v102h123V365h28q51 0 78 30t42 122.5 15 268.5q0 150-25.5 269T982 1262t-136.5 135-198.5 47q-233 0-356-196.5T168 696q0-399 145-588.5T780-82h203v-113zM623 344h8q79 0 123.5 90.5T799 676q0 153-46.5 237T631 997h-8q-82 0-127-92.5T451 676q0-142 45-237t127-95z"/><glyph glyph-name="ampersand.ss05" d="M997 231 1188 0h-168L911 131Q760-20 541-20q-207 0-322 97.5T104 330q0 225 232 370l67 43q-44 54-72 92t-59.5 90.5-47 104T209 1133q0 139 99 230t237 91q149 0 240.5-97t91.5-251q0-110-54.5-193T655 754l-57-39 315-381q56 114 56 362v92h133v-96q0-301-105-461zM502 831l14-16 53 33q82 51 125 111t43 149-53 151-141 62q-90 0-142.5-56.5T348 1128q0-51 22.5-103.5t46.5-86 71-90.5q9-11 14-17zm24-718q110 0 178.5 27T831 227L487 643l-41-27q-69-46-108-81.5t-64.5-86T248 336q0-98 79.5-160.5T526 113z"/><glyph glyph-name="copyright.alt" d="M614 573q-127 0-235.5 63.5t-172 172T143 1044q0 128 63.5 236.5t172 172T614 1516q128 0 236.5-63.5t171.5-172 63-236.5q0-127-63-235.5t-171.5-172T614 573zm0 78q161 0 274 115t113 278q0 164-113 279t-274 115q-160 0-273.5-115T227 1044q0-163 113.5-278T614 651zm7 137q-97 0-156 65.5T406 1044q0 124 59 190t156 66q85 0 136.5-46.5T815 1135h-92q-7 41-33 62.5t-65 21.5h-9q-59 0-87.5-49.5T500 1044q0-77 28.5-126.5T616 868h9q71 0 94 82h92q-6-71-56-116.5T621 788z"/><glyph glyph-name="registered.alt" d="M614 573q-127 0-235.5 63.5t-172 172T143 1044q0 128 63.5 236.5t172 172T614 1516q128 0 236.5-63.5t171.5-172 63-236.5q0-127-63-235.5t-171.5-172T614 573zm0 78q161 0 274 115t113 278q0 164-113 279t-274 115q-160 0-273.5-115T227 1044q0-163 113.5-278T614 651zm-82 162h-79v471h198q73 0 114.5-41t41.5-92q0-43-22.5-78t-61.5-47q40 0 59-15t19-50V813h-80v123q0 28-11 37.5t-40 9.5H532V813zm0 401v-161h113q36 0 59 21.5t23 60.5q0 79-82 79H532z"/><glyph glyph-name="uni2117.alt" d="M614 573q-127 0-235.5 63.5t-172 172T143 1044q0 128 63.5 236.5t172 172T614 1516q128 0 236.5-63.5t171.5-172 63-236.5q0-127-63-235.5t-171.5-172T614 573zm0 78q161 0 274 115t113 278q0 164-113 279t-274 115q-160 0-273.5-115T227 1044q0-163 113.5-278T614 651zm-71 158h-80v471h199q71 0 114-41.5t43-114.5-43-114-114-41H543V809zm0 401v-172h108q88 0 88 86t-88 86H543z"/><glyph glyph-name="E010_BulletWhite" d="M614 225q-133 0-246 66T189 470.5 123 717t66 246 179 179 246 66 246.5-66T1040 963t66-246q0-99-39-190.5T962 369 804.5 264 614 225zm0 154q140 0 239 99.5T952 717t-99 238.5-239 99.5-239-99.5T276 717t99-238.5T614 379z"/><glyph glyph-name="E011_BulletWhite" d="M614 164q-150 0-277.5 74.5T135 440.5 61 717t74 276.5 201.5 202T614 1270q149 0 276.5-74.5t202-202T1167 717t-74.5-276.5-202-202T614 164zm0 153q164 0 282 118t118 282-118 281.5T614 1116q-165 0-282-117T215 717t117-282.5T614 317z"/><glyph glyph-name="E013_BulletWhite" d="M614 102q-166 0-307.5 82.5T82.5 409 0 717t82.5 307.5 224 224T614 1331t308-82.5 224.5-224T1229 717q0-124-49-238t-131.5-196.5T852 151t-238-49zm0 154q125 0 231 62t168 168 62 231-62 231-168 168-231 62q-190 0-325-135T154 717t135-326 325-135z"/><glyph glyph-name="E016_Bullet" d="M614 225q-133 0-246 66T189 470.5 123 717t66 246 179 179 246 66 246.5-66T1040 963t66-246q0-99-39-190.5T962 369 804.5 264 614 225z"/><glyph glyph-name="E017_Bullet" d="M614 164q-150 0-277.5 74.5T135 440.5 61 717t74 276.5 201.5 202T614 1270q149 0 276.5-74.5t202-202T1167 717t-74.5-276.5-202-202T614 164z"/><glyph glyph-name="E018_Bullet" d="M614 102q-166 0-307.5 82.5T82.5 409 0 717t82.5 307.5 224 224T614 1331t308-82.5 224.5-224T1229 717q0-124-49-238t-131.5-196.5T852 151t-238-49z"/></font>
</defs>
</svg>
