<?xml version="1.0" encoding="UTF-8"?>
<svg xmlns="http://www.w3.org/2000/svg" version="1.1" viewBox="0 0 17 17">
  <!-- Generator: Adobe Illustrator 28.7.1, SVG Export Plug-In . SVG Version: 1.2.0 Build 142)  -->
  <g>
    <g id="a">
      <path d="M16.55,1.52c0-.3-.12-.59-.33-.81-.21-.21-.51-.33-.81-.33H1.69c-.3,0-.59.12-.81.33-.21.21-.33.51-.33.81v13.72c0,.3.12.59.33.81.21.21.51.33.81.33h13.72c.3,0,.59-.12.81-.33.22-.21.33-.51.33-.81V1.52Z" fill="#fff" fill-rule="evenodd"/>
      <path d="M14.5,17H2.5c-.67,0-1.3-.26-1.77-.73s-.73-1.1-.73-1.77V2.5c0-.67.26-1.29.73-1.77C1.2.26,1.83,0,2.5,0h12C15.17,0,15.8.26,16.27.73c.47.47.73,1.1.73,1.77v12c0,.67-.26,1.3-.73,1.77-.47.47-1.1.73-1.77.73ZM2.5,1c-.4,0-.78.16-1.06.44-.28.28-.44.66-.44,1.06v12c0,.39.16.78.44,1.06s.67.44,1.06.44h12c.39,0,.78-.16,1.06-.44s.44-.66.44-1.06V2.5c0-.4-.16-.78-.44-1.06s-.66-.44-1.06-.44H2.5Z"/>
      <path d="M8.23,11.09c0,.17-.14.32-.32.32-.08,0-.17-.04-.22-.09l-1.66-1.66h-1.31c-.17,0-.32-.14-.32-.32v-1.92c0-.17.14-.32.32-.32h1.31l1.66-1.66c.06-.06.14-.09.22-.09.17,0,.32.14.32.32v5.43ZM9.37,9.55s-.08.02-.12.02c-.17,0-.32-.14-.32-.32,0-.38.58-.27.58-.88s-.58-.5-.58-.88c0-.18.15-.32.32-.32.04,0,.08,0,.12.02.47.18.77.67.77,1.17s-.3.98-.77,1.17ZM9.88,10.73s-.08.03-.12.03c-.18,0-.32-.14-.32-.32,0-.14.08-.23.2-.29.13-.07.26-.13.38-.22.49-.36.78-.93.78-1.54s-.29-1.18-.78-1.54c-.12-.09-.25-.15-.38-.22-.12-.06-.2-.15-.2-.29,0-.17.14-.32.32-.32.04,0,.09,0,.13.02.94.39,1.55,1.34,1.55,2.35s-.61,1.96-1.55,2.35ZM10.38,11.9s-.08.03-.13.03c-.17,0-.32-.14-.32-.32,0-.15.08-.22.2-.29.07-.04.15-.06.22-.1.14-.08.28-.16.41-.25.82-.6,1.3-1.56,1.3-2.57s-.48-1.97-1.3-2.57c-.13-.09-.27-.18-.41-.25-.07-.04-.15-.06-.22-.1-.12-.07-.2-.15-.2-.29,0-.17.14-.32.32-.32.04,0,.09.01.13.03,1.41.6,2.32,1.99,2.32,3.52s-.91,2.92-2.32,3.52Z"/>
    </g>
  </g>
</svg>