<?xml version="1.0" encoding="UTF-8"?>
<svg xmlns="http://www.w3.org/2000/svg" version="1.1" viewBox="0 0 17 17">
  <!-- Generator: Adobe Illustrator 28.7.1, SVG Export Plug-In . SVG Version: 1.2.0 Build 142)  -->
  <g>
    <g id="a">
      <path d="M16.55,1.52c0-.3-.12-.59-.33-.81-.21-.21-.51-.33-.81-.33H1.69c-.3,0-.59.12-.81.33-.21.21-.33.51-.33.81v13.72c0,.3.12.59.33.81.21.21.51.33.81.33h13.72c.3,0,.59-.12.81-.33.22-.21.33-.51.33-.81V1.52Z" fill="#fff" fill-rule="evenodd"/>
      <path d="M14.5,17H2.5c-.67,0-1.3-.26-1.77-.73s-.73-1.1-.73-1.77V2.5c0-.67.26-1.29.73-1.77C1.2.26,1.83,0,2.5,0h12C15.17,0,15.8.26,16.27.73c.47.47.73,1.1.73,1.77v12c0,.67-.26,1.3-.73,1.77-.47.47-1.1.73-1.77.73ZM2.5,1c-.4,0-.78.16-1.06.44-.28.28-.44.66-.44,1.06v12c0,.39.16.78.44,1.06s.67.44,1.06.44h12c.39,0,.78-.16,1.06-.44s.44-.66.44-1.06V2.5c0-.4-.16-.78-.44-1.06s-.66-.44-1.06-.44H2.5Z"/>
      <path d="M10.14,11.09c0,.17-.14.32-.32.32-.08,0-.17-.04-.22-.09l-1.66-1.66h-1.31c-.17,0-.32-.14-.32-.32v-1.92c0-.17.14-.32.32-.32h1.31l1.66-1.66c.06-.06.14-.09.22-.09.17,0,.32.14.32.32v5.43Z"/>
    </g>
  </g>
</svg>