<svg width="42" height="50" viewBox="0 0 42 50" fill="none" xmlns="http://www.w3.org/2000/svg">
<g clip-path="url(#clip0_130_3265)">
<mask id="mask0_130_3265" style="mask-type:luminance" maskUnits="userSpaceOnUse" x="0" y="0" width="42" height="49">
<path d="M32.0862 48.7819V43.1205H36.6661C37.1067 43.1205 37.4605 42.7667 37.4605 42.326V31.6708H40.7986C41.1258 31.6708 41.3795 31.3771 41.3327 31.0499L39.41 17.4906C38.7157 12.9307 36.4057 8.75809 32.9007 5.72042C29.3623 2.65604 24.8358 0.973637 20.1491 0.973637C9.40712 0.96696 0.667969 9.70611 0.667969 20.4481C0.667969 32.3051 6.50965 37.2321 6.50965 45.2235C6.50965 45.9379 6.50965 46.5654 6.50965 46.5654L6.4963 48.7753H32.0929L32.0862 48.7819Z" fill="white"/>
</mask>
<g mask="url(#mask0_130_3265)">
<path d="M2.69089 34.2012C2.67086 34.1411 2.67086 34.0743 2.71092 34.0209C3.07143 33.4735 3.52542 32.9794 4.07954 32.5254C5.60839 31.2903 7.33085 30.6694 9.20019 30.6694C9.43386 30.6694 9.66752 30.6761 9.90787 30.6961C11.1029 30.7963 12.1444 31.1969 12.9989 31.8912C13.0257 31.9112 13.0457 31.9312 13.0724 31.9446C13.1058 31.9646 13.1391 31.9646 13.1592 31.9713H13.1792C13.2193 31.9713 13.2593 31.9713 13.286 31.9379C13.3127 31.9112 13.3328 31.8778 13.3328 31.8378V31.731C13.3328 31.6575 13.3328 31.5841 13.3328 31.5173L13.3528 29.7147C13.3995 25.5421 13.4463 21.3695 13.493 17.2035L13.5197 15.0338C13.5397 13.3981 13.5597 11.7691 13.5731 10.1334C13.5731 10.0133 13.5798 9.99992 13.6866 9.97989C16.7243 9.29224 19.8154 8.58456 22.8063 7.90359L23.1334 7.83015C24.7557 7.46296 26.3781 7.08909 27.9937 6.71523L32.2131 5.74718C32.6937 5.62033 32.8072 5.7138 33.0876 5.98752C33.7219 6.58838 34.3094 7.22262 34.8502 7.89024C34.8769 7.92362 34.8969 7.97035 34.8969 8.01709V10.534C34.8835 16.4625 34.8702 22.3843 34.8568 28.3127C34.8568 29.2541 34.8235 30.2221 34.7634 31.1902C34.71 32.0714 34.3762 32.9193 33.7486 33.7672C32.6604 35.2493 31.1248 36.2374 29.1821 36.7114C27.6933 37.0719 26.2779 36.9985 24.9827 36.4911C23.6074 35.9503 22.7061 35.0424 22.2989 33.7806C21.9517 32.7124 22.0586 31.5974 22.6194 30.4692C23.2536 29.1807 24.2684 28.1592 25.6303 27.4315C26.9055 26.7505 28.1272 26.3967 29.3556 26.3499C30.7643 26.2965 30.7042 25.9828 31.8258 26.7372L31.9393 26.8106C31.9794 26.8373 32.0328 26.844 32.0795 26.8106C32.1263 26.7839 32.153 26.7438 32.153 26.6904L32.3065 10.4072C32.3065 10.3671 32.2865 10.3271 32.2531 10.3003C32.2197 10.2736 32.1797 10.267 32.1396 10.2736L16.3304 14.3929C16.2703 14.4062 16.2236 14.4596 16.2236 14.5264C16.2236 14.6933 16.2236 14.8602 16.2236 15.0271C16.2236 15.3743 16.2236 15.7415 16.2236 16.0953C16.2102 16.9899 16.1969 17.8845 16.1835 18.7791C16.1501 21.4096 16.1101 24.1201 16.0566 26.7972C16.0366 27.8921 16.0032 29.0004 15.9699 30.0753C15.9231 31.5774 15.8764 33.133 15.863 34.6618C15.8497 36.6714 14.9818 38.287 13.2126 39.5889C11.7238 40.6838 8.71283 41.2178 6.88355 41.1711C6.24263 41.1578 5.6618 41.0643 5.11435 40.8974C4.63367 39.0681 3.93266 37.3056 3.21163 35.4963C3.04473 35.0691 2.87115 34.6418 2.69757 34.2012H2.69089Z" stroke="black" stroke-width="1.33524" stroke-linejoin="round"/>
</g>
<path d="M32.0862 48.7819V43.1205H36.6661C37.1067 43.1205 37.4605 42.7667 37.4605 42.326V31.6708H40.7986C41.1258 31.6708 41.3795 31.3771 41.3327 31.0499L39.41 17.4906C38.7157 12.9307 36.4057 8.75809 32.9007 5.72042C29.3623 2.65604 24.8358 0.973637 20.1491 0.973637C9.40712 0.96696 0.667969 9.70611 0.667969 20.4481C0.667969 32.3051 6.50965 37.2321 6.50965 45.2235C6.50965 45.9379 6.50965 46.5654 6.50965 46.5654L6.4963 48.7753H32.0929L32.0862 48.7819Z" stroke="black" stroke-width="1.33524" stroke-linejoin="round"/>
</g>
<defs>
<clipPath id="clip0_130_3265">
<rect width="42" height="49.1502" fill="white" transform="translate(0 0.299805)"/>
</clipPath>
</defs>
</svg>
