<?xml version="1.0" encoding="UTF-8"?>
<svg id="a" data-name="Layer 1" xmlns="http://www.w3.org/2000/svg" width="17" height="17" viewBox="0 0 17 17">
  <path d="M16.5,1.64c0-.3-.12-.59-.33-.81-.21-.21-.51-.33-.81-.33H1.64c-.3,0-.59,.12-.81,.33-.21,.21-.33,.51-.33,.81V15.36c0,.3,.12,.59,.33,.81,.21,.21,.51,.33,.81,.33H15.36c.3,0,.59-.12,.81-.33s.33-.51,.33-.81V1.64Z" fill="#fff" fill-rule="evenodd"/>
  <path d="M6.35,11.3c-.09,.09-.22,.15-.35,.15-.13,0-.26-.05-.35-.15-.09-.09-.15-.22-.15-.35,0-.13,.05-.26,.15-.35l4.1-4.1h-2.77c-.13,0-.26-.05-.35-.15-.09-.09-.15-.22-.15-.35s.05-.26,.15-.35c.09-.09,.22-.15,.35-.15h3.97c.13,0,.26,.05,.35,.15,.09,.09,.15,.22,.15,.35v3.98c0,.13-.05,.26-.15,.35-.09,.09-.22,.15-.35,.15s-.26-.05-.35-.15c-.09-.09-.15-.22-.15-.35v-2.77l-4.1,4.1Z" fill-rule="evenodd"/>
  <path d="M14.5,17H2.5c-.67,0-1.3-.26-1.77-.73s-.73-1.1-.73-1.77V2.5C0,1.83,.26,1.21,.73,.73c.47-.47,1.1-.73,1.77-.73H14.5c.67,0,1.3,.26,1.77,.73s.73,1.1,.73,1.77V14.5c0,.67-.26,1.3-.73,1.77-.47,.47-1.1,.73-1.77,.73ZM2.5,1c-.4,0-.78,.16-1.06,.44-.28,.28-.44,.66-.44,1.06V14.5c0,.39,.16,.78,.44,1.06s.67,.44,1.06,.44H14.5c.39,0,.78-.16,1.06-.44,.28-.28,.44-.66,.44-1.06V2.5c0-.4-.16-.78-.44-1.06s-.66-.44-1.06-.44H2.5Z"/>
</svg>