<svg width="43" height="47" viewBox="0 0 43 47" fill="none" xmlns="http://www.w3.org/2000/svg">
<path d="M42.7593 26.6085L42.7367 26.5504L40.4868 21.9571C40.1005 21.1711 39.7788 20.3528 39.5267 19.5232C38.898 17.446 38.5181 15.8337 38.2579 14.1326C37.9023 11.8085 36.4396 8.2626 33.4009 5.27677C30.8989 2.81871 26.4088 -0.0944864 19.2469 0.00235119C13.5705 0.0782073 8.70541 2.04885 5.18025 5.70124C1.81996 9.18256 -0.00646521 13.9712 0.037175 19.1843L0 20.837V20.8563C0 26.0856 1.41427 29.1957 2.78166 32.2025C4.07147 35.0366 5.28855 37.7158 5.28855 42.4527V45.3046C5.28855 46.2181 6.03204 46.9605 6.94687 46.9605H29.5945C30.5093 46.9605 31.2528 46.2181 31.2528 45.3046V43.1177L31.2706 41.1438H34.2866C36.5996 41.1438 38.481 39.2652 38.481 36.9556V31.6925H39.184C40.2249 31.6925 41.2222 31.2841 41.9221 30.5708C42.9468 29.5281 43.2749 27.9723 42.7593 26.6085ZM40.6226 29.299C40.2621 29.6653 39.7384 29.8751 39.184 29.8751H38.19C37.3463 29.8751 36.661 30.5595 36.661 31.4019V36.9556C36.661 38.2629 35.5959 39.3265 34.2866 39.3265H30.9732C30.136 39.3265 29.4539 40.0076 29.4539 40.8355L29.4345 43.1096V45.1416H7.1085V42.4527C7.1085 37.322 5.81223 34.4701 4.43837 31.452C3.15179 28.6227 1.82157 25.6966 1.81996 20.8676L1.85713 19.1972V19.1827C1.81511 14.4425 3.46051 10.1025 6.49108 6.96336C9.67196 3.66765 14.0909 1.89068 19.2712 1.82128C24.4482 1.7535 28.8914 3.3949 32.1256 6.57278C34.8491 9.24873 36.1632 12.4654 36.4606 14.4069C36.7353 16.1984 37.1313 17.885 37.7859 20.0494C38.0656 20.9725 38.4244 21.8828 38.8527 22.756L41.0493 27.2331L41.0557 27.2525C41.3224 27.9561 41.1527 28.7599 40.6226 29.299Z" fill="black"/>
<path d="M14.2962 21.4018C14.2962 20.1074 13.1212 18.2336 10.9973 18.2336C9.00443 18.2336 7.92797 19.8395 7.92797 21.3502V21.8134C7.92797 22.0474 8.11869 22.2379 8.35306 22.2379H9.28082C9.51518 22.2379 9.7059 22.0474 9.7059 21.8134V21.3502C9.7059 21.2953 9.72045 20.009 10.9973 20.009C11.9817 20.009 12.5183 20.9289 12.5183 21.4018C12.5183 22.2411 12.2354 22.6623 11.4386 23.4306C10.8729 23.9745 10.8761 24.4877 10.8793 25.5094C10.8793 25.6288 10.8793 25.7579 10.8793 25.9032V26.3664C10.8793 26.6004 11.0701 26.7908 11.3044 26.7908H12.2322C12.4666 26.7908 12.6573 26.6004 12.6573 26.3664V25.9032C12.6573 25.7563 12.6573 25.624 12.6573 25.5029C12.6573 25.1607 12.654 24.8347 12.6734 24.7088C13.5285 23.8857 14.2946 23.0126 14.2946 21.4051L14.2962 21.4018Z" fill="black"/>
<path d="M12.3017 27.685H11.2123C11.0668 27.685 10.9488 27.8028 10.9488 27.9481V29.0278C10.9488 29.1731 11.0668 29.2909 11.2123 29.2909H12.3017C12.4472 29.2909 12.5651 29.1731 12.5651 29.0278V27.9481C12.5651 27.8028 12.4472 27.685 12.3017 27.685Z" fill="black"/>
<path d="M16.8387 19.591C16.3877 18.182 14.5855 15.5173 10.9989 15.5173C7.41237 15.5173 5.06873 18.1545 5.06873 21.7876C5.06873 23.6969 5.98679 24.7347 6.72382 25.5691C7.38327 26.3163 7.95383 26.9603 8.00717 28.1821C8.109 30.4723 9.71722 32.1347 11.8313 32.1347C13.9455 32.1347 14.9185 30.4142 14.9605 30.3416L15.19 29.9381C15.2611 29.8122 15.2175 29.6524 15.093 29.5798L14.2897 29.1182C14.2283 29.0827 14.1572 29.0746 14.0893 29.0924C14.0214 29.1117 13.9649 29.1553 13.9293 29.2166L13.7014 29.6169C13.6739 29.6637 13.0517 30.6837 11.833 30.6837C10.5044 30.6837 9.52811 29.6298 9.46184 28.1191C9.38588 26.3841 8.55186 25.4416 7.81644 24.6088C7.12305 23.8244 6.52502 23.1481 6.52502 21.7876C6.52502 18.9502 8.36599 16.9699 11.0006 16.9699C14.3964 16.9699 15.4131 19.9073 15.4551 20.0316L15.5973 20.4738C15.6183 20.5416 15.6652 20.5949 15.7283 20.6271C15.7913 20.6594 15.8624 20.6659 15.9287 20.6433L16.8112 20.3608C16.9502 20.3173 17.0261 20.1688 16.9825 20.03L16.8419 19.5894L16.8387 19.591Z" fill="black"/>
<path d="M19.9678 19.4651L20.9538 20.0348C21.0297 20.0784 21.1267 20.0558 21.1736 19.9832C21.8314 18.9648 22.7624 18.1497 23.8631 17.6236C23.9084 17.601 23.9585 17.5913 24.007 17.5913C24.0878 17.5913 24.1686 17.6219 24.23 17.6784C24.3335 17.772 24.3674 17.9173 24.3173 18.048C24.188 18.3918 24.1379 18.7517 24.1654 19.1213C24.2623 20.3673 25.3178 21.3825 26.5688 21.4341C27.2622 21.4632 27.9168 21.2146 28.4162 20.7369C28.9157 20.2592 29.1904 19.6152 29.1904 18.9244C29.1904 18.6242 29.1371 18.3305 29.032 18.0496C28.9836 17.9189 29.0175 17.7737 29.1209 17.6784C29.2212 17.5864 29.365 17.5655 29.4878 17.6236C30.5885 18.1481 31.5195 18.9648 32.1774 19.9832C32.2242 20.0558 32.3212 20.0784 32.3972 20.0348L33.3831 19.4651C33.4219 19.4425 33.4494 19.4054 33.4607 19.3618C33.472 19.3166 33.464 19.2682 33.4381 19.2278C31.9786 16.9392 29.3876 15.5173 26.6771 15.5173C23.9666 15.5173 21.3756 16.9392 19.9161 19.2278C19.8902 19.2682 19.8822 19.315 19.8935 19.3618C19.9048 19.4054 19.9323 19.4425 19.9711 19.4651H19.9678Z" fill="black"/>
<path d="M34.8313 27.9271C34.4386 27.3977 33.5205 26.8167 32.9176 26.3874C31.7394 25.6369 30.338 24.8218 28.9286 25.0655C28.1706 25.1866 27.4368 25.5174 26.6593 25.5029C25.8722 25.5094 25.1303 25.1672 24.3609 25.0575C22.6072 24.825 20.9198 26.0339 19.5395 27.0216C19.1548 27.3299 18.6538 27.6575 18.5034 27.9658C18.3305 28.3403 18.3806 28.7583 18.6473 29.0036C19.3439 29.6185 21.0814 31.0356 23.8809 31.7731C26.8387 32.6366 30.4641 31.941 32.958 30.3512C33.8131 29.8219 34.3852 29.3167 34.6568 29.0617C34.9833 28.8067 35.0382 28.3177 34.8443 27.9448L34.8346 27.9271H34.8313ZM22.7543 26.623C24.4369 26.0049 25.376 27.7447 27.7245 27.0846C28.725 26.8054 29.5816 26.2131 30.5627 26.6117C30.9522 26.7537 31.5939 27.0539 31.547 27.5284L31.5422 27.5478C31.2722 28.1095 30.1602 28.0223 29.6091 28.1401C28.3613 28.2789 27.2735 28.4468 26.0564 28.3741C25.2531 28.3096 24.5274 28.245 23.6627 28.1304C23.1632 28.053 22.5992 28.0514 22.1353 27.8512C21.3352 27.4671 22.1579 26.8038 22.7527 26.6214L22.7543 26.623ZM31.6343 29.901L31.6068 29.9219C31.2933 30.1463 30.9118 30.2738 30.5417 30.3868C27.9604 31.1615 25.245 31.1695 22.6622 30.3044C22.3389 30.1931 21.9672 30.0236 21.7328 29.7944C21.5453 29.6137 21.471 29.4184 21.5486 29.2731C21.8977 28.8277 22.7753 29.0746 23.2974 29.0988C24.6632 29.2489 25.9401 29.4523 27.2897 29.3748C28.2093 29.3054 29.1403 29.2166 30.115 29.094C30.6661 29.0649 31.4226 28.8422 31.9075 29.1166C32.1758 29.2893 31.9252 29.7154 31.6359 29.9026L31.6343 29.901Z" fill="black"/>
</svg>
