<svg width="43" height="50" viewBox="0 0 43 50" fill="none" xmlns="http://www.w3.org/2000/svg">
<g clip-path="url(#clip0_1204_973)">
<path d="M42.98 30.71L41.05 17.12C41 16.78 40.94 16.45 40.87 16.12C40.87 16.06 40.85 16 40.83 15.94C39.91 11.68 37.63 7.81 34.31 4.93C30.65 1.75 25.95 0 21.1 0C11.41 0 3.30001 6.86 1.36001 15.97C1.36001 15.97 1.36001 15.99 1.36001 16C1.07001 17.35 0.920006 18.75 0.920006 20.19C0.920006 26.84 2.73001 31.38 4.32001 35.39C5.63001 38.69 6.77001 41.54 6.77001 45.02C6.77001 45.73 6.77001 46.36 6.77001 46.36V48.57C6.76001 48.75 6.83001 48.92 6.95001 49.05C7.08001 49.18 7.25001 49.25 7.42001 49.25H19.11C19.11 49.25 19.12 49.25 19.13 49.25H23.08C23.08 49.25 23.08 49.25 23.09 49.25H33.06C33.24 49.25 33.41 49.18 33.53 49.06C33.65 48.94 33.73 48.76 33.73 48.59V43.58H37.65C38.46 43.58 39.11 42.92 39.11 42.12V32.11H41.79C42.14 32.11 42.48 31.96 42.71 31.69C42.94 31.42 43.04 31.07 42.99 30.73L42.98 30.71ZM21.1 1.34C25.63 1.34 30.01 2.97 33.44 5.94C36.36 8.47 38.41 11.81 39.36 15.5H2.84001C4.93001 7.36 12.32 1.34 21.1 1.34ZM19.53 47.9L14.53 38.44H27.68L22.68 47.9H19.53ZM28.39 37.1H13.82L8.82001 27.63H33.39L28.39 37.1ZM34.1 26.3H8.11001L3.11001 16.83H39.1L34.1 26.3ZM5.56001 34.89C4.01001 31 2.25001 26.58 2.25001 20.19C2.25001 19.54 2.28001 18.89 2.35001 18.26L7.12001 27.28L12.83 38.08L18.02 47.9H8.09001V46.36C8.09001 46.36 8.09001 45.73 8.09001 45.01C8.09001 41.27 6.85001 38.17 5.55001 34.89H5.56001ZM38.44 30.76C38.07 30.76 37.77 31.06 37.77 31.43V42.11C37.77 42.18 37.71 42.24 37.64 42.24H33.05C32.68 42.24 32.38 42.54 32.38 42.91V47.92H24.18L29.37 38.1L35.08 27.3L39.85 18.27L41.62 30.78H38.43L38.44 30.76Z" fill="black"/>
</g>
<defs>
<clipPath id="clip0_1204_973">
<rect width="42.09" height="49.24" fill="white" transform="translate(0.910004)"/>
</clipPath>
</defs>
</svg>
