<svg width="143" height="22" viewBox="0 0 143 22" fill="none" xmlns="http://www.w3.org/2000/svg">
<path d="M2.20707 21.9998V12.8017H11.7169C12.6523 12.8017 13.12 13.2694 13.12 14.2048V21.9998H15.3026V14.2048C15.3026 12.0534 14.492 11.2427 12.3094 11.2427C14.3049 10.432 15.6144 8.53005 15.6144 6.00448C15.6144 2.63704 12.7771 0.173828 8.94193 0.173828H0.0244751V21.9998H2.20707ZM2.20707 2.20052H8.63014C11.6234 2.20052 13.4318 3.72834 13.4318 6.31627C13.4318 9.06011 11.1245 10.775 8.63014 10.775H2.20707V2.20052Z" fill="black"/>
<path d="M36.6236 21.9998V19.9731H23.2474V11.7728H34.441V9.74607H23.2474V2.20052H36.3118V0.173828H21.0648V21.9998H36.6236Z" fill="black"/>
<path d="M56.3169 21.9998V19.9731H43.2525V0.173828H41.0699V21.9998H56.3169Z" fill="black"/>
<path d="M77.6303 21.9998L68.7441 0.173828H66.0002L57.0516 21.9998H59.2965L61.7286 15.9821H72.891L75.323 21.9998H77.6303ZM67.3098 2.16934L72.0803 13.9554H62.5393L67.3098 2.16934Z" fill="black"/>
<path d="M85.9468 21.9998V2.20052H93.8977V0.173828H75.8134V2.20052H83.7643V21.9998H85.9468Z" fill="black"/>
<path d="M99.5834 21.9998V0.173828H97.4008V21.9998H99.5834Z" fill="black"/>
<path d="M113.324 19.5677L105.092 0.173828H102.754L112.076 21.9998H114.508L123.488 0.173828H121.15L113.324 19.5677Z" fill="black"/>
<path d="M142.373 21.9998V19.9731H128.997V11.7728H140.191V9.74607H128.997V2.20052H142.062V0.173828H126.815V21.9998H142.373Z" fill="black"/>
</svg>
