<svg width="110" height="21" viewBox="0 0 110 21" fill="none" xmlns="http://www.w3.org/2000/svg">
<path d="M7.96 1.94C6.32 1.94 5.26 2.96 5.26 4.34C5.26 6.78 9.86 7.2 9.86 10.46C9.86 12.86 7.52 15.2 4.26 15.2C2.54 15.2 0.82 14.46 0 13.38L0.76 10.34C1.06 12.76 2.78 14.18 4.8 14.18C6.54 14.18 8.06 13.1 8.06 11.18C8.06 8.44 3.68 8.12 3.68 5.14C3.68 2.96 5.48 0.999999 8.22 0.999999C9.66 0.999999 10.66 1.68 11.14 2.24L12.9 0.999999L11.18 5.46C10.86 3.56 9.84 1.94 7.96 1.94ZM15.4798 5.8L12.2198 14.26C13.2598 14.26 15.4398 12.1 16.4198 10.62L18.1998 6H19.8798L16.8798 13.78L19.8798 12.7C18.9798 13.94 17.2198 15.08 16.1798 15.08C15.4798 15.08 15.1598 14.52 15.4598 13.74L16.1998 11.82H15.9798C14.6398 13.7 12.9198 15.2 11.7598 15.2C10.7998 15.2 10.6398 14.38 11.0198 13.38L13.1598 7.8H11.4998C12.2398 6.46 14.2998 5.8 15.4798 5.8ZM22.3961 15.2L21.3961 14.86L19.6161 19.8H21.6561L21.3561 20.6H16.1561L16.4561 19.8H17.8961L22.6761 6.9C22.0361 6.94 21.2761 7.02 20.7561 7.1C21.3761 6.66 22.1361 6.26 22.9961 6.04L23.7761 3.92L25.5361 3.38L24.6561 5.8H24.6961C26.8161 5.8 28.1161 7.08 28.1161 8.9C28.1161 12.04 25.3561 14.82 22.3961 15.2ZM26.4361 9.02C26.4361 7.82 25.8961 7 24.2761 6.86L21.4361 14.76C23.9961 14.26 26.4361 11.74 26.4361 9.02ZM28.5019 12.72C28.5019 9.96 31.1219 5.8 33.8019 5.8C34.7819 5.8 35.3819 6.44 35.3819 7.28C35.3819 9.42 32.6619 10.44 30.4419 10.54C30.2619 11.12 30.1419 11.7 30.1419 12.2C30.1419 13.06 30.4019 13.74 30.7619 14.04L33.7419 12.8C33.1019 13.98 31.4819 15.2 30.2619 15.2C29.2019 15.2 28.5019 14.32 28.5019 12.72ZM33.3819 6.42C32.4419 6.74 31.1219 8.6 30.5019 10.4C32.6419 9.64 33.9019 8.5 33.9019 7.34C33.9019 6.86 33.7619 6.56 33.3819 6.42ZM38.5289 10.3L36.5689 15H34.8889L37.6489 7.8H35.6689C36.1489 6.88 37.6889 5.8 39.2089 5.8L38.5689 9.28H38.8089C39.9089 7.28 40.8289 5.8 42.0289 5.8C42.6889 5.8 43.1489 6.24 43.1489 6.88C43.1489 7.68 42.5089 8.16 41.9689 8.38L40.9689 7.2C40.2689 7.84 39.3689 9 38.5289 10.3ZM54.7547 1.96C51.5347 1.96 48.3547 5.5 48.3547 9.34C48.3547 12.06 49.8147 13.74 51.9547 13.74C53.9547 13.74 55.3947 12.82 56.8547 11.32C55.7547 13.96 53.3547 15.2 51.1347 15.2C48.3347 15.2 46.4147 13.04 46.4147 10.1C46.4147 5.44 50.6547 0.999999 54.9947 0.999999C56.5747 0.999999 57.6147 1.68 58.1747 2.24L59.9347 0.999999L58.2947 5.5C57.8347 3.62 57.1147 1.96 54.7547 1.96ZM65.1258 8.74C65.1258 11.58 62.3058 15.2 59.8658 15.2C58.6658 15.2 57.6858 14 57.6858 12.26C57.6858 9.42 60.5058 5.8 62.9458 5.8C64.1458 5.8 65.1258 7 65.1258 8.74ZM59.3658 12.8C59.3658 13.7 59.6058 14.32 59.9258 14.58C61.8458 13.86 63.4458 10.72 63.4458 8.2C63.4458 7.3 63.2058 6.68 62.8858 6.42C60.9658 7.14 59.3658 10.28 59.3658 12.8ZM69.4847 5.8L68.8647 9.18H69.1047C70.4247 7.28 71.8447 5.8 73.2047 5.8C74.2047 5.8 74.3647 6.64 73.9847 7.64L71.6247 13.78L74.6247 12.7C73.7247 13.94 71.9047 15.08 70.8647 15.08C70.1047 15.08 69.7447 14.52 70.0447 13.74L72.7047 6.82C71.6247 6.82 69.5247 9.1 68.5447 10.58L66.8447 15H65.1647L67.9247 7.8H65.9447C66.4247 6.88 67.9647 5.8 69.4847 5.8ZM76.5028 12.2C76.5028 13.06 76.7628 13.74 77.1228 14.04L80.1028 12.8C79.4628 13.98 77.8428 15.2 76.6228 15.2C75.5628 15.2 74.8628 14.32 74.8628 12.72C74.8628 9.96 77.5828 5.8 80.5028 5.8C81.4028 5.8 81.8228 6.22 81.8228 6.72C81.8228 7.16 81.5228 7.64 80.9628 7.98L79.1828 6.7C77.6428 7.82 76.5028 10.48 76.5028 12.2ZM86.1592 3.3C85.4992 3.3 84.9792 2.78 84.9792 2.14C84.9792 1.5 85.4992 0.979999 86.1592 0.979999C86.8192 0.979999 87.3392 1.5 87.3392 2.14C87.3392 2.78 86.8192 3.3 86.1592 3.3ZM81.3392 13.74L83.6192 7.8H81.9592C82.6992 6.46 84.7592 5.8 85.9392 5.8L82.8592 13.78L85.8592 12.7C84.9592 13.94 83.1992 15.08 82.1592 15.08C81.3992 15.08 81.0392 14.52 81.3392 13.74ZM93.7023 8.74C93.7023 11.58 90.8823 15.2 88.4423 15.2C87.2423 15.2 86.2623 14 86.2623 12.26C86.2623 9.42 89.0823 5.8 91.5223 5.8C92.7223 5.8 93.7023 7 93.7023 8.74ZM87.9423 12.8C87.9423 13.7 88.1823 14.32 88.5023 14.58C90.4223 13.86 92.0223 10.72 92.0223 8.2C92.0223 7.3 91.7823 6.68 91.4623 6.42C89.5423 7.14 87.9423 10.28 87.9423 12.8ZM98.8213 5.8L95.5613 14.26C96.6013 14.26 98.7813 12.1 99.7613 10.62L101.541 6H103.221L100.221 13.78L103.221 12.7C102.321 13.94 100.561 15.08 99.5213 15.08C98.8213 15.08 98.5013 14.52 98.8013 13.74L99.5413 11.82H99.3213C97.9813 13.7 96.2613 15.2 95.1013 15.2C94.1413 15.2 93.9813 14.38 94.3613 13.38L96.5013 7.8H94.8413C95.5813 6.46 97.6413 5.8 98.8213 5.8ZM105.857 7.98C105.857 9.34 107.757 10.4 107.757 11.76C107.757 13.42 105.497 15.2 103.917 15.2C103.017 15.2 102.617 14.42 103.077 13.18L105.997 13.82C106.237 13.64 106.537 13.24 106.537 12.82C106.537 11.34 104.677 10.36 104.677 8.96C104.677 7.48 106.717 5.8 108.297 5.8C109.917 5.8 109.317 7.3 108.397 7.84L106.577 6.86C106.257 7.04 105.857 7.46 105.857 7.98Z" fill="black"/>
</svg>
