<svg width="128" height="20" viewBox="0 0 128 20" fill="none" xmlns="http://www.w3.org/2000/svg">
<path d="M124.185 7.00007C124.185 8.36007 126.085 9.42007 126.085 10.7801C126.085 12.4401 123.825 14.2201 122.245 14.2201C121.345 14.2201 120.945 13.4401 121.405 12.2001L124.325 12.8401C124.565 12.6601 124.865 12.2601 124.865 11.8401C124.865 10.3601 123.005 9.38007 123.005 7.98007C123.005 6.50007 125.045 4.82007 126.625 4.82007C128.245 4.82007 127.645 6.32007 126.725 6.86007L124.905 5.88007C124.585 6.06007 124.185 6.48007 124.185 7.00007Z" fill="black"/>
<path d="M116.549 4.82007L113.289 13.2801C114.329 13.2801 116.509 11.1201 117.489 9.64007L119.269 5.02007H120.949L117.949 12.8001L120.949 11.7201C120.049 12.9601 118.289 14.1001 117.249 14.1001C116.549 14.1001 116.229 13.5401 116.529 12.7601L117.269 10.8401H117.049C115.709 12.7201 113.989 14.2201 112.829 14.2201C111.869 14.2201 111.709 13.4001 112.089 12.4001L114.229 6.82007H112.569C113.309 5.48007 115.369 4.82007 116.549 4.82007Z" fill="black"/>
<path d="M110.83 7.76007C110.83 10.6001 108.01 14.2201 105.57 14.2201C104.37 14.2201 103.39 13.0201 103.39 11.2801C103.39 8.44007 106.21 4.82007 108.65 4.82007C109.85 4.82007 110.83 6.02007 110.83 7.76007ZM105.07 11.8201C105.07 12.7201 105.31 13.3401 105.63 13.6001C107.55 12.8801 109.15 9.74007 109.15 7.22007C109.15 6.32007 108.91 5.70007 108.59 5.44007C106.67 6.16007 105.07 9.30007 105.07 11.8201Z" fill="black"/>
<path d="M102.687 2.32C102.027 2.32 101.507 1.8 101.507 1.16C101.507 0.52 102.027 0 102.687 0C103.347 0 103.867 0.52 103.867 1.16C103.867 1.8 103.347 2.32 102.687 2.32ZM97.8665 12.76L100.147 6.82H98.4865C99.2265 5.48 101.287 4.82 102.467 4.82L99.3865 12.8L102.387 11.72C101.487 12.96 99.7265 14.1 98.6865 14.1C97.9265 14.1 97.5665 13.54 97.8665 12.76Z" fill="black"/>
<path d="M92.43 11.2201C92.43 12.0801 92.69 12.7601 93.05 13.0601L96.03 11.8201C95.39 13.0001 93.77 14.2201 92.55 14.2201C91.49 14.2201 90.79 13.3401 90.79 11.7401C90.79 8.98007 93.51 4.82007 96.43 4.82007C97.33 4.82007 97.75 5.24007 97.75 5.74007C97.75 6.18007 97.45 6.66007 96.89 7.00007L95.11 5.72007C93.57 6.84007 92.43 9.50007 92.43 11.2201Z" fill="black"/>
<path d="M87.2123 7.00007C87.2123 8.36007 89.1123 9.42007 89.1123 10.7801C89.1123 12.4401 86.8523 14.2201 85.2723 14.2201C84.3723 14.2201 83.9723 13.4401 84.4323 12.2001L87.3523 12.8401C87.5923 12.6601 87.8923 12.2601 87.8923 11.8401C87.8923 10.3601 86.0323 9.38007 86.0323 7.98007C86.0323 6.50007 88.0723 4.82007 89.6523 4.82007C91.2723 4.82007 90.6723 6.32007 89.7523 6.86007L87.9323 5.88007C87.6123 6.06007 87.2123 6.48007 87.2123 7.00007Z" fill="black"/>
<path d="M78.894 4.82007L78.274 8.20007H78.514C79.834 6.30007 81.254 4.82007 82.614 4.82007C83.614 4.82007 83.774 5.66007 83.394 6.66007L81.034 12.8001L84.034 11.7201C83.134 12.9601 81.314 14.1001 80.274 14.1001C79.514 14.1001 79.154 13.5401 79.454 12.7601L82.114 5.84007C81.034 5.84007 78.934 8.12007 77.954 9.60007L76.254 14.0201H74.574L77.334 6.82007H75.354C75.834 5.90007 77.374 4.82007 78.894 4.82007Z" fill="black"/>
<path d="M73.9351 7.76007C73.9351 10.6001 71.1151 14.2201 68.6751 14.2201C67.4751 14.2201 66.4951 13.0201 66.4951 11.2801C66.4951 8.44007 69.3151 4.82007 71.7551 4.82007C72.9551 4.82007 73.9351 6.02007 73.9351 7.76007ZM68.1751 11.8201C68.1751 12.7201 68.4151 13.3401 68.7351 13.6001C70.6551 12.8801 72.2551 9.74007 72.2551 7.22007C72.2551 6.32007 72.0151 5.70007 71.6951 5.44007C69.7751 6.16007 68.1751 9.30007 68.1751 11.8201Z" fill="black"/>
<path d="M62.964 0.98002C59.744 0.98002 56.564 4.52002 56.564 8.36002C56.564 11.08 58.024 12.76 60.164 12.76C62.164 12.76 63.604 11.84 65.064 10.34C63.964 12.98 61.564 14.22 59.344 14.22C56.544 14.22 54.624 12.06 54.624 9.12002C54.624 4.46002 58.864 0.0200195 63.204 0.0200195C64.784 0.0200195 65.824 0.70002 66.384 1.26002L68.144 0.0200195L66.504 4.52002C66.044 2.64002 65.324 0.98002 62.964 0.98002Z" fill="black"/>
<path d="M51.8008 8.38L51.2008 9.54H46.3408L46.9408 8.38H51.8008Z" fill="black"/>
<path d="M40.9288 9.32007L38.9688 14.0201H37.2888L40.0488 6.82007H38.0688C38.5488 5.90007 40.0888 4.82007 41.6088 4.82007L40.9688 8.30007H41.2088C42.3088 6.30007 43.2288 4.82007 44.4288 4.82007C45.0888 4.82007 45.5488 5.26007 45.5488 5.90007C45.5488 6.70007 44.9088 7.18007 44.3688 7.40007L43.3688 6.22007C42.6688 6.86007 41.7688 8.02007 40.9288 9.32007Z" fill="black"/>
<path d="M30.3018 11.7401C30.3018 8.98007 32.9218 4.82007 35.6018 4.82007C36.5818 4.82007 37.1818 5.46007 37.1818 6.30007C37.1818 8.44007 34.4618 9.46007 32.2418 9.56007C32.0618 10.1401 31.9418 10.7201 31.9418 11.2201C31.9418 12.0801 32.2018 12.7601 32.5618 13.0601L35.5418 11.8201C34.9018 13.0001 33.2818 14.2201 32.0618 14.2201C31.0018 14.2201 30.3018 13.3401 30.3018 11.7401ZM35.1818 5.44007C34.2418 5.76007 32.9218 7.62007 32.3018 9.42007C34.4418 8.66007 35.7018 7.52007 35.7018 6.36007C35.7018 5.88007 35.5618 5.58007 35.1818 5.44007Z" fill="black"/>
<path d="M23.5962 14.22L22.5962 13.88L20.8162 18.82H22.8562L22.5562 19.62H17.3562L17.6562 18.82H19.0962L23.8762 5.92002C23.2362 5.96002 22.4762 6.04002 21.9562 6.12002C22.5762 5.68002 23.3362 5.28003 24.1962 5.06002L24.9762 2.94002L26.7362 2.40002L25.8562 4.82002H25.8962C28.0162 4.82002 29.3162 6.10002 29.3162 7.92002C29.3162 11.06 26.5562 13.84 23.5962 14.22ZM27.6362 8.04002C27.6362 6.84002 27.0962 6.02002 25.4762 5.88002L22.6362 13.78C25.1962 13.28 27.6362 10.76 27.6362 8.04002Z" fill="black"/>
<path d="M16.0799 4.82007L12.8199 13.2801C13.8599 13.2801 16.0399 11.1201 17.0199 9.64007L18.7999 5.02007H20.4799L17.4799 12.8001L20.4799 11.7201C19.5799 12.9601 17.8199 14.1001 16.7799 14.1001C16.0799 14.1001 15.7599 13.5401 16.0599 12.7601L16.7999 10.8401H16.5799C15.2399 12.7201 13.5199 14.2201 12.3599 14.2201C11.3999 14.2201 11.2399 13.4001 11.6199 12.4001L13.7599 6.82007H12.0999C12.8399 5.48007 14.8999 4.82007 16.0799 4.82007Z" fill="black"/>
<path d="M7.96 0.960019C6.32 0.960019 5.26 1.98002 5.26 3.36002C5.26 5.80002 9.86 6.22002 9.86 9.48002C9.86 11.88 7.52 14.22 4.26 14.22C2.54 14.22 0.82 13.48 0 12.4L0.76 9.36002C1.06 11.78 2.78 13.2 4.8 13.2C6.54 13.2 8.06 12.12 8.06 10.2C8.06 7.46002 3.68 7.14002 3.68 4.16002C3.68 1.98002 5.48 0.0200195 8.22 0.0200195C9.66 0.0200195 10.66 0.70002 11.14 1.26002L12.9 0.0200195L11.18 4.48002C10.86 2.58002 9.84 0.960019 7.96 0.960019Z" fill="black"/>
</svg>
